SplineFontDB: 3.0
FontName: Stamico
FullName: Stamico
FamilyName: Stamico
Weight: Regular
Copyright: Copyright Gumble (c) 2013-2014
UComments: "2013-6-11: Created." 
Version: 1.1.4.1408
ItalicAngle: 0
UnderlinePosition: -50
UnderlineWidth: 50
Ascent: 800
Descent: 224
LayerCount: 2
Layer: 0 0 "+gMxmbwAA"  1
Layer: 1 0 "+Uk1mbwAA"  0
XUID: [1021 578 274709731 4434826]
FSType: 8
OS2Version: 0
OS2_WeightWidthSlopeOnly: 0
OS2_UseTypoMetrics: 1
CreationTime: 1397365391
ModificationTime: 1408516496
PfmFamily: 65
TTFWeight: 500
TTFWidth: 5
LineGap: 92
VLineGap: 0
Panose: 3 5 6 2 4 3 2 2 2 4
OS2TypoAscent: 0
OS2TypoAOffset: 1
OS2TypoDescent: 0
OS2TypoDOffset: 1
OS2TypoLinegap: 92
OS2WinAscent: 0
OS2WinAOffset: 1
OS2WinDescent: 0
OS2WinDOffset: 1
HheadAscent: 0
HheadAOffset: 1
HheadDescent: 0
HheadDOffset: 1
OS2FamilyClass: 2560
OS2Vendor: 'GbDY'
OS2CodePages: 00040000.00000000
Lookup: 258 0 0 "'kern' +bDRec1OLfykA +Z+VifgAA 0"  {"'kern' +bDRec1OLfykA +Z+VifgAA 0-1" [100,20,2] } ['kern' ('DFLT' <'dflt' > 'grek' <'dflt' > 'kana' <'dflt' > 'latn' <'dflt' > ) ]
MarkAttachClasses: 1
DEI: 91125
KernClass2: 45 43 "'kern' +bDRec1OLfykA +Z+VifgAA 0-1" 
 11 quotesingle
 1 A
 1 B
 1 C
 3 D O
 1 E
 1 F
 1 G
 3 H J
 3 I l
 1 K
 1 L
 1 M
 1 N
 1 P
 1 Q
 1 R
 1 S
 1 T
 1 U
 1 V
 1 W
 1 X
 1 Y
 1 Z
 3 a u
 1 b
 1 c
 1 d
 3 e z
 1 f
 1 g
 1 h
 3 i j
 1 k
 5 m n s
 3 o p
 1 q
 1 r
 1 t
 5 v w y
 1 x
 5 slash
 9 backslash
 11 quotesingle
 1 A
 1 B
 5 C O Q
 21 D H I K L N P R b h l
 1 E
 1 F
 1 G
 1 J
 1 M
 1 S
 1 T
 1 U
 1 V
 1 W
 1 X
 1 Y
 1 Z
 3 a e
 1 c
 1 d
 1 f
 1 g
 1 i
 1 j
 1 k
 1 m
 1 n
 1 o
 1 p
 1 q
 1 r
 1 s
 1 t
 1 u
 1 v
 1 w
 1 x
 1 y
 1 z
 5 slash
 9 backslash

StartChar: exclam
Encoding: 33 33 0
Width: 352
VWidth: -51
Flags: HMW
LayerCount: 2
Fore
SplineSet
176.225826384 -50.1797149571 m 0
 154.198155005 -52.9495879976 119.255226478 -22.157324524 120.695202693 0.172111225119 c 1
 116.698956877 22.5890950048 168.161653331 68.1414751795 188.918290606 65.9716783936 c 1
 208.366173813 69.4204633908 226.573398386 31.9110821088 226.224171657 6.54164225649 c 0
 226.224171657 -26.1785676685 203.160563053 -50.1797149571 176.225826384 -50.1797149571 c 0
195.516464071 377.713290315 m 0
 194.949301159 348.150512011 198.550242125 330.59351828 198.692574242 304.786479478 c 0
 198.692574242 243.17803232 179.226309021 195.903498385 157.175610057 195.903498385 c 0
 149.781163004 195.903498385 142.096091541 201.219608187 134.757 213.094 c 1
 127.671743906 211.831963389 121.655417876 416.243944024 122.541560589 504.468877013 c 0
 122.541560589 623.27456499 127.528300705 656.819698514 143.463 672.763 c 0
 153.553630021 682.861910361 160.293460421 687.819053389 167.774580823 687.819053389 c 0
 189.465128493 680.771748038 219.865251766 665.590262456 215.525311006 629.246160117 c 0
 212.967667296 571.404992119 192.222873449 446.247641177 195.516464071 377.713290315 c 0
EndSplineSet
EndChar

StartChar: quotedbl
Encoding: 34 34 2
Width: 490
VWidth: -111
Flags: HMW
LayerCount: 2
Fore
SplineSet
216.114301847 536.451748542 m 0
 215.225999722 500.802720523 211.414276042 490.547767857 191.062642602 489.263974795 c 0
 143.507396476 494.451001124 146.505966686 532.943287683 132.674 589.962 c 0
 130.121653488 607.111345995 128.793376587 620.919892219 128.793376587 632.181877294 c 0
 128.131722222 661.659839181 139.653365217 678.128979964 162.227755633 681.723907616 c 0
 193.737645621 687.264192125 218.375718604 604.892746654 216.114301847 536.451748542 c 0
361.20682987 562.813441415 m 0
 362.750700312 505.995773801 349.286603844 466.617334002 314.993600936 458.429989991 c 1
 273.65786304 469.715415391 278.55788417 514.037560714 269.51 589.123 c 0
 268.271704673 611.845693589 267.47359938 629.194592549 267.47359938 642.502887724 c 0
 267.410300553 684.774408079 275.640189537 689.366478519 303.49232661 689.366478519 c 0
 356.575669793 689.366478519 358.433302372 622.798289753 361.20682987 562.813441415 c 0
EndSplineSet
EndChar

StartChar: numbersign
Encoding: 35 35 3
Width: 520
VWidth: -53
Flags: HMW
LayerCount: 2
Fore
SplineSet
374.29296875 721.388671875 m 0
 418.655273438 725.2890625 404.5703125 621.80078125 401.995117188 587.326171875 c 0
 401.6328125 575.344726562 400.576171875 562.2109375 407.057617188 551.783203125 c 0
 413.088867188 542.581054688 425.251953125 541.561523438 435.461914062 541.013671875 c 0
 458.2265625 541.70703125 479.265625 525.336914062 484.53125 503.528320312 c 0
 490.336914062 477.83984375 472.5234375 449.341796875 447.446289062 440.766601562 c 0
 431.342773438 438.19140625 413.8359375 433.553710938 402.770507812 420.282226562 c 0
 390.44140625 404.061523438 388.837890625 383.209960938 387.56640625 363.951171875 c 1
 379.100585938 336.604492188 396.62890625 306.28125 425.837890625 311.6953125 c 0
 461.606445312 314.2265625 492.706054688 271.962890625 473.697265625 235.553710938 c 0
 458.56640625 204.680664062 410.7421875 222.393554688 397.975585938 187.413085938 c 0
 388.126953125 155.248046875 390.75390625 121.638671875 391.284179688 88.87109375 c 0
 389.807617188 45.0380859375 400.376953125 -17.98828125 356.732421875 -25.345703125 c 0
 338.793945312 -29.3076171875 320.890625 -16.81640625 315.9921875 0 c 0
 297.881835938 59.3203125 320.145507812 128.885742188 293.399414062 179.747070312 c 0
 285.366210938 194.771484375 265.807617188 201.793945312 249.392578125 195.803710938 c 0
 237.063476562 191.873046875 229.983398438 179.60546875 226.331054688 168.013671875 c 0
 210.3203125 112.208007812 216.540039062 49.2431640625 194.110351562 0.916015625 c 0
 185.961914062 -14.7861328125 164.48828125 -20.4423828125 149.74609375 -12.494140625 c 0
 93.0068359375 19.4873046875 142.861328125 110.145507812 128.241210938 174.669921875 c 0
 126.981445312 186.504882812 115.971679688 195.079101562 104.364257812 195.4609375 c 0
 64.9150390625 189.919921875 21.927734375 221.671875 37.716796875 261.822265625 c 0
 42.2490234375 274.879882812 55.3115234375 282.653320312 67.97265625 286.0390625 c 0
 102.301757812 293.41796875 136.041992188 311.82421875 137.967773438 351.622070312 c 0
 137.08984375 376.412109375 146.864257812 416.190429688 115.810546875 413.607421875 c 1
 73.9462890625 398.271484375 11.7353515625 449.083984375 49.837890625 495.115234375 c 0
 68.95703125 518.213867188 110.193359375 507.776367188 121.616210938 539.01953125 c 0
 133.245117188 566.697265625 131.178710938 596.854492188 131.290039062 625.778320312 c 0
 131.212890625 648.041992188 133.576171875 672.026367188 147.350585938 690.958007812 c 0
 158.076171875 709.712890625 186.43359375 714.700195312 201.748046875 700.576171875 c 0
 228.240234375 666.907226562 217.536132812 612.499023438 224.291992188 565.748046875 c 0
 229.831054688 527.422851562 287.537109375 518.096679688 306.986328125 549.826171875 c 1
 317.53515625 584.333984375 318.185546875 619.9453125 318.185546875 655.436523438 c 0
 318.185546875 686.456054688 342.901367188 717.435546875 374.29296875 721.388671875 c 0
303.872070312 368.46875 m 1
 307.612304688 397.4296875 273.298828125 432.495117188 246.962890625 407.458007812 c 0
 231.170898438 389.034179688 228.229492188 362.802734375 234.106445312 340.619140625 c 1
 235.053710938 316.693359375 265.276367188 300.84375 286.056640625 314.078125 c 0
 301.545898438 327.444335938 306.346679688 349.37109375 303.872070312 368.46875 c 1
EndSplineSet
EndChar

StartChar: dollar
Encoding: 36 36 4
Width: 534
VWidth: -55
Flags: HMW
LayerCount: 2
Fore
SplineSet
243.84794513 101.903830249 m 0
 243.706515591 116.740605382 244.277871449 130.807343585 244.34467824 145.554862511 c 0
 244.34467824 172.227965148 241.860207258 198.443654572 226.397 212.203 c 0
 193.596 242.585 146.907 248.85 110.408 275.078 c 0
 76.417518566 299.504169962 50.2932114734 347.894897238 50.2932114734 399.676753725 c 0
 51.0113984571 468.507945115 93.9991861288 511.870089507 135.563 543.754 c 0
 162.882 565.514 199.711 579.334 215.049 613.008 c 0
 224.112 634.406 226.091 657.832 227.695 680.688 c 0
 230.487204084 720.458938566 257.942671149 758.863517248 296.484894585 758.863517248 c 0
 348.685622885 757.586402906 331.220222558 679.865404498 328.673967638 635.225358736 c 0
 328.673967638 619.628913168 332.234267788 606.196462815 345.576 599.811 c 0
 373.496 586.447 405.964 590.924 425.793 568.755 c 0
 449.417559574 541.38835461 468.204001661 510.573329451 468.204001661 469.24599574 c 0
 468.204001661 446.765250874 443.402598227 433.761854216 421.490455861 433.761854216 c 0
 391.233644946 433.142035636 370.910278525 467.577362393 344.335522145 467.832089604 c 0
 336.421098371 467.832089604 328.576965079 464.261482298 320.876 454.796 c 1
 317.287493815 435.779035278 317.095545932 414.233086759 317.095545932 392.704920741 c 0
 317.095545932 390.125957716 317.098300538 387.547249884 317.098300538 384.973175523 c 0
 317.175929409 367.09834711 316.85992199 361.064990121 315.920030418 342.105418962 c 0
 315.920030418 330.997880913 317.350367029 317.068454011 324.041 312.671 c 0
 374.093 279.191 449.271 270.874 471.736 210.212 c 0
 480.129659482 187.546217648 483.707027119 164.380297518 483.707027119 141.628724301 c 0
 483.707027119 98.5189497674 470.863266227 56.8967977594 453.604 22.9834 c 0
 428.125795641 -31.2836500917 326.069777896 3.22173750391 326.602263719 -78.8789178439 c 0
 326.602263719 -93.7875530276 328.672850492 -110.122715947 328.672850492 -125.303068369 c 0
 330.97138094 -152.364155391 316.300614403 -179.100483631 287.759246924 -179.032146933 c 0
 257.740270623 -176.995143332 236.405507848 -157.168949792 239.41412935 -123.317596957 c 0
 239.41412935 -112.471443189 240.428 -101.577771922 240.428 -90.7656 c 0
 240.428 -69.2539 229.026 -50.8545 210.458 -48.3408 c 1
 181.736 -36.9697 149.524 -31.0127 125.37 -11.3711 c 0
 97.7511338651 11.0880270191 50.4110235993 38.7747218221 50.4110235993 85.0323312221 c 0
 50.6388525234 116.030488954 70.27387952 140.384029886 98.9904797954 143.037460777 c 0
 103.295369888 143.037460777 107.887931296 142.30307457 112.779 140.654 c 1
 147.527070908 115.155697297 171.008409716 75.822504667 220.981824335 65.9655148182 c 0
 232.439169132 65.9655148182 243.86 73.8658482622 243.86 85.1494 c 0
 243.86 90.7386296296 243.84794513 96.3222491084 243.84794513 101.903830249 c 0
191.41852332 346.901085349 m 0
 218.538596297 347.314763811 238.760151358 372.941307238 237.823558399 403.689776464 c 0
 237.823558399 429.52386773 224.208032018 452.624 199.086 452.624 c 0
 170.187084934 452.624 150.402418468 424.389792076 150.402418468 396.109313742 c 0
 148.695708548 374.307922453 167.769027674 346.196950721 191.41852332 346.901085349 c 0
357.537332616 171.864686023 m 0
 337.280024276 171.104515447 329.268161339 149.679045355 328.884222291 128.351748312 c 0
 329.57910792 106.632619294 336.815940008 85.3773482147 357.611632802 85.0071178927 c 0
 377.017197845 85.0071178927 392.250178385 107.131289 392.250178385 129.204106999 c 0
 391.966357574 150.892686159 376.026224979 170.584555667 357.537332616 171.864686023 c 0
EndSplineSet
EndChar

StartChar: percent
Encoding: 37 37 5
Width: 725
VWidth: -54
Flags: HMW
LayerCount: 2
Fore
SplineSet
38.6298424821 544.823358732 m 0
 38.8870253861 625.918441102 107.061673826 698.827292915 190.135066281 698.827292915 c 0
 254.646490983 698.827292915 299.808298324 637.498410779 298.765211339 565.514661739 c 0
 298.765211339 517.131329422 277.865747991 470.47979799 246.971 437.567 c 0
 226.148197635 416.102841948 205.992633473 393.90877061 170.419642093 392.588487686 c 0
 152.514741976 392.588487686 135.184510245 400.427747565 120.821 410.839 c 0
 79.5381289532 437.679394985 38.3990725703 480.552802298 38.6298424821 544.823358732 c 0
212.771632501 561.289959965 m 0
 212.865401355 585.075023748 201.619147912 605.616813286 173.187795666 605.258529536 c 0
 143.332852834 605.785087837 109.335904248 582.864055539 109.619917752 549.266192405 c 0
 108.956339019 518.916880641 134.741421922 491.076809759 164.583671458 491.438513251 c 0
 198.314527723 492.409068555 211.070586406 530.261540587 212.771632501 561.289959965 c 0
200.616215094 -47.8844910103 m 0
 173.154708472 -48.4569845281 158.225718766 -18.982610656 158.422567268 5.82520904907 c 0
 158.422567268 8.9774952419 158.64530902 12.1227575233 159.096 15.2236 c 0
 253.608 217.267 368.778 412.298 452.221 621.38 c 0
 466.312967198 655.236737322 491.142157497 689.453753298 530.916139288 692.840542862 c 0
 550.67585929 692.840542862 567.783 672.722532319 567.783 653.255 c 0
 567.783 623.52 553.646 596.103 540.377 570.224 c 0
 430.964 370.997 350.207 151.46 225.283 -35.8389 c 0
 219.76440673 -44.1133126231 210.312301607 -47.8844910103 200.616215094 -47.8844910103 c 0
435.216624747 94.1602134566 m 0
 436.529187773 168.199441558 482.212106064 260.499470091 567.619368171 259.428825567 c 0
 594.748230381 259.428825567 622.664358725 251.686058343 645.502 239.161 c 1
 673.375512699 211.192662347 686.537869725 162.637540388 686.537869725 111.590005499 c 0
 686.537869725 81.3490458923 681.918579454 50.2333813387 673.002 22.0049 c 0
 666.909 3.84277 660.4 -17.6182 641.971 -26.7451 c 0
 620.47688507 -36.1885220802 597.056509767 -40.472798997 574.127620382 -40.472798997 c 0
 520.115957378 -40.472798997 468.831514159 -16.6996564645 451.877 19.4111 c 0
 440.428328844 43.7950430683 435.216624747 69.1735248201 435.216624747 94.1602134566 c 0
573.887063863 168.382392829 m 0
 539.885811983 167.22563737 514.683418928 129.883947786 514.407 98.1875 c 0
 515.518904971 72.7239967436 537.047230838 46.944565982 567.232696092 44.8587784974 c 0
 594.747125392 44.8587784974 618.551365849 72.7088916298 618.551365849 104.582630683 c 0
 616.61770543 133.277458883 599.947381546 165.801899671 573.887063863 168.382392829 c 0
EndSplineSet
EndChar

StartChar: ampersand
Encoding: 38 38 6
Width: 665
VWidth: -53
Flags: HMW
LayerCount: 2
Fore
SplineSet
204.876 -27.4619 m 0
 107.589132471 -30.9759212768 44.6650620284 69.9243118076 44.471514047 166.210335239 c 0
 44.2820254734 243.608077069 89.9114133901 300.171337995 129.981 342.987 c 0
 137.058067475 350.20839678 139.623515654 358.146204982 139.623515654 366.399186279 c 0
 139.623515654 383.248929524 128.929813109 401.412426586 124.105 417.475 c 0
 114.525020938 449.369145175 106.786257547 491.763775118 106.786257547 532.514343641 c 0
 106.786257547 579.61589737 117.125166029 624.521001911 146.91 648.476 c 0
 181.665278095 676.489611905 218.272535935 698.237631745 277.883992425 697.39553424 c 0
 383.815545092 700.60466774 436.716532503 622.251946206 446.979606623 525.033533261 c 0
 446.979606623 509.816877519 443.495439085 494.684343161 434.387 480.236 c 0
 401.917 430.591 359.475 387.681 310.857 353.529 c 0
 304.699647702 349.204273757 302.283766948 344.171809432 302.283766948 338.961527535 c 0
 302.283766948 325.731665425 317.860044871 311.355332859 327.311 304.508 c 0
 355.604 284.01 376.236 242.474 412.133 229.813 c 1
 451.741220362 240.80996644 443.680323376 309.782085473 495.327741956 310.336706291 c 0
 521.857683026 310.336706291 540.277722321 288.384060869 540.277722321 262.592025308 c 0
 538.99175098 231.300421801 514.974800256 204.59059375 514.927405722 173.577533102 c 0
 514.927405722 162.147658102 518.735614799 151.461340211 529.312 142.487 c 0
 558.505 117.717 582.887 87.9609 602.316 53.6104 c 1
 614.174032819 44.3571754171 620.262886047 29.4450578061 620.262886047 14.7416891574 c 0
 620.802868495 -6.40181603466 606.202180188 -28.4800716525 581.01907438 -29.4971346761 c 0
 561.946148989 -29.4971346761 547.059423097 -13.0682098411 531.03 -8.69922 c 1
 509.691 3.7207 492.199 21.9873 478.255 41.8145 c 0
 471.913267134 50.8305378155 464.085731647 54.3450845146 456.033825453 54.3450845146 c 0
 442.687987853 54.3450845146 428.725753394 44.6898333284 419.891 34.4268 c 0
 375.902 -16.6699 291.733 -27.4619 204.876 -27.4619 c 0
234.039733819 72.6791738704 m 0
 281.205640472 75.7218193428 352.504178987 80.2525570172 354.730443952 131.274425565 c 0
 354.730443952 140.870367857 350.255076897 149.899016122 339.118 155.926 c 1
 302.562 193.713 263.303 228.886 228.532 268.386 c 1
 222.205982371 272.358418475 216.320983692 274.0868408 210.839242003 274.0868408 c 0
 182.055427647 274.0868408 164.389991904 226.431736596 152.376 205.763 c 0
 144.441877362 192.268429815 141.001155965 177.386214577 141.001155965 162.836069002 c 0
 143.947379939 109.993646848 175.680837024 69.4394373238 234.039733819 72.6791738704 c 0
270.935297952 595.071462107 m 0
 229.368086769 595.516932077 196.530075657 568.721320399 200.837192564 519.510534464 c 0
 200.837192564 491.494302811 208.141543658 463.595184946 221.628 439.131 c 1
 223.805558451 430.972063471 230.233610499 424.955469199 237.625861093 424.955469199 c 0
 241.470208742 424.955469199 245.575326866 426.58267571 249.479 430.382 c 0
 280.899 460.966 320.078 484.243 341.183 525.036 c 1
 341.54423803 528.108226025 341.71868059 531.078226575 341.71868059 533.946227838 c 0
 341.71868059 574.916172523 306.120768153 595.071462107 270.935297952 595.071462107 c 0
EndSplineSet
EndChar

StartChar: quotesingle
Encoding: 39 39 7
Width: 352
VWidth: -101
Flags: HMW
LayerCount: 2
Fore
SplineSet
128.180092739 415.682426819 m 0
 102.652875852 415.674031739 90.1135633238 431.786528457 91.0397258678 458.188629549 c 0
 90.2786184967 474.674335535 104.233602534 498.783520482 90.7695 507.814 c 0
 84.2041462436 511.871349439 77.745425313 536.892803393 77.745425313 560.906401846 c 0
 77.745425313 608.22544909 112.943975711 646.125453583 154.922624526 646.125453583 c 0
 186.994752921 643.873942194 198.293472209 639.333917428 197.306679143 598.897606772 c 0
 197.471453576 558.417972645 190.148399351 506.820822952 181.783 472.2 c 0
 170.427737669 432.503521792 159.501604951 417.071578601 128.180092739 415.682426819 c 0
EndSplineSet
EndChar

StartChar: parenleft
Encoding: 40 40 8
Width: 352
VWidth: -49
Flags: HMW
LayerCount: 2
Fore
SplineSet
315.525652645 -6.23085123037 m 0
 316.646367156 -27.099421429 296.249021068 -47.0565601345 280.1730173 -46.5012744091 c 0
 264.70874224 -46.5012744091 245.202142661 -34.0259555953 215.202 -7.50391 c 0
 123.91828785 73.1243309817 82.9671499653 161.415541608 74.5483537604 306.55055784 c 0
 74.5483537604 327.662409375 76.7948149943 347.088993215 81.252 366.224 c 0
 104.684 466.817 206.426 648.844 248.174 664.864 c 0
 250.527084662 665.76683667 253.045139437 666.190726548 255.671225566 666.190726548 c 0
 279.171133655 666.190726548 311.322 632.246380802 311.322 603.811 c 0
 311.322 595.135 284.56 555.649 251.852 516.068 c 0
 219.139 476.483 188.667 425.539 184.132 402.856 c 0
 179.592 380.18 170.592 361.619 164.129 361.619 c 0
 158.77149753 361.619 156.458777519 350.787498756 156.458777519 333.853694289 c 0
 156.458777519 284.474656214 176.124016456 183.207257075 197.303 147.312 c 0
 212.505 121.543 241.439 89.6514 261.602 76.4424 c 0
 294.588573597 54.8289416306 315.525652645 20.4500363815 315.525652645 -6.23085123037 c 0
EndSplineSet
EndChar

StartChar: parenright
Encoding: 41 41 9
Width: 352
VWidth: -49
Flags: HMW
LayerCount: 2
Fore
SplineSet
79.3677404882 -44.9603977704 m 1
 57.7594989735 -45.3573077245 43.4669235649 -28.3748275643 44.3169034044 -6.03996100958 c 0
 44.3169034044 18.6962851562 58.1818770686 50.2266555697 81.833 72.4453 c 0
 128.087128188 115.90225989 157.145238724 214.738442029 157.145238724 324.122708329 c 0
 154.405961736 428.36900329 150.50793709 458.303577147 95.4502 535.015 c 0
 63.0483317411 582.059004635 49.7206860647 606.837649637 49.7206860647 624.227829625 c 0
 51.9430648424 648.840430716 76.4380451405 666.260700159 94.9818932329 669.684694114 c 0
 129.873075026 669.684694114 203.978970065 557.407744359 235.639 454.899 c 0
 253.907871426 395.753685891 264.165206789 315.008972424 264.165206789 256.447435504 c 0
 264.165206789 217.179199388 259.553173745 187.885244081 249.652 181.766 c 1
 250.688 159.831 196.3 52.1504 176.55 35.2109 c 1
 174.582940549 10.7728840331 110.130787752 -51.0928735092 79.3677404882 -44.9603977704 c 1
EndSplineSet
EndChar

StartChar: asterisk
Encoding: 42 42 10
Width: 450
VWidth: -63
Flags: HMW
LayerCount: 2
Fore
SplineSet
125.483529783 624.47057114 m 0
 168.889974914 617.315281685 184.043172567 564.700726388 221.408 557.107 c 1
 246.131 579.978 256.077 629.615 298.245 629.615 c 0
 316.452094552 629.615 336.305926387 611.073246459 336.305926387 591.146924934 c 0
 336.305926387 575.622604905 321.219053882 564.444232017 313.568 552.184 c 1
 314.834116052 545.658560937 319.87258403 544.152420937 325.940264826 544.152420937 c 0
 331.142862599 544.152420937 337.102119431 545.259708425 342.088854516 545.259708425 c 0
 364.122373196 543.455520302 376.291316256 531.156195589 375.41356904 517.903197292 c 0
 375.41356904 495.268081934 348.763007223 466.867430684 324.179 463.766 c 1
 315.215 457.658 298.609 457.308 297.077 444.329 c 1
 307.214069616 414.027168686 325.791793355 388.525821333 329.454665066 354.871534382 c 0
 329.352272978 339.176976291 317.337532814 327.657280992 299.769993877 326.485753173 c 0
 264.270863543 330.085797356 253.973841074 380.56860601 224.782614917 390.059280231 c 0
 221.960808113 390.059280231 219.309224563 388.57125387 217.046 384.773 c 0
 206.213608694 365.832868272 197.733565618 311.020137158 158.263453676 306.058046129 c 0
 151.418421281 306.058046129 143.716376602 308.957731367 134.51 316.42 c 1
 129.891461896 323.732716488 128.0668298 331.797482525 128.0668298 340.026963901 c 0
 127.435277017 356.697878851 136.546476865 372.388482535 140.924371175 387.216730795 c 0
 140.924371175 391.969232881 136.75968104 393.259646154 131.506126619 393.259646154 c 0
 125.876711381 393.259646154 119.089706777 391.50086446 114.669510043 391.494859404 c 0
 95.5311615975 391.494859404 72.8588217879 405.904563579 72.8588217879 425.787356323 c 0
 74.9163500464 455.702548738 104.96056746 463.760888104 126.599 474.509 c 0
 135.100774218 479.464000346 154.598140868 482.549261556 154.598140868 493.278416193 c 0
 142.531016812 528.761390577 98.1665979405 554.761906076 98.4874290336 596.263271471 c 0
 98.4874290336 611.237871582 111.154295826 624.47057114 125.483529783 624.47057114 c 0
EndSplineSet
EndChar

StartChar: plus
Encoding: 43 43 11
Width: 563
VWidth: -51
Flags: HMW
LayerCount: 2
Fore
SplineSet
232.147049471 486.460658059 m 0
 234.379391105 523.550059839 230.334071754 576.997295926 268.469763089 579.7594466 c 0
 300.412948664 580.104703322 324.977491128 551.274775199 322.44945082 514.40659188 c 0
 322.44945082 500.430419436 320.645548688 486.16981505 320.645548688 472.253631856 c 0
 320.661329479 465.795732789 321.202194206 459.616714353 321.105207903 453.046839769 c 0
 321.105207903 444.25647323 320.775317435 435.21075989 320.775317435 426.443692054 c 0
 320.775317435 400.254540384 323.719087566 376.55187556 347.194 369.57 c 1
 352.693717862 369.790166733 358.200768953 369.898141932 363.709950136 369.898141932 c 0
 421.799819783 365.319482476 501.406383646 372.960442977 506.884710229 313.729099233 c 0
 506.884710229 300.805274045 497.098715885 290.038935166 485.705 284.967 c 0
 445.757 268.121 401.282 269.45 358.655 266.336 c 1
 334.241203891 271.184339261 314.585311716 249.724270739 317.639461426 225.75817829 c 0
 317.639461426 211.353110162 320.641 195.278885039 320.641 179.554 c 0
 320.641 161.183172539 322.336693408 142.535109968 322.336693408 124.015060782 c 0
 322.906410718 94.3508722717 317.984212703 52.0190539953 285.04287726 55.6544928005 c 0
 268.576520052 55.6544928005 250.460162096 63.905851307 242.529 76.3604 c 1
 230.003408351 112.179319725 235.585475617 147.892273127 232.425960287 187.609371747 c 0
 232.425960287 196.140834295 232.705783795 204.665777771 232.705783795 212.869857325 c 0
 236.022731343 248.562545088 220.536017734 278.665178784 177.252838764 272.271294834 c 0
 156.063216582 272.271294834 135.434498521 270.222696786 115.17157195 270.222696786 c 0
 81.3804826228 269.21486917 31.8722705558 278.184991457 34.5792220586 315.232352218 c 0
 36.7422526948 361.418054608 105.717919463 360.083759394 144.965 361.934 c 0
 181.827 363.52 234.526 361.566 234.526 397.299 c 0
 234.526 427.108842576 232.147049471 457.322606038 232.147049471 486.460658059 c 0
EndSplineSet
EndChar

StartChar: comma
Encoding: 44 44 12
Width: 320
VWidth: 17
Flags: HMW
LayerCount: 2
Fore
SplineSet
215.027858249 25.8542271815 m 0
 214.541325367 -55.3943857426 153.881885503 -155.915738117 61.3201217538 -158.297620396 c 0
 47.883524824 -158.297620396 39.9766 -153.432289579 39.9766 -143.653 c 0
 39.9766 -135.23 76.1514 -87.71 96.2852 -49.8896 c 0
 111.528633877 -21.2535118791 113.379324967 5.95373722878 113.379324967 24.9449548641 c 0
 113.379324967 31.0351852982 113.189 36.2804795207 113.189 40.457 c 0
 113.887656931 67.0636238946 130.993306264 98.2164892738 158.063256985 99.1844790581 c 0
 193.604921709 96.4890065171 217.426929082 66.3993392878 215.027858249 25.8542271815 c 0
EndSplineSet
EndChar

StartChar: hyphen
Encoding: 45 45 13
Width: 544
VWidth: -53
Flags: HMW
LayerCount: 2
Fore
SplineSet
258.948854869 273.388976489 m 0
 222.606117521 273.265912861 171.814272101 268.1057657 145.526986417 268.8468311 c 0
 99.9014699994 268.8468311 79.7717995742 275.117216267 59.9775 291.284 c 4
 42.817035388 305.299775535 35.0001912275 312.996379239 35.0001912275 322.084606456 c 0
 35.0001912275 329.151324951 39.7263540961 337.059436626 48.4609 349.434 c 4
 67.6289 376.587 98.3721 381.599 244.45 390.593 c 4
 285.866921833 393.143898189 321.438233174 394.536482467 351.770198048 394.536482467 c 0
 463.294283119 394.536482467 503.989 375.710496223 503.989 326.414 c 4
 505.383033018 297.934939196 465.822903579 267.913439557 403.170247884 266.304768381 c 0
 374.709979591 266.304768381 314.569603637 273.388976489 258.948854869 273.388976489 c 0
EndSplineSet
EndChar

StartChar: period
Encoding: 46 46 14
Width: 320
VWidth: 4
Flags: HMW
LayerCount: 2
Fore
SplineSet
153.914684913 -9.1464393661 m 0
 119.332949613 -7.25732328275 77.7261185877 8.78147918194 77.7261185877 46.9008145628 c 0
 77.7261185877 96.7117565692 101.64791669 127.419168397 139.448055908 127.419168397 c 0
 183.991632022 127.419168397 200.327658402 116.582473295 197.347 57.0068 c 0
 197.347 24.9482 193.61 18.6914 189.314 14.9111 c 0
 184.856547584 10.9691154048 172.496489792 -12.4696558195 153.914684913 -9.1464393661 c 0
EndSplineSet
EndChar

StartChar: slash
Encoding: 47 47 15
Width: 496
VWidth: -51
Flags: HMW
LayerCount: 2
Fore
SplineSet
77.498433466 -42.5354429252 m 0
 59.618660962 -41.6780812423 43.7494634514 -39.7008574032 41.6473024156 -29.5898332703 c 0
 41.6473024156 -3.00742461188 115.891619435 175.474449727 151.933 233.546 c 0
 173.590052451 269.797295845 221.284264043 386.675458142 244.818 423.896 c 0
 256.67 444.029 289.677 504.72 318.173 558.768 c 0
 360.823253054 639.666716776 393.37424993 678.641383084 419.309443509 678.641383084 c 0
 443.981897991 676.339858764 456.43826335 651.1901501 455.212706434 619.327789026 c 0
 455.212706434 575.634043905 437.585767169 516.186061753 409.932 482.147 c 0
 363.499 424.986 331.176 367.839 223.765 153.016 c 0
 140.685 -13.1426 123.647 -37.9072 89.7061 -41.834 c 0
 85.5979670865 -42.3095113379 81.4894357132 -42.5354429252 77.498433466 -42.5354429252 c 0
EndSplineSet
EndChar

StartChar: zero
Encoding: 48 48 16
Width: 549
VWidth: -47
Flags: HMW
LayerCount: 2
Fore
SplineSet
58.5869 158.102 m 0
 47.1278867225 192.827526314 40.9995762093 240.143698741 40.9995762093 291.290015433 c 0
 40.9995762093 368.506120257 54.9673700078 454.451982689 85.6475 518.983 c 0
 121.668 594.754 140.789 615.205 197.493 643.733 c 0
 227.861515156 659.011718182 256.988197269 666.440940517 284.870807938 666.440940517 c 0
 330.487304412 666.440940517 372.773969015 646.556181148 411.721 608.627 c 0
 468.839 553 468.825 516.202 489.617 449.593 c 0
 502.024879073 409.844012212 507.700037688 367.625383581 507.700037688 325.284212989 c 0
 507.700037688 143.22318222 402.773274139 -41.1035 276.995 -41.1035 c 0
 233.768 -41.1035 211.992 -29.1973 144.354 32.6201 c 0
 94.0439 78.6006 69.4893 125.071 58.5869 158.102 c 0
133.937704139 301.699819205 m 0
 136.599518864 222.123791639 148.484367293 150.671428705 195.157 111.218 c 0
 232.022218155 81.3157770878 240.038860264 55.837687936 283.683203805 54.2614917069 c 1
 358.351259505 73.7077694731 375.492284659 115.586353036 404.005 217.214 c 0
 412.878960786 248.651995867 417.073946725 283.067400562 417.073946725 317.705922223 c 0
 417.073946725 443.382298687 361.851058942 571.995791813 274.521583034 571.995791813 c 0
 215.599298313 571.748436803 185.617982174 503.188628888 160.505 439.399 c 16
 141.513523593 389.747177471 133.937704139 345.473937816 133.937704139 301.699819205 c 0
EndSplineSet
EndChar

StartChar: one
Encoding: 49 49 17
Width: 371
VWidth: -47
Flags: HMW
LayerCount: 2
Fore
SplineSet
227.686370041 11.7936943471 m 0
 224.496073241 -27.6369363993 212.508841924 -52.7299196595 183.112 -49.1279 c 0
 164.464 -49.1279 143.873 -40.8916 137.357 -30.8252 c 0
 132.221613617 -22.8928916542 128.999969474 71.8684231695 128.999969474 196.41102866 c 0
 128.999969474 229.917710875 129.233156577 265.580004503 129.725 302.287 c 0
 132.947 542.592 138.625 621.783 153.719 636.902 c 0
 162.197661957 645.395456576 174.153317255 649.164661224 186.351471696 649.164661224 c 0
 210.43128941 649.164661224 235.456099578 634.476485736 236.544 612.447 c 0
 236.95342251 596.005560544 241.236907596 564.026060797 242.368714097 541.255829384 c 0
 245.620147299 496.199685069 215.523062804 308.526674914 216.581190208 235.021260043 c 0
 216.581190208 193.913734872 220.24294571 166.111514763 220.24294571 135.691266662 c 0
 220.454459678 125.122840767 219.283033511 113.597742412 219.115617751 102.557686148 c 0
 219.115617751 72.5267879825 227.686370041 36.7601355183 227.686370041 11.7936943471 c 0
EndSplineSet
EndChar

StartChar: two
Encoding: 50 50 18
Width: 518
VWidth: -49
Flags: HMW
LayerCount: 2
Fore
SplineSet
239.196286602 -31.9031400056 m 0
 166.757861135 -35.1561360868 63.9177833802 -58.6547409192 45.0001518364 8.48716038187 c 0
 45.0001518364 14.4419042242 47.2892447983 20.8018593406 52.7383 27.459 c 0
 132.063 124.37 222.927 206.891 293.637 309.971 c 0
 319.355995976 347.464817563 340.81915133 394.587872521 340.81915133 442.304720417 c 0
 343.124595597 510.350564368 291.781189901 562.521200223 234.830479951 559.623983949 c 0
 172.280002238 558.175197083 143.599719618 515.01566164 118.774 475.652 c 0
 112.232452447 464.878440609 101.24515767 459.969813231 89.9566148993 459.969813231 c 0
 68.0331396904 459.712185181 47.8087489481 477.870157995 49.2453037844 505.6332943 c 0
 49.2453037844 547.473472856 87.3277379108 586.098560603 114.16 613.479 c 0
 143.483529855 643.400345796 184.811124868 656.554301348 228.015658864 656.554301348 c 0
 276.739364849 656.554301348 327.850179183 639.82497908 366.823 611.549 c 0
 414.992362838 576.601581981 438.28009743 516.441786316 438.28009743 457.313200841 c 0
 438.28009743 441.240572961 436.559393925 425.244139998 433.15 409.851 c 0
 412.407 316.192 371.030071235 238.188106784 309.524 166.5 c 0
 291.308213457 145.268677228 250.005361224 107.244974479 250.005361224 76.3167173308 c 0
 250.005361224 59.6724206085 295.34579342 66.4697635268 307.489 63.6992 c 1
 308.099 63.7109 l 2
 318.702299601 64.2329992753 331.585191475 64.6555610328 345.438975661 64.6555610328 c 0
 401.401467589 59.3111076459 473.483328592 70.7397707455 472.776121892 8.66832031202 c 0
 472.776121892 -0.990144701528 470.713317413 -11.1902754561 465.728 -20.3955 c 1
 444.202093765 -33.2282517942 411.944772156 -36.6954685889 375.399619587 -36.6954685889 c 0
 332.434841373 -36.6954685889 283.543495514 -31.9031400056 239.196286602 -31.9031400056 c 0
EndSplineSet
EndChar

StartChar: three
Encoding: 51 51 19
Width: 490
VWidth: -48
Flags: HMW
LayerCount: 2
Fore
SplineSet
197.783940963 267.00932374 m 0
 169.780788955 266.210890736 140.914606551 275.443501099 136.70244519 309.830289272 c 0
 136.70244519 338.53646563 190.811762402 343.325172247 216.479 354.376 c 1
 216.926 354.369 l 2
 217.459329572 354.361020272 217.99072065 354.357051832 218.520175395 354.357051832 c 0
 297.477991326 354.357051832 333.372 442.614712715 333.372 477.021 c 0
 333.372 525.75820903 283.313650731 560.741920006 234.263567503 560.741920006 c 0
 206.466468064 560.741920006 178.993181867 549.506602744 161.138 523.172 c 0
 137.625 488.493 119.933 476.691 95.04 476.386 c 0
 60.9119101234 477.075173777 48.0000080481 486.653063861 48.0000080481 503.242956801 c 0
 59.4016816945 575.628279426 149.974166839 659.349502075 211.605 657.54 c 0
 332.012 657.54 380.17 588.544 398.714 555.793 c 0
 408.4948283 538.143645235 413.431479746 510.412741114 413.431479746 480.960994364 c 0
 413.431479746 437.226229418 402.545589698 389.696806523 380.471 365.75 c 0
 367.105066356 351.250733303 358.983637977 346.320738349 358.983637977 339.144256777 c 0
 358.983637977 330.990503492 369.467575008 319.936764743 394.655 288.653 c 0
 427.085996248 248.373358502 442.066635193 212.108942718 442.066635193 167.559523934 c 0
 442.066635193 144.279968735 437.975954243 118.738073188 430.147 89.1787 c 0
 404.746 -6.73535 348.287 -33.9707 249.186 -33.9707 c 0
 196.187 -33.9707 162.153 -33.668 114.674 -0.416992 c 0
 71.1937574371 34.1705322016 55.0949256802 42.1992723638 49.353910347 87.169277535 c 0
 49.353910347 116.668624304 74.9021226907 128.91526207 87.4844 133.525 c 1
 135.234670832 129.005383244 175.328964957 54.6224629584 247.559624253 57.5489950916 c 0
 268.975205 57.5489950916 295.23140794 61.0449420492 316.223 68.0996 c 0
 351.463345998 80.2038763438 357.51424028 125.461611055 357.51424028 156.56162918 c 0
 363.332829749 226.019123807 309.301582381 265.646215337 241.73311712 269.124799733 c 0
 227.018912237 268.899959188 213.064926263 266.979459848 197.783940963 267.00932374 c 0
EndSplineSet
EndChar

StartChar: four
Encoding: 52 52 20
Width: 553
VWidth: -49
Flags: HMW
LayerCount: 2
Fore
SplineSet
101.329422641 184.036360814 m 0
 63.7262342024 179.907933494 42.3069974018 204.641758371 40.0001030529 235.496226885 c 0
 40.0001030529 247.864210851 45.2577704134 259.682735874 55.9756 267.486 c 1
 103.908 326.445 137.22 405.094 171.909 474.599 c 0
 197.995 526.867 236.357 556.893 252.879 614.875 c 0
 260.084386778 640.167574747 283.549797396 660.064596434 312.917295669 660.064596434 c 0
 314.024328653 660.064596434 315.139748371 660.036323213 316.263 659.979 c 0
 317.284896067 659.991982489 318.290047923 660.000427999 319.277589925 660.000427999 c 0
 330.765073634 660.000427999 339.869720049 658.857642988 345.229 650.42 c 1
 354.548 619.046 346.637 588.852 358.744 558.643 c 0
 372.2227227 525.011631551 374.680715853 495.534532756 374.680715853 455.363369997 c 0
 374.932152959 420.385038564 372.881253724 387.197904783 372.479791622 350.340104193 c 0
 372.479791622 328.846946171 373.724658549 308.234811953 378.244 292.439 c 1
 425.223081088 279.635978618 503.542186777 306.649094714 513.488357039 244.51514118 c 0
 513.488357039 225.593110506 498.677308361 206.438876117 481.401 195.606 c 0
 450.304 176.104 410.191 188.793 374.456 179.409 c 1
 374.024926007 142.511639804 369.239450286 106.838719657 369.239450286 72.2007676117 c 0
 367.845479327 47.2760586559 374.857835878 22.2074254281 377.392186356 -1.61573915178 c 0
 377.392186356 -31.6457914133 354.758755605 -46.1915603755 331.684849496 -46.1915603755 c 0
 294.746521161 -49.2005318795 276.51320016 -9.6355151471 279.837029058 30.7833018142 c 0
 279.837029058 57.0480237291 283.715994085 83.7725017989 283.715994085 111.243727054 c 0
 283.715994085 125.874875096 282.61568015 140.717846738 279.243 155.816 c 1
 280.771 174.834 262.658 185.855 241.669 185.855 c 0
 222.217363636 185.855 202.785708907 186.093839302 183.373921835 186.093839302 c 0
 156.005132633 186.430602024 128.323708901 184.857408092 101.329422641 184.036360814 c 0
231.462102909 281.930133782 m 0
 257.489576932 281.087368868 281.133425715 286.907242543 286.638 306.499 c 0
 285.995400529 314.851372788 285.721687429 323.424459844 285.721687429 332.117482588 c 0
 285.721687429 366.798246884 292.681706704 403.050159048 292.681706704 435.381685113 c 0
 292.681706704 445.07639337 284.081806012 453.583178526 275.70809167 453.583178526 c 0
 271.819267044 453.583178526 267.97922523 451.748474989 265.072 447.346 c 0
 236.17 403.577 213.481 350.808 196.439 298.79 c 1
 199.209676637 285.524041571 214.597194608 281.930133782 231.462102909 281.930133782 c 0
EndSplineSet
EndChar

StartChar: five
Encoding: 53 53 21
Width: 480
VWidth: -49
Flags: HMW
LayerCount: 2
Fore
SplineSet
91.5926854246 269.908732029 m 1
 61.8075991712 274.555739036 49.3061274496 303.580895905 49.9997600137 346.755978631 c 0
 51.8335978172 396.434326133 72.9922344511 599.057918394 88.165 621.726 c 0
 97.4717850035 640.870835759 107.036194968 647.847627885 119.259456654 647.847627885 c 0
 142.231142232 643.764954351 160.828111064 636.401812051 193.392131358 637.930881916 c 0
 229.644461731 637.930881916 273.82125165 641.604778014 313.471517508 641.604778014 c 0
 371.266803846 641.604778014 419.444694923 633.798940586 419.444694923 595.431271566 c 0
 417.586455136 546.893938367 368.860166888 533.184666236 304.278960174 530.13934963 c 0
 271.778455311 529.384128145 250.217087722 538.194559374 212.537998792 537.300540416 c 0
 198.705824266 537.300540416 185.715965038 536.523960554 181.063 534.479 c 0
 167.118 528.353 162.618 508.476 154.1 454.191 c 0
 152.708179465 445.319872786 151.993207269 437.716087579 151.993207269 431.215410809 c 0
 151.993207269 402.84231895 165.613465356 395.48350104 196.023849151 395.48350104 c 0
 199.443494459 395.464712281 203.097371259 395.638617424 206.607213677 395.629258566 c 0
 275.819295286 395.629258566 386.382739086 355.57565101 413.162 273.815 c 0
 423.428341774 242.358290044 429.514946748 203.45806145 429.514946748 165.289102129 c 0
 429.514946748 120.757684835 421.230042115 77.2216494026 401.632 47.6631 c 0
 368.174614242 -2.79693775265 290.801154093 -30.7554842378 217.135507392 -30.7554842378 c 0
 154.929598235 -30.7554842378 95.3676263512 -10.819032696 67.126 32.3398 c 0
 61.2027344385 41.3917824877 58.2718384338 48.6681238212 58.2718384338 55.1178208834 c 0
 57.8444459649 70.1010832724 81.6888552565 88.9248583267 98.5122508654 87.8900293338 c 0
 139.30078927 80.356822004 187.849971547 57.8060477533 232.034646656 57.8060477533 c 0
 296.264472769 57.8060477533 341.4636915 103.874322139 341.4636915 159.471851947 c 0
 341.4636915 210.981312493 325.041497842 257.343180536 296.139 273.586 c 0
 271.594182708 287.529895024 244.024343531 295.795344918 211.969410568 295.795344918 c 0
 179.108052146 299.703300554 127.96725342 276.514751583 91.5926854246 269.908732029 c 1
EndSplineSet
EndChar

StartChar: six
Encoding: 54 54 22
Width: 452
VWidth: -49
Flags: HMW
LayerCount: 2
Fore
SplineSet
172.197265625 355.561523438 m 0
 172.254882812 351.9375 173.197265625 350.517578125 177.165039062 350.572265625 c 0
 189.32421875 350.572265625 223.731445312 363.982421875 250.692382812 363.982421875 c 0
 256.611328125 363.982421875 262.170898438 363.336914062 267.057617188 361.759765625 c 0
 323.799804688 343.456054688 383.473632812 336.040039062 407.396484375 236.3203125 c 0
 410.110351562 225.004882812 408.600585938 206.552734375 408.600585938 195.799804688 c 0
 410.971679688 115.504882812 372.348035289 18.1315581724 327.8 -15.5439 c 0
 296.06718762 -37.9640790206 252.312512695 -38.7297142841 224.536722522 -38.7297142841 c 0
 222.500606137 -38.7297142841 220.550355274 -38.7256 218.697 -38.7256 c 0
 181.854 -38.7256 158.184 -26.6768 125.208 8.8623 c 0
 70.4601431846 67.8741956316 53 142.799804688 53 212.841796875 c 0
 53 228.427734375 53.8642578125 244.119140625 55.375 259.83984375 c 0
 67.912109375 390.329101562 202.701171875 656.4609375 266.693359375 656.4609375 c 0
 282.723632812 656.4609375 305.805664062 635.58203125 305.805664062 615.426757812 c 0
 301.817382812 595.59375 287.930664062 570.547851562 275.978515625 547.959960938 c 0
 219.291015625 459.435546875 172.197265625 376.530273438 172.197265625 355.561523438 c 0
143.188476562 191.735351562 m 0
 143.188476562 122.982421875 179.746112616 53.6582074953 227.996522401 53.3320309767 c 0
 261.860038468 55.547801241 298.754533142 70.9378270234 316.803 117.456 c 0
 325.266479483 141.916260596 330.348632812 175.689453125 330.348632812 198.409179688 c 0
 332.424804688 246.20703125 284.260742188 270.999023438 235.291992188 270.999023438 c 0
 184.625 270.999023438 143.188476562 246.638671875 143.188476562 191.735351562 c 0
EndSplineSet
EndChar

StartChar: seven
Encoding: 55 55 23
Width: 490
VWidth: -49
Flags: HMW
LayerCount: 2
Fore
SplineSet
137.089912204 542.280457929 m 0
 67.3574296966 542.662376783 58.2436306866 549.958817159 47.9996188389 588.960113545 c 1
 47.9996188389 618.208676397 97.7880569405 632.541920493 216.868 641.471 c 0
 254.53052243 644.294462811 285.318437277 645.740928794 310.800602772 645.740928794 c 0
 353.368041863 645.740928794 381.12977526 641.704562161 401.399 633.308 c 0
 432.573208293 620.394773308 442.135798042 616.904669833 442.135798042 584.558267598 c 0
 441.194120216 535.943510219 428.861848771 434.164799117 415.278 410.413 c 0
 402.737 378.589 312.396 106.332 297.942 26.9922 c 0
 290.258795421 -15.1925517846 275.018646631 -39.2317210197 251.090619456 -39.2317210197 c 0
 221.556430568 -38.4964784903 187.567554017 -7.4063455835 191.849048102 23.4855438499 c 0
 191.849048102 44.8213623593 200.642061872 67.9939946663 215.191 87.2285 c 0
 227.017 102.859 228.409 137.622 237.515 161.077 c 0
 254.70461389 228.173546412 318.078537148 424.984569397 326.079584246 517.032442064 c 0
 326.079584246 526.666915511 324.566380147 533.315062072 321.017 535.716 c 0
 313.40112019 540.868407313 274.414752762 544.1095217 227.066878586 544.1095217 c 0
 199.837359457 544.278967014 161.289904339 542.069870051 137.089912204 542.280457929 c 0
EndSplineSet
EndChar

StartChar: eight
Encoding: 56 56 24
Width: 461
VWidth: -49
Flags: HMW
LayerCount: 2
Fore
SplineSet
88.736328125 352.256835938 m 2
 63.263671875 380.538085938 51.999775431 418.525299036 51.999775431 459.305967259 c 0
 51.999775431 508.278018629 67.796875 549.365234375 111.022460938 597.208984375 c 0
 155.022460938 645.912109375 184.9921875 652.744140625 234.5859375 652.744140625 c 0
 283.438476562 652.744140625 329.521484375 635.900390625 353.040039062 604.540039062 c 0
 380.5859375 567.8125 404.630859375 538.526367188 404.630859375 483.409179688 c 0
 402.98046875 422.98046875 390.678710938 385.5703125 361.23828125 345.756835938 c 0
 341.338867188 319.666992188 332.48828125 309.751953125 332.48828125 301.073242188 c 0
 332.48828125 292.56640625 341.951171875 285.922851562 355.922851562 265.048828125 c 0
 376.926757812 233.668945312 408.459960938 182.877929688 408.461914062 125.525390625 c 0
 408.461914062 83.1201171875 392.024414062 43.2646484375 371.793945312 14.365234375 c 0
 352.029296875 -13.8701171875 317.681 -37.2256 259.911 -37.2256 c 0
 255.335379532 -37.2256 248.918945312 -37.2412109375 244.635742188 -37.2412109375 c 0
 194.622070312 -37.2412109375 154.821289062 -35.0224609375 109.877929688 12.85546875 c 0
 67.01953125 58.5126953125 57.78125 87.3447265625 57.9013671875 138.866210938 c 0
 57.9013671875 166.077148438 64.8388671875 199.805664062 90.86328125 232.193359375 c 0
 116.008789062 263.486328125 132.663085938 293.405273438 132.663085938 301.079101562 c 1
 135.526367188 305.619140625 88.736328125 352.256835938 88.736328125 352.256835938 c 2
315.758789062 487.225585938 m 0
 316.48828125 511.342773438 280.999837522 566.828810975 235.371152915 562.698124245 c 0
 181.937123217 562.226387046 165.454101562 529.329101562 143.9921875 488.866210938 c 0
 136.98046875 471.934570312 142.088867188 451.908203125 142.088867188 443.051757812 c 0
 142.088867188 430.458984375 142.958007812 423.256835938 160.918945312 408.712890625 c 0
 187.6640625 387.057617188 214.458007812 376.000976562 238.171875 376.000976562 c 0
 260.482421875 376.000976562 280.067382812 385.787109375 294.319335938 405.740234375 c 0
 310.506835938 428.405273438 315.758789062 469.461914062 315.758789062 487.225585938 c 0
149.228515625 153.137695312 m 0
 146.814453125 147.736328125 145 130 149 119 c 0
 156.135742188 99.376953125 157 89 180 68.8974609375 c 0
 198.137695312 53.044921875 218.087890625 47.212890625 240.290039062 47.212890625 c 0
 246.301757812 47.212890625 254.023672573 48.2910155519 259.237 50.6279 c 1
 269.087 50.6279 285.058 58.5361 294.722 68.2002 c 0
 304.383 77.8643 326.918945312 93.505859375 326.918945312 141.940429688 c 0
 326.918945312 205.9765625 268.405273438 241.099609375 237.478515625 241.099609375 c 0
 205.190429688 241.099609375 159 175 149.228515625 153.137695312 c 0
EndSplineSet
EndChar

StartChar: nine
Encoding: 57 57 25
Width: 473
VWidth: -51
Flags: HMW
LayerCount: 2
Fore
SplineSet
50 464.036132812 m 0
 50 582.755859375 130.831054688 657.743164062 237.747070312 655.428710938 c 0
 276.732421875 655.428710938 309.625 631.368164062 346.549804688 631.368164062 c 1
 366.030273438 625.567382812 394.704101562 649.9375 413.580078125 633.196289062 c 1
 422.208984375 594.462890625 422.69140625 560.047851562 422.69140625 520.274414062 c 0
 422.69140625 426.481445312 403.32421875 332.698242188 399.518554688 239.19140625 c 0
 396.0546875 154.079101562 384.364 105.48 378.213 20.5068 c 0
 379.026192682 -10.6951066367 365.165930207 -51.6838486924 330.299454549 -51.6838486924 c 0
 287.863934844 -51.6838486924 293.79098955 4.11598051497 292.268370771 38.8338879175 c 0
 292.105492713 98.2015064235 302.880859375 144.268554688 307.241210938 212.177734375 c 0
 311.4921875 245.040039062 271.075195312 250.536132812 243.693359375 249.522460938 c 0
 237.1484375 249.522460938 230.618164062 249.373046875 224.209960938 249.373046875 c 0
 118.385742188 251.987304688 50 343.958984375 50 464.036132812 c 0
328.14453125 486.578125 m 0
 331.736328125 535.219726562 285.787109375 563.547851562 243.690429688 562.143554688 c 0
 180.478515625 565.587890625 138.422851562 507.107421875 139.614257812 448.37890625 c 0
 138.14453125 390.448242188 178.329101562 333.538085938 237.373046875 336.301757812 c 0
 311.508789062 337.5625 325.71875 413.971679688 328.14453125 486.578125 c 0
EndSplineSet
EndChar

StartChar: colon
Encoding: 58 58 26
Width: 352
VWidth: -40
Flags: HMW
LayerCount: 2
Fore
SplineSet
122.507886662 312.03128829 m 0
 94.6365342942 310.19769761 79.9105269356 354.99950537 77.6044355456 380.229494575 c 0
 72.8591654113 402.093177834 112.122443641 442.227761532 135.200373774 438.864004593 c 0
 166.624258195 435.894097001 194.622103879 411.896078649 194.622103879 374.461888706 c 0
 194.622103879 322.139690238 172.106924041 315.294292233 122.507886662 312.03128829 c 0
134.755500156 63.6993957313 m 0
 109.125081425 61.5257844132 87.6187052634 96.3878097549 86.5858271524 125.960917722 c 0
 84.2360284927 150.449579818 118.367078098 186.561083709 138.278419613 184.44582165 c 0
 171.669648379 179.304769011 193.663094773 149.732873929 197.590591333 114.971237291 c 0
 200.805945228 88.4315142861 155.023327149 62.7777581933 134.755500156 63.6993957313 c 0
EndSplineSet
EndChar

StartChar: semicolon
Encoding: 59 59 27
Width: 352
VWidth: 0
Flags: HMW
LayerCount: 2
Fore
SplineSet
208.381063762 60.9987216371 m 0
 207.893929771 -20.2502999795 147.236237775 -120.772240214 54.6732047585 -123.152006912 c 0
 41.2367937469 -123.152006912 33.3301 -118.287174984 33.3301 -108.509 c 0
 33.3301 -100.084 62.958 -63.2988 83.0928 -25.4805 c 0
 103.225 12.3398 106.542 58.4033 106.542 75.6016 c 0
 107.241541553 102.210296996 124.34595084 133.361017499 151.41674953 134.329487966 c 0
 186.958329426 131.633028055 210.779782813 101.544027058 208.381063762 60.9987216371 c 0
145.589 274.461 m 4
 113.331462348 271.964447006 89.6095935121 292.622789907 90.276258592 332.997030265 c 0
 90.276258592 365.776414894 108.944236908 388.653313624 139.962616877 388.653313624 c 0
 178.192864997 385.767597678 196.228651453 373.74345436 194.396 324.725 c 4
 194.396 277.522 191.424 274.461 145.589 274.461 c 4
EndSplineSet
EndChar

StartChar: less
Encoding: 60 60 28
Width: 575
VWidth: -53
Flags: HMW
LayerCount: 2
Fore
SplineSet
267.175139274 327.078490479 m 0
 271.619127803 277.134556296 450.808893872 221.942395816 476.387 188.721 c 1
 476.387 146.51 454.755 86.9648 439.421 86.9648 c 0
 429.158 86.9648 386.938 109.729 345.598 137.547 c 0
 280.775 181.17 211.034 220.615 124.972 262.335 c 0
 113.458490138 267.91875203 98.6134863482 286.829384757 98.6134863482 303.262546387 c 0
 98.6134863482 323.866017182 136.944159334 365.494673697 226.661 442.606 c 0
 324.862943289 527.007024988 391.437493699 568.947199361 427.492441252 568.947199361 c 0
 451.540698668 570.780447918 460.816921859 545.515363929 460.790883965 522.190466513 c 0
 460.790883965 488.886258476 440.906226705 454.900193851 409.769 440.713 c 0
 388.848 431.181 345.847 402.582 314.211 377.159 c 0
 280.651169261 350.187636728 267.175139274 338.221157062 267.175139274 327.078490479 c 0
EndSplineSet
EndChar

StartChar: equal
Encoding: 61 61 29
Width: 575
VWidth: -53
Flags: HMW
LayerCount: 2
Fore
SplineSet
133.579053476 155.470173348 m 0
 100.313146587 152.595327089 56.2849007799 182.411508788 50.514478994 210.012915503 c 0
 50.514478994 217.799752803 56.6301523391 225.907532438 69.0098 240.491 c 0
 91.8555 267.402 117.331 272.322 278.835 281.006 c 0
 336.918205011 284.129325415 377.281632543 285.926810484 406.206084497 285.926810484 c 0
 458.776559713 285.926810484 473.560187441 279.989102713 488.266 265.282 c 0
 500.864862043 252.682243406 509.817911637 230.927144357 509.817911637 214.226841048 c 0
 505.570161528 175.061195828 501.78251487 179.477033969 341.537 177.437 c 0
 251.633 177.437 173.114 172.492 167.051 166.455 c 0
 159.518903627 158.954161771 147.271979943 155.470173348 133.579053476 155.470173348 c 0
524.485400049 434.26674442 m 0
 519.934996785 393.178237773 518.013147182 399.626643652 310.002 397.068 c 0
 194.704 397.068 90.9277 402.338 79.3877 408.777 c 0
 65.9603441391 416.271946837 58.9255827289 433.92729333 58.9255827289 450.870888729 c 0
 58.9255827289 465.389026453 64.0904605446 479.384600976 74.8242 486.018 c 1
 77.7567770067 494.723611546 319.525891011 504.514591776 391.60351501 503.525037051 c 0
 467.938333389 503.525037051 489.747765725 498.077969973 504.653 483.172 c 0
 516.292226737 471.534546859 524.485400049 450.757423956 524.485400049 434.26674442 c 0
EndSplineSet
EndChar

StartChar: greater
Encoding: 62 62 30
Width: 575
VWidth: -55
Flags: HMW
LayerCount: 2
Fore
SplineSet
164.564 103.396 m 0
 130.240103933 105.380115662 107.752363698 111.626367906 107.077201631 138.650127906 c 0
 107.077201631 163.533305814 135.524991427 190.335598269 209.322 238.153 c 0
 263.997017535 273.583013595 294.046741585 311.38954739 294.046741585 340.077425121 c 0
 294.046741585 353.690183386 287.28068056 365.249765279 273.169 373.528 c 0
 209.956 410.61 104.42 501.033 104.42 518.111 c 0
 104.42 541.46 133.96 571.946 156.583 571.946 c 0
 165.945 571.946 199.22 551.288 230.524 526.037 c 0
 261.833 500.786 323.688 463.462 367.981 443.094 c 0
 412.271 422.726 453.354 398.91 459.271 390.17 c 0
 466.922402288 378.866296124 470.580554919 366.237595269 470.580554919 353.487878044 c 0
 470.580554919 328.260399152 456.258398275 302.559124995 430.21 285.711 c 0
 408.063 271.388 349.678 224.507 300.465 181.533 c 0
 232.702 122.356 199.723 103.396 164.564 103.396 c 0
EndSplineSet
EndChar

StartChar: question
Encoding: 63 63 31
Width: 490
VWidth: -49
Flags: HMW
LayerCount: 2
Fore
SplineSet
84.8480268687 480.394931189 m 0
 68.4947819953 478.20438832 51.9631691077 498.090492211 51.9668133533 530.286019855 c 0
 51.9668133533 577.025254059 93.3319478814 622.233872146 160.086 647.188 c 0
 194.210839873 659.944792284 225.842410923 666.334174309 255.044752501 666.334174309 c 0
 324.800518572 666.334174309 380.695321347 629.876939306 423.602 556.663 c 0
 445.853254541 518.692064386 454.998047557 495.244445594 454.998047557 470.405347821 c 0
 454.998047557 461.752066586 453.888198586 452.929909848 451.836 443.266 c 0
 441.943 396.716 393.245 320.635 307.951 218.481 c 0
 278.038 182.657 254.121 160.441 223.759 160.441 c 0
 198.288023566 160.441 181.34691455 176.154228635 181.34691455 187.850526934 c 0
 181.414423899 223.776217838 220.883104281 256.260025844 269.187 316.017 c 0
 322.079884459 387.473115473 351.857353763 419.209834319 355.363881391 458.776892003 c 0
 355.363881391 506.46955373 305.297829818 571.081892747 259.109777981 571.081892747 c 0
 179.859673181 568.426170622 125.621538933 499.892425634 107.482 487.788 c 0
 100.946231076 483.430867926 92.8394945806 480.394931189 84.8480268687 480.394931189 c 0
255.201073482 -48.7080415285 m 0
 218.98331799 -49.9646991229 192.529453301 -25.2548702576 192.47104555 6.60056934758 c 0
 189.560604799 36.6545442153 226.930224665 67.9490777809 267.657994318 69.0028581637 c 0
 288.99088355 69.0028581637 306.235357675 56.7185864785 306.235357675 19.4246655469 c 0
 304.609717234 -27.9353033405 296.781039214 -50.1038329561 255.201073482 -48.7080415285 c 0
EndSplineSet
EndChar

StartChar: at
Encoding: 64 64 32
Width: 730
VWidth: -54
Flags: HMW
LayerCount: 2
Fore
SplineSet
464.139949886 -41.5788138549 m 0
 415.513768071 -40.4669286264 371.490440083 -49.6485078213 330.608145236 -52.6963698522 c 0
 317.313072157 -52.6963698522 307.84477714 -50.6492670531 305.452 -46.6924 c 0
 301.424 -40.0234 272.843 -27.334 241.941 -18.4922 c 0
 200.052 -6.50098 171.441 14.6016 129.483 64.4609 c 0
 29.5137791528 182.8938468 26.6685221148 193.480903025 26.1540487816 324.492628015 c 0
 26.1540487816 448.374177915 43.6537058777 498.92688227 111.577 575.78 c 0
 151.729992556 621.075001548 275.148732264 707.455668887 350.169534928 707.455668887 c 0
 445.419459558 707.455668887 538.206346595 679.019161143 583.323 656.249 c 0
 604.285 645.989 640.018 609.226 662.725 574.555 c 0
 701.278308143 515.694437995 703.945471551 505.472168482 703.945471551 397.440166969 c 0
 703.945471551 261.540929295 689.870904349 191.231933362 653.255 157.36 c 0
 634.359352545 140.001569621 578.674555666 125.317969264 533.553222572 126.037451261 c 0
 505.217826316 126.037451261 488.06867852 132.108816764 468.016 147.042 c 0
 450.166712947 160.333445351 438.299998021 166.159682786 421.072485056 166.159682786 c 0
 402.992459004 167.423825094 358.244002187 152.463493907 340.137288065 153.406978213 c 0
 320.44375605 153.406978213 307.060658438 161.822418577 279.169 183.569 c 0
 222.458314886 227.787365856 198.191284267 270.610329643 198.191284267 330.319485667 c 0
 198.250556734 371.712662328 211.308290475 429.429892856 221.147 449.333 c 0
 234.445293514 472.665786778 300.640598568 530.335522666 341.252997977 531.580480566 c 1
 356.463923656 536.865110932 485.965768053 488.772426795 510.033 470.298 c 0
 515.406 464.799 519.798 403.811 519.798 334.775 c 0
 520.97672721 215.546413775 519.429256108 208.578588894 549.232156029 205.218116013 c 0
 564.307880409 205.218116013 586.010711578 217.423424541 602.844 235.746 c 0
 627.413243128 262.487672461 632.74236517 275.300554397 632.74236517 344.025903931 c 0
 632.74236517 355.622459375 632.590632266 368.810977058 632.354 383.927 c 0
 630.348 511.979 613.091 553.167 546.497 588.826 c 0
 518.265347079 606.616021526 407.381397928 618.46367752 342.804572917 618.213545016 c 0
 296.63356234 618.213545016 284.201256069 608.725608075 235.016 571.189 c 0
 136.184725771 495.637685363 111.107032131 437.513567313 108.946410293 303.694223353 c 0
 108.946410293 263.102869255 115.695730589 240.118512916 134.562 202.771 c 0
 154.085 164.114 187.714 127.756 233.947 95.3213 c 0
 286.750692614 58.2723375698 299.650131029 49.2216294558 375.066525177 49.2216294558 c 0
 415.017348275 49.0290734287 508.52992338 53.2912014465 553.360394453 52.9782060972 c 0
 646.652116859 52.9782060972 665.903 43.3399375207 665.903 13.3457 c 0
 665.903 -8.92110514597 556.730188494 -41.9644639216 486.639008204 -41.9644639216 c 0
 478.928215621 -41.9288194632 472.227551809 -41.5107490401 464.139949886 -41.5788138549 c 0
360.795171148 449.143718871 m 0
 323.323030753 454.866726672 291.142204973 381.721581914 286.871336137 316.363948253 c 0
 284.638342123 282.192164861 340.629222962 232.161085248 367.586313941 230.937612122 c 1
 403.968206555 238.653254879 423.663873545 295.401352261 423.663873545 343.240831281 c 0
 423.663873545 393.593719024 400.700773076 447.189821537 360.795171148 449.143718871 c 0
EndSplineSet
EndChar

StartChar: A
Encoding: 65 65 33
Width: 560
VWidth: -49
Flags: HMW
LayerCount: 2
Fore
SplineSet
525.393325541 16.5869151174 m 0
 527.512783918 -14.8181595688 508.536846802 -39.41079635 481.038653708 -37.3757036548 c 0
 462.672075615 -37.3757036548 443.581187498 -28.305729007 435.601 -11.7246 c 0
 398.002 66.3942 391.688 155.225 372.042 238.554 c 1
 366.107346124 238.671923809 360.146433846 238.726774409 354.169562811 238.726774409 c 0
 287.036281206 234.913944092 230.06887323 244.603985381 183.007 209.213 c 1
 159.673 171.826 152.134 127.159 142.88 84.6836 c 0
 134.965 48.3564 130.46 6.28125 101.935 -20.4033 c 1
 96.1456504039 -23.2936742954 90.4913149071 -24.5893745699 85.0796602314 -24.5893745699 c 0
 57.018480167 -24.5893745699 35.4824 10.2488697109 35.4824 38.2422 c 0
 35.4824 108.42 50.7693 178.198 74.2998 243.684 c 0
 106.09 332.156 136.382 421.21 162.431 511.578 c 0
 174.369 552.994 177.806 599.122 205.9 633.606 c 0
 228.887 661.821 256.274 699.369 294.476 699.369 c 0
 310.344 699.369 324.919 689.14 335.092 677.809 c 0
 386.014 621.091 406.598 544.563 424.001 472.097 c 0
 451.298 358.434 465.42 241.873 495.481 128.73 c 0
 505.21220008 92.1054644376 525.393325541 54.6329507418 525.393325541 16.5869151174 c 0
248.578071702 330.865339192 m 0
 282.082406182 338.404075842 329.093973787 322.298700469 342.675 358.307 c 1
 342.005 399.907 330.134 440.727 321.038 481.196 c 1
 311.521 502.555 313.385 539.396 286.257 545.932 c 1
 261.403 534.277 250.127 500.146 246.453 474.63 c 0
 241.146 437.766 229.416 402.717 221.078 366.66 c 1
 218.386647184 361.051964912 217.19553448 356.182838683 217.19553448 351.998091501 c 0
 217.19553448 337.087340437 232.317681115 330.865339192 248.578071702 330.865339192 c 0
EndSplineSet
EndChar

StartChar: B
Encoding: 66 66 34
Width: 554
VWidth: -49
Flags: HMW
LayerCount: 2
Fore
SplineSet
304.389421681 -31.4743357059 m 0
 252.793892462 -29.4624437289 201.336221938 -27.2338512447 149.642 -27.4805 c 0
 109.382 -27.4805 71.7207 2.63477 62.6719 41.7832 c 1
 64.5308788561 109.966566131 65.0441369365 181.299104969 65.0441369365 253.307736989 c 0
 65.0441369365 342.102135687 64.2637 431.924570985 64.2637 518.138 c 0
 64.2637 543.91 64.0205 570.912 52.4199 594.029 c 0
 49.0598731001 600.724974477 46.9995842129 608.532477375 46.9995842129 616.105641213 c 0
 46.9995842129 625.075650865 49.8899927804 633.716902918 56.9346 639.793 c 1
 115.299451934 671.148459345 181.217286052 688.17267848 248.422900245 688.17267848 c 0
 358.394105474 685.198585194 482.163899082 652.275520285 482.163899082 539.730780213 c 0
 482.163899082 462.50009802 439.056041499 411.203258157 397.841 358.824 c 1
 438.459136915 305.28846197 509.508838535 256.133013554 507.491695304 170.215736192 c 0
 507.491695304 113.365827756 491.778294615 46.2774558106 455.528 17.2617 c 0
 419.646014148 -11.4604533208 363.624051677 -31.4743357059 304.389421681 -31.4743357059 c 0
252.096190539 68.6935308916 m 0
 327.078031232 69.9033214698 413.038987191 79.4481471112 414.241634065 159.027051638 c 0
 414.241634065 169.673346809 412.325870831 180.103953147 408.466 189.105 c 0
 386.194 241.042 330.729 279.387 274.622 279.387 c 0
 271.663287838 279.387 268.68424514 279.392324865 265.696411095 279.392324865 c 0
 222.650563092 279.392324865 177.779958253 278.287080824 165.591 244.23 c 0
 159.149620015 226.233038807 157.127912505 205.733355131 157.127912505 185.045809823 c 0
 160.070093042 139.174729975 155.093468009 96.3314293048 187.966 76.543 c 1
 208.878473518 70.8659550777 230.455813363 68.6935308916 252.096190539 68.6935308916 c 0
162.634964829 504.220733388 m 0
 162.634964829 445.321211712 164.282111346 387.792743472 226.905849664 387.792743472 c 0
 299.432671804 387.792743472 370.372 445.175002413 370.372 517.324 c 0
 370.372 567.481573277 313.827319457 595.843068684 259.689576889 595.843068684 c 0
 205.312559161 598.330959582 162.634964829 564.312136322 162.634964829 504.220733388 c 0
EndSplineSet
EndChar

StartChar: C
Encoding: 67 67 35
Width: 581
VWidth: -51
Flags: HMW
LayerCount: 2
Fore
SplineSet
499.263204858 164.453638341 m 0
 518.926188743 164.898142747 537.234484591 145.595490371 535.060853454 127.548302118 c 0
 535.060853454 111.825714386 527.594835239 94.7148945617 519.023 82.7158 c 0
 489.073 42.2979 456.227 -3.13611 406.432 -18.5391 c 0
 375.41393194 -28.1337964089 341.727945298 -34.7668553989 308.461043186 -34.7668553989 c 0
 278.328134336 -34.7668553989 248.539067564 -29.3246960391 221.388 -15.7119 c 0
 115.108773241 33.9641495291 46.3257978484 144.455357328 46.3257978484 298.367207579 c 0
 46.3257978484 445.440708918 68.8432313977 543.533453599 148.858 627.735 c 0
 197.290028322 679.446316625 268.714484455 693.460946893 337.840289699 694.783008085 c 0
 410.804770264 697.155867648 478.142598307 639.62005457 486.768933021 567.014024123 c 0
 487.772436701 545.186471488 469.861385371 523.928340941 450.773653363 526.252213544 c 0
 431.105569288 526.252213544 408.526853828 539.208545671 395.143 552.678 c 0
 371.551991541 575.176531046 338.504803247 591.931177215 305.76290805 591.931177215 c 0
 291.181671534 591.931177215 276.660982776 588.608284332 263.063 580.99 c 0
 196.453 543.16 167.559 466.007 155.14 393.991 c 0
 150.174094073 365.198024595 147.243471186 335.741321444 147.243471186 306.381033793 c 0
 147.562040282 185.163645229 199.55251424 71.3319703238 312.052765416 64.0703929429 c 0
 365.225755209 64.0703929429 408.220684225 101.636109742 445.767 135.493 c 0
 460.189105403 148.254845384 479.482554497 164.453638341 499.263204858 164.453638341 c 0
EndSplineSet
EndChar

StartChar: D
Encoding: 68 68 36
Width: 574
VWidth: -51
Flags: HMW
LayerCount: 2
Fore
SplineSet
42.9999458962 592.043910457 m 0
 47.1305160299 627.775822057 87.9047372073 687.954669937 137.699336377 684.412622243 c 0
 266.48335454 675.251806771 359.544358365 635.921224113 442 549 c 0
 503.541992188 481.444335938 528 433 528.015005218 330.987061603 c 0
 528.015005218 259.922078624 512.307634633 180.409194016 503.555664062 154.0390625 c 0
 494.502929688 126.763671875 458.138 73.0938 412.964 34.04 c 0
 332.782 -35.2764 327.794 -37.1797 202.824 -46.1055 c 0
 169.489812443 -48.4849790191 143.660321659 -49.740548615 123.713743256 -49.740548615 c 0
 85.1612988607 -49.740548615 68.5853987324 -45.0501709552 62.2764 -34.7188 c 1
 42.7967711385 -26.9281999106 42.8907132387 564.2029602 42.9999458962 592.043910457 c 0
149.465826291 355.887609568 m 0
 148.759987493 268.265356319 155.350267173 72.3193974565 162.243164062 73.013671875 c 1
 167.59765625 64.2451171875 194.612304688 57.072265625 222.274414062 57.072265625 c 0
 256.094726562 57.072265625 295.06640625 74.4560546875 341.254882812 110.143554688 c 0
 395.030273438 151.692382812 412.025390625 177.205078125 419.548828125 223.267578125 c 0
 425.576852574 260.180408278 428.743366137 292.502231219 428.743366137 321.207782686 c 0
 428.743366137 405.734983225 401.287033038 458.906071681 338.586914062 505.608398438 c 0
 300.560666873 530.552576575 261.66043897 551.516114201 213.059406845 552.28968576 c 0
 161.110255717 552.28968576 149.465826291 512.399495785 149.465826291 355.887609568 c 0
EndSplineSet
EndChar

StartChar: E
Encoding: 69 69 37
Width: 571
VWidth: -51
Flags: HMW
LayerCount: 2
Fore
SplineSet
165.104082523 153.267094121 m 0
 158.097616215 96.3705997111 177.480245903 82.6645650364 231.478906045 83.7763928797 c 0
 257.568889334 84.4502826387 332.579826207 88.8213311763 400.136004535 88.9850843774 c 0
 492.817560718 88.9850843774 509.499284508 66.696456981 520.860351562 40.751953125 c 0
 524.71906969 32.1842275973 526.636777998 23.8078629597 526.636777998 16.5540685351 c 0
 526.636777998 8.62039916267 524.342741842 2.02959129096 519.78515625 -2 c 0
 506.122739329 -15.1250258514 421.307699968 -20.3430385612 335.178557732 -20.3430385612 c 0
 281.534810526 -20.8870823687 234.667077662 -17.2389376569 186.644792001 -16.2607318238 c 0
 166.821075664 -16.2607318238 152.822888821 -17.2336964087 140.587687566 -17.2336964087 c 0
 115.973022074 -18.9143013638 51.1431716822 -3.41950061312 59.2883921042 35.112547677 c 0
 59.2883921042 46.2069742142 60.806808189 59.100355551 60.806808189 73.67667237 c 0
 58.258413722 113.354142883 55.4950737232 154.033290624 55.7828759989 212.884713098 c 0
 55.2964331113 264.707394795 58.4395525196 313.851431329 59.5970195783 362.734601702 c 0
 59.5970195783 431.948051234 48.8002184504 484.523122987 48.8002184504 518.358604055 c 0
 48.8002184504 537.197671081 44.3624943741 560.656616465 44.3624943741 586.665504009 c 0
 44.3624943741 610.697049733 48.1511065745 636.905554143 62.7294921875 663.658203125 c 1
 105.595703125 691.831054688 l 1
 284.853515625 695.001953125 l 2
 300.777767966 695.328822958 316.357681126 695.48557844 331.342610698 695.48557844 c 0
 410.462663891 695.48557844 472.995683831 691.11552783 482.047851562 684.341796875 c 0
 491.135357766 677.540590527 497.375117911 661.054682577 497.375117911 645.728185906 c 0
 492.779785322 602.760787106 490.566045883 609.121240381 341.09375 604.801757812 c 0
 175.164079894 602.957266656 154.435510226 596.287877696 154.435510226 496.663166581 c 0
 154.371654871 485.176665528 154.878644376 470.746273479 154.949567939 458.129572772 c 0
 154.949567939 443.349621673 154.252994114 430.116932531 154.252994114 419.309239733 c 0
 154.252994114 402.501580941 155.937667108 391.558807822 164.546875 389.782226562 c 0
 179.232087981 386.752422433 190.472184518 385.656650915 202.679240315 385.656650915 c 0
 221.489204989 385.534388186 302.520362135 393.177891443 351.474681518 392.536819123 c 0
 427.98185458 390.359703796 461.240979722 385.757167911 459.711371726 343.582071794 c 0
 459.711371726 294.882235811 426.271273013 296.072934435 328.70703125 290.541992188 c 0
 273.76171875 286.853515625 212.640625 287.224609375 191.7421875 280.186523438 c 0
 166.650485922 272.350400914 158.105445275 264.504034273 158.105445275 243.869161592 c 0
 160.10492496 215.715866857 165.5479469 182.232135126 165.104082523 153.267094121 c 0
EndSplineSet
EndChar

StartChar: F
Encoding: 70 70 38
Width: 548
VWidth: -47
Flags: HMW
LayerCount: 2
Fore
SplineSet
508.602 618.701 m 1
 502.008407604 579.245086082 466.619313789 561.700826182 418.167408155 564.914806215 c 0
 392.344178918 564.914806215 366.325541379 567.517 340.523 567.517 c 0
 315.403644199 567.517 290.259730225 568.850110548 265.145744886 568.850110548 c 0
 222.442759823 567.84803595 177.683044713 569.351939384 164.968 535.301 c 1
 163.694 507.874 162.965 475.32 162.965 447.831 c 0
 162.965 440.637271966 162.470251063 432.192412152 162.470251063 423.859246247 c 0
 162.470251063 405.482180891 164.876370232 387.64831803 180.301 384.974 c 0
 198.999692644 381.731754539 217.85312341 380.781281982 236.791868825 380.781281982 c 0
 263.632625002 380.781281982 290.644741665 382.69037313 317.630596049 382.69037313 c 0
 332.023194673 382.69037313 346.40832299 382.147331972 360.756 380.482 c 1
 367.50790414 382.337034204 374.198452275 383.196481502 380.669957862 383.196481502 c 0
 414.102035948 383.196481502 441.688305755 360.259549112 441.688305755 333.155440317 c 0
 441.688305755 322.071966117 437.07540039 310.291667354 426.363 299.098 c 1
 351.909 276.553 245.679 291.268 167.176 274.598 c 1
 166.029961191 247.420775771 165.878284571 219.136537345 165.878284571 190.779347025 c 0
 165.878284571 180.571214919 165.897940103 170.353629093 165.897940103 160.174828287 c 0
 165.897940103 138.230913956 165.806587742 116.467259467 165.23 95.3672 c 0
 163.949954026 48.498994955 168.876024916 -25.8441514835 120.837935109 -25.8441514835 c 0
 113.63420576 -25.8441514835 105.239438979 -24.1723517424 95.4541 -20.4854 c 1
 73.4538017518 4.9539921452 71.9623029666 48.9983166751 71.9623029666 91.8342866806 c 0
 71.9623029666 98.5534103154 71.999 105.242803436 71.999 111.826 c 0
 71.999 223.885 71.7246 344.979 68.0215 456.999 c 0
 66.5342 502.025 63.2617 552.271 48.4609 594.922 c 1
 42.3344286437 604.967827115 39.3980470836 616.633079179 39.3980470836 628.07324537 c 0
 39.3980470836 655.202396118 55.9108279943 681.06577345 85.5530457731 681.06577345 c 0
 142.658390476 677.612820122 202.325743354 673.661665257 262.35007104 673.732201173 c 0
 304.687460974 673.108333627 345.615129786 677.400256279 387.416665499 677.730039673 c 0
 444.707081553 677.730039673 498.058690686 667.90462107 508.602 618.701 c 1
EndSplineSet
EndChar

StartChar: G
Encoding: 71 71 39
Width: 573
VWidth: -49
Flags: HMW
LayerCount: 2
Fore
SplineSet
430.324226147 3.36586397711 m 0
 398.336694251 0.752138607987 330.24692543 -16.8045901547 301.632434542 -14.0082673006 c 0
 279.379417838 -14.0082673006 257.95335303 -10.4645484529 227.5390625 -3.3603515625 c 0
 171.280273438 9.78125 84.73828125 127.635742188 54.822265625 224.228515625 c 0
 48.5422799732 244.505515634 45.7740726135 268.820718758 45.7740726135 294.666889523 c 0
 50.4212323543 445.463482655 109.950789631 556.666829895 194.203125 625.999023438 c 0
 252.044952773 674.763069454 287.838212927 685.698259835 322.294687956 685.698259835 c 0
 334.635700629 685.698259835 346.80523013 684.295490534 359.754882812 682.725585938 c 0
 447.019533469 672.147020302 482.022563909 628.379735897 482.022563909 564.503805523 c 0
 481.230984885 521.830405696 477.063823005 494.24624593 453.906700602 496.512335663 c 0
 435.391318414 496.557409489 417.02766689 514.355215314 405.948242188 538.73828125 c 0
 391.534691586 572.883460445 376.119293423 581.064416226 332.925626528 582.421255458 c 0
 275.621684918 582.421255458 239.869463956 525.183944801 202.067 458.037 c 0
 162.865583926 388.410560977 143.165946238 335.923050057 143.165946238 289.286714591 c 0
 143.165946238 239.492823232 165.623452962 196.369248057 210.779296875 146.176757812 c 0
 254.019688336 99.5900767004 274.671476338 85.6476910676 318.355824717 85.1772054222 c 0
 377.349626344 81.6455013986 404.946431121 138.604050247 406.51774611 195.441452386 c 0
 404.669372573 242.810612148 400.518971143 251.138072386 348.443359375 260.98046875 c 0
 312.3727218 271.796453435 280.491702085 274.47169635 275.681409323 296.918058835 c 1
 276.253123363 327.412954919 357.209043792 372.999322684 423.673993808 370.338279183 c 0
 450.726197157 370.338279183 467.257241279 363.226561671 487.3359375 345.561523438 c 0
 517.5234375 319.009765625 521.650390625 299.448242188 525.858398438 163.122070312 c 0
 526.743811719 134.425658461 527.226423729 110.500692281 527.226423729 90.4900927363 c 0
 527.226423729 26.4558528365 522.284427138 2.50512960919 509.78515625 -9.447265625 c 0
 501.252908914 -17.6048404849 495.052423193 -21.6788235544 488.734091179 -21.6788235544 c 0
 471.167525253 -19.6731971928 456.818014194 5.53069139079 430.324226147 3.36586397711 c 0
EndSplineSet
EndChar

StartChar: H
Encoding: 72 72 40
Width: 573
VWidth: -54
Flags: HMW
LayerCount: 2
Fore
SplineSet
142.709593866 48.1960277015 m 0
 142.291114101 -30.7445485146 137.906401888 -38.6484412977 99.2946617406 -49.7617274038 c 0
 91.5120331836 -49.7617274038 83.602993037 -45.4809586451 69.8574 -36.7979 c 0
 51.5732 -25.251 47.0596 35.5732 42.9199 326.15 c 0
 41.7259466341 409.904537342 41.0001657485 473.996146959 41.0001657485 523.298510245 c 0
 41.0001657485 657.838378871 46.4048714412 682.246490913 62.4492 695.562 c 0
 72.4856419219 703.891935889 81.050989545 707.973212613 89.7824976485 707.973212613 c 0
 96.6095456386 707.973212613 103.538175247 705.478138611 111.351 700.568 c 0
 130.862 688.305 137.211 653.305 143.067 525.71 c 0
 148.656386538 403.908066137 153.204706392 372.386395713 167.990024016 372.386395713 c 1
 184.410018645 377.123558129 236.031414866 380.052338464 296.811 380.466 c 2
 399.307 380.828 l 1
 400.219 468.68 l 2
 402.07 646.857 405.173 664.543 437.621 681.907 c 0
 448.461547908 687.709593102 456.687585605 690.70742691 464.032215439 690.70742691 c 0
 473.314472205 690.70742691 481.188918306 685.919198229 491.154 675.953 c 0
 507.642 659.467 515.251 612.856 519.477 502.475 c 0
 521.969258554 437.416079523 523.524200129 373.532797774 523.524200129 341.189852031 c 0
 522.402033914 302.518769174 520.162141359 244.639627786 518.75 143.682 c 0
 516.827904072 19.2478572441 507.524329861 -34.4731228811 482.913651152 -34.4731228811 c 0
 457.738128572 -33.1552989074 419.216503952 17.6957523842 421.336889595 42.4597249098 c 0
 421.336889595 63.8202818611 423.01978887 88.5944542577 423.01978887 114.61150341 c 0
 423.01978887 185.969876344 418.980059422 262.868112607 413.437 271.835 c 0
 408.292720885 280.159985485 372.207941834 284.405544006 326.725096349 284.405544006 c 0
 284.95175063 284.405544006 235.250804034 280.824265485 194.312 273.533 c 0
 149.350822488 265.525520913 138.904618482 263.665076754 138.904618482 197.991910207 c 0
 138.746540665 164.472358443 143.09493476 85.1640294959 142.709593866 48.1960277015 c 0
EndSplineSet
EndChar

StartChar: I
Encoding: 73 73 41
Width: 241
VWidth: -55
Flags: HMW
LayerCount: 2
Fore
SplineSet
72.8550991768 352.214108076 m 0
 72.4258605613 508.569540111 62.9776160276 526.061380923 59.6603133418 592.164678105 c 0
 54.7222537158 630.784181867 91.0059156047 692.941910906 126.619139127 690.742221972 c 0
 140.250685409 690.742221972 152.75354311 683.376278567 161.073 669.618 c 0
 165.280437794 662.654856679 167.424683088 598.428296736 167.424683088 493.629146763 c 0
 167.607797513 427.444409223 165.890430012 335.529855759 166.006777008 265.488766242 c 0
 166.006777008 133.250388775 169.28320768 29.6975013048 175.304 17.9287 c 0
 179.326077909 10.0688145013 181.340542741 2.67759683373 181.340542741 -4.32621432055 c 0
 182.025510934 -25.9467927907 154.635221033 -50.687701147 137.605654884 -49.1460246256 c 0
 123.542596451 -49.1460246256 108.562093616 -39.6595093794 91.6221 -20.5674 c 0
 75.038621386 -1.88015192519 69.6839223128 18.7932965084 69.6839223128 114.495756895 c 0
 69.2436108039 162.940920548 72.7469617757 281.287634997 72.8550991768 352.214108076 c 0
EndSplineSet
EndChar

StartChar: J
Encoding: 74 74 42
Width: 463
VWidth: -51
Flags: HMW
LayerCount: 2
Fore
SplineSet
44.7970635928 176.728599083 m 0
 45.2706001817 202.560422162 60.8729377649 237.97338881 90.784990399 239.921694728 c 0
 103.465275222 239.921694728 115.820981138 233.055454498 120.041 222.085 c 0
 145.541594666 154.053692178 163.189811338 61.8359076565 255.336015519 59.3985376944 c 0
 286.744348999 59.3985376944 315.266028423 73.8734648594 318.516 105.628 c 0
 323.549464384 154.810543507 325.40080815 204.134830805 325.40080815 253.553624641 c 0
 325.40080815 380.898501435 311.302914361 508.760849151 311.302914361 636.621598603 c 0
 311.302914361 670.949871503 328.815228474 705.368005524 357.906 712.396 c 1
 386.273 709.748 401.212890625 679.005859375 403.85546875 655.458007812 c 0
 417.932297048 530.041430273 419.79119146 395.016774873 419.79119146 261.465388443 c 0
 419.79119146 213.534704013 419.551757812 165.793783005 419.551757812 118.754882812 c 0
 419.551757812 51.4990234375 396.502 -4.67578 348.307 -24.1943 c 0
 320.862494836 -35.3087700419 291.233160754 -41.1049517743 261.691041379 -41.1049517743 c 0
 128.974698293 -34.2793903054 56.6896117 50.6061698043 44.7970635928 176.728599083 c 0
EndSplineSet
EndChar

StartChar: K
Encoding: 75 75 43
Width: 539
VWidth: -53
Flags: HMW
LayerCount: 2
Fore
SplineSet
149.871297075 37.4937338304 m 0
 151.591825926 -5.21813107067 136.453547882 -51.7150586788 104.89613375 -52.0796758826 c 0
 95.4673060635 -52.0796758826 84.7201235655 -48.2155922102 72.5781 -40.5127 c 1
 45.0917465961 -46.2792102629 39.4803109016 465.644379693 38.9998565347 525.755428522 c 0
 38.9998565347 642.526017549 46.0434136411 676.595649193 62.4766 693.027 c 0
 72.0819042214 702.633431605 79.8061710075 707.274730189 88.1974651053 707.274730189 c 0
 94.6924929948 707.274730189 101.587141397 704.494097244 110.063 699.083 c 0
 128.264456577 687.466547362 133.573809252 668.302584265 133.573809252 589.898419333 c 0
 133.672775014 569.46357347 132.909939342 539.602407668 132.899788085 516.573480319 c 0
 132.899788085 451.027818836 137.216919739 400.953 143.34 400.953 c 0
 165.651 400.953 221.651 464.448 295.702 573.713 c 0
 354.17259498 659.990039866 368.935317986 676.955058393 399.813831075 676.955058393 c 0
 436.341928233 676.045823575 464.377219323 666.785259946 462.421308654 635.648749797 c 0
 462.421308654 610.913119157 429.666242901 567.516573565 341.371 474.353 c 0
 272.389 401.557 215.944 333.207 215.944 322.458 c 0
 215.944 304.5 314.894 204.355 444.744 95.7422 c 0
 483.13965791 63.6249881443 505.08503406 26.2538429839 505.08503406 -2.26777229922 c 0
 506.196881777 -24.6652307431 487.682439716 -44.2851915405 463.52448075 -44.319974376 c 0
 450.158050542 -44.319974376 433.514064062 -38.9550748805 409.937 -27.7676 c 0
 380.798 -13.9385 348.944 25.5234 348.944 36.2451 c 0
 348.944 58.0508 198.143 195.961 173.623 195.961 c 0
 156.338698137 195.961 144.278962193 156.490034308 144.278962193 110.591664604 c 0
 143.468466942 85.9883994229 150.300513229 62.922798515 149.871297075 37.4937338304 c 0
EndSplineSet
EndChar

StartChar: M
Encoding: 77 77 44
Width: 717
VWidth: -51
Flags: HMW
LayerCount: 2
Fore
SplineSet
81.7336317454 -51.4978464661 m 0
 41.8638063563 -44.307275918 40.2559095754 -40.8407349703 40.0001470172 30.8959732114 c 0
 40.0001470172 69.272179468 42.30591959 125.181973294 46.8389 204.009 c 0
 60.5898 443.115 79.5674 593.444 104.171 658.158 c 0
 113.525092911 682.761319241 129.759484028 693.457568031 148.303714183 693.457568031 c 0
 193.472179033 693.457568031 252.344246621 629.999837066 258.875 549.482 c 0
 263.144075339 480.225521182 308.705497556 397.567701375 308.399 323.764 c 0
 309.078 264.561 330.249 211.249 353.075 211.249 c 0
 360.618 211.249 377.097 249.135 389.69 295.44 c 0
 416.747119532 399.21610341 458.419600223 495.873205259 485.959 596.087 c 0
 499.671783563 645.986783162 511.525634089 681.406590035 548.26358829 686.333139561 c 0
 559.288881816 686.333139561 568.26691143 677.681927556 581.42 657.604 c 0
 599.434 630.115 609.212 565.388 618.51 412.101 c 0
 630.646 212.004 650.789 90.6562 677.686 55.625 c 0
 681.42204351 50.7589757527 683.057826902 43.7565956999 683.057826902 35.7437351782 c 0
 683.057826902 5.99836052269 660.515979001 -37.6719 639.193 -37.6719 c 0
 589.949 -37.6719 555.455 73.0986 535.244 296.144 c 0
 529.336246312 361.339803338 520.484799814 397.811940386 510.660947166 397.811940386 c 0
 499.20990963 395.430271603 476.264481691 320.90573083 453.613 232.161 c 0
 405.088 35.5049 389.219 -6.63281 359.373 -18.085 c 0
 356.2585422 -19.2802232669 352.704856599 -19.8457608767 348.937714742 -19.8457608767 c 0
 337.192174318 -19.8457608767 323.371572518 -14.3480290626 314.319 -5.29688 c 0
 302.364 6.65918 275.977 88.2744 255.683 176.073 c 0
 210.117 373.213 210.349 372.312 194.714 372.312 c 0
 167.893 372.312 149.793 296.76 139.88 143.409 c 0
 134.221 55.8955 123.038 -23.9453 115.028 -34.0098 c 0
 105.773478593 -45.6401083171 94.4169871415 -51.4978464661 81.7336317454 -51.4978464661 c 0
EndSplineSet
EndChar

StartChar: L
Encoding: 76 76 45
Width: 600
VWidth: -53
Flags: HMW
LayerCount: 2
Fore
SplineSet
44.458984375 23.15234375 m 0
 56.798828125 145.5625 38.7978515625 381.151367188 40 518.499023438 c 0
 40 670.98046875 55.490234375 699.650390625 101.971679688 699.650390625 c 0
 146.231445312 699.650390625 158.470703125 682.102539062 158.470703125 621.170898438 c 0
 158.470703125 534.428710938 138.440429688 391.228515625 141.260742188 297.729492188 c 0
 141.260742188 269.203125 142.025390625 242.76171875 143.553710938 219.836914062 c 2
 152.44140625 86.5390625 l 1
 334.416992188 87.6748046875 l 2
 341.478515625 87.71875 348.298828125 87.740234375 354.884765625 87.740234375 c 0
 504.8125 87.740234375 533.852539062 76.453125 544.07421875 59.6220703125 c 0
 552.545898438 44.3955078125 557.51171875 34.6533203125 557.51171875 26.78515625 c 0
 557.51171875 15.4208984375 547.154296875 7.962890625 522.041992188 -6.4638671875 c 0
 496.391601562 -21.2001953125 459.609375 -27.5556640625 385.298828125 -27.5556640625 c 0
 342.314453125 -27.603515625 279.344726562 -24.5537109375 238.249023438 -24.9296875 c 0
 177.0078125 -24.3076171875 156.423828125 -28.75 118.56640625 -32.658203125 c 0
 77.517578125 -32.658203125 44.458984375 -10.8154296875 44.458984375 23.15234375 c 0
EndSplineSet
EndChar

StartChar: N
Encoding: 78 78 46
Width: 606
VWidth: -53
Flags: HMW
LayerCount: 2
Fore
SplineSet
128.254611511 398.777798643 m 0
 126.598726718 337.913222564 139.206323849 196.814023545 138.847667686 116.016175608 c 0
 138.847667686 46.285270199 133.936984436 -2.41507094457 129.205 -12.209 c 0
 121.294011453 -28.5829478789 110.400498454 -36.7944865927 98.1762994915 -36.7944865927 c 0
 86.3383695419 -36.7944865927 73.2525209066 -29.0936970188 60.4189 -13.6475 c 0
 45.0918 4.79785 46.9951 70.1211 43.2461 315.167 c 0
 41.929456227 401.259595825 41.0002207176 464.324626134 41.0002207176 511.217119499 c 0
 41.0002207176 636.837392316 47.6688812553 646.395420606 71.4229 671.68 c 0
 89.6221 691.054 109.564 706.904 119.409 706.904 c 0
 155.564 706.904 234.053 613.979 321.338 436.838 c 0
 385.563 306.495 388.804 264.198 429.917 210.036 c 0
 433.061954665 205.892838551 436.559228124 204.033634466 440.156354353 204.033634466 c 0
 447.589811724 204.033634466 455.449682127 211.973212456 461.508 224.104 c 0
 465.653980113 232.406429872 470.946334778 387.59628227 470.946334778 446.490159658 c 0
 471.024668343 464.912742185 470.242462918 463.747447355 470.303465156 481.79924802 c 0
 470.303465156 532.257108379 474.369985121 670.535022483 486.225 686.103 c 0
 503.967 709.402 506.339 714.226 524.037 714.226 c 0
 555.734711001 714.226 560.03669874 683.999374204 560.03669874 620.560626481 c 0
 559.925008862 555.261405115 555.695516344 441.855259373 550.679 267.636 c 0
 537.482569131 -27.2815506073 550.820081416 -19.9017591747 493.757613147 -25.6143170122 c 0
 468.38837519 -25.6143170122 451.352289713 -11.1417604579 419.189 39.5732 c 0
 395.084 77.5859 330.716 202.286 276.15 313.699 c 0
 221.545292473 425.20125032 168.913341197 516.413662599 158.752634859 516.413662599 c 0
 137.798260798 516.413662599 128.254611511 485.142696898 128.254611511 398.777798643 c 0
EndSplineSet
EndChar

StartChar: O
Encoding: 79 79 47
Width: 621
VWidth: -49
Flags: HMW
LayerCount: 2
Fore
SplineSet
325.739 688.775 m 0
 499.754937708 688.775 582.339334036 521.541598697 582.339334036 347.80623554 c 0
 582.33809724 345.565303036 582.245508778 343.361408814 582.245508778 341.137173517 c 0
 582.245508778 325.122458544 584.052 309.171144574 584.052 293.167 c 0
 584.052 228.571 564.217 171.995 544.808 120.086 c 0
 513.809486383 34.8211801932 433.570192857 -26.4321649984 318.624719501 -26.4321649984 c 0
 142.72511213 -26.4321649984 64.3306036151 109.122338245 47.29 259.188 c 0
 44.443055433 292.68375407 41.1670084065 329.302835501 41.1670084065 365.508355871 c 0
 41.1670084065 397.236244165 43.6828475807 428.646538385 51.208 457.359 c 0
 84.3535 583.833 178.428 688.775 325.739 688.775 c 0
328.933294718 593.927471454 m 0
 201.693339868 591.849226739 133.734629463 468.153744405 134.18089115 337.933574529 c 0
 134.18089115 237.801677273 172.463357302 139.439094378 230.239 92.9971 c 0
 253.494937676 73.6373929795 283.273902315 64.3869741196 313.101935602 64.3869741196 c 0
 450.105831896 74.2805221843 487.615659758 201.452915105 492.717859895 341.697633044 c 0
 492.717859895 389.070392743 486.238011747 437.355369662 472.935 481.504 c 0
 453.968328809 544.44633926 398.773946166 593.927471454 328.933294718 593.927471454 c 0
EndSplineSet
EndChar

StartChar: P
Encoding: 80 80 48
Width: 471
VWidth: -53
Flags: HMW
LayerCount: 2
Fore
SplineSet
44.6685753775 433.438920894 m 0
 44.1009887289 481.256757184 47.6036645238 528.786940688 51.0810640766 576.059263643 c 0
 51.0810640766 606.524943213 43.9866830664 636.102585046 44.7012 666.439 c 1
 54.9541 704.831 109.866 699.473 141.7 710.347 c 1
 150.657899635 710.748515961 159.415996536 710.953440955 167.977408099 710.953440955 c 0
 272.767564892 710.953440955 348.091651696 680.252961266 399.666 603.57 c 0
 418.970347565 574.867733544 427.349759133 541.826952275 427.349759133 508.392559806 c 0
 426.964708694 386.721002072 340.553882352 321.992230124 248.804 295.392 c 0
 215.248 284.365 177.349 291.986 147.544 271.128 c 1
 140.015 190.967 150.495 96.6436 135.417 17.1074 c 1
 135.911542404 -6.89493891397 118.757454704 -31.5301916403 94.7267828103 -31.5301916403 c 0
 54.5440277522 -30.1538071933 52.9343147626 13.7091182582 50.8359 42.3701 c 0
 47.8928572471 69.3630315491 47.1079282865 99.1158085914 47.1079282865 129.090610113 c 0
 47.1079282865 163.358524022 48.1338 197.916615315 48.1338 228.973 c 0
 48.1338 296.809714376 44.6685753775 365.283552222 44.6685753775 433.438920894 c 0
339.056096395 510.070408477 m 0
 339.056096395 581.282809668 268.542658702 609.815377709 205.033249587 605.772854729 c 0
 197.333991401 605.772854729 188.72739777 606.784386405 180.40061598 606.784386405 c 0
 167.910183989 606.784386405 156.049354781 604.508345631 148.825 593.128 c 1
 144.78021482 557.591673065 141.768262655 521.828738506 141.768262655 486.045376652 c 0
 141.768262655 476.804271693 142.318593807 467.627832729 142.318593807 458.342911953 c 0
 142.318593807 450.549041106 141.674444433 441.537705782 141.674444433 432.587614757 c 0
 141.674444433 412.813931904 144.81862018 393.339190333 165 387.953 c 0
 175.81861101 385.065651699 187.129338854 383.672398006 198.548888181 383.672398006 c 0
 269.002889335 382.401747337 339.056096395 438.314154013 339.056096395 510.070408477 c 0
EndSplineSet
EndChar

StartChar: Q
Encoding: 81 81 49
Width: 773
VWidth: -53
Flags: HMW
LayerCount: 2
Fore
SplineSet
726.186020957 26.5363199549 m 0
 728.354323598 -0.596367523636 711.639079817 -19.7676409046 688.629 -20.3311 c 0
 655.895 -20.3311 628.755 -0.838867 604.406 18.832 c 1
 593.239584525 34.2190330915 572.648416879 44.424585611 550.833985046 44.424585611 c 0
 536.522905129 44.424585611 521.685350805 40.0322701528 508.637 29.8291 c 0
 466.769194099 -2.90870671285 405.463173619 -32.3808896713 339.883084509 -32.3808896713 c 0
 309.10065843 -32.3808896713 277.37655272 -25.8874622588 246.279 -10.1904 c 0
 131.933434133 48.2135763488 43.3605125541 148.885997594 46.9999696531 320.538351973 c 0
 46.9999696531 407.975843713 70.9435293185 495.042192835 122.546 565.26 c 0
 174.673 636.191 261.291 709.647 374.518 709.647 c 0
 527.147 709.647 587.123 578.723 616.682 470.246 c 0
 628.10520191 428.321639026 635.589799505 384.31537135 635.589799505 340.421174055 c 0
 639.863166039 280.433364832 611.058694417 230.755105306 606.716248991 179.738398796 c 0
 606.716248991 173.730353728 607.311126288 167.680377442 608.687 161.582 c 1
 640.288628705 112.335562197 726.186020957 98.9020316318 726.186020957 26.5363199549 c 0
497.473627371 241.092098978 m 1
 534.192255924 247.391773354 536.612123798 300.771025795 536.64738173 341.552307962 c 0
 536.64738173 472.110045716 486.673134418 596.912590779 373.814576295 596.912590779 c 0
 284.837971288 593.472930884 233.553478577 543.890429711 192.169 484.192 c 0
 159.463774268 433.19337423 142.584851524 372.260970012 142.584851524 311.185950414 c 0
 142.584851524 281.016024724 146.703606687 250.811298363 155.068 221.752 c 0
 171.897 163.284 223.16 126.438 271.057 97.0986 c 0
 292.461733686 83.9866072363 318.118645381 76.3281534016 343.361432596 76.3281534016 c 0
 364.655343333 76.3281534016 385.654562883 81.7779129922 403.558 94.001 c 1
 421.098443422 98.3442077609 435.14945339 118.604732654 435.14945339 137.789480351 c 0
 435.14945339 148.592994622 430.693655765 159.05536292 419.896 166.142 c 0
 401.122552335 178.462800124 387.588846705 203.472761177 387.588846705 225.166337554 c 0
 386.871210338 244.979696786 400.690626416 262.87862501 427.353474483 263.754223864 c 0
 451.883028628 263.9676525 471.686268705 243.988550061 497.473627371 241.092098978 c 1
EndSplineSet
EndChar

StartChar: R
Encoding: 82 82 50
Width: 547
VWidth: -51
Flags: HMW
LayerCount: 2
Fore
SplineSet
514.069 -10.2285 m 0
 513.275884705 -31.1569603753 492.978965314 -47.2365147594 467.346545794 -45.4886241396 c 0
 433.987545642 -45.4886241396 394.287010523 -27.1193596703 385.319 -3.50098 c 1
 382.710471842 19.7440973181 216.239886856 230.973104616 177.772093453 230.973104616 c 0
 154.378308734 230.973104616 148.045134024 187.688902619 144.956 97.127 c 0
 138.888273208 -20.9878847635 141.736419045 -41.1976754085 103.675885083 -44.132307874 c 0
 88.1089866386 -44.132307874 70.372930848 -36.7828252709 61.833 -26.1924 c 1
 48.2422077842 -26.5316852589 42.8752862811 154.1096283 42.9995774392 354.444892018 c 0
 42.9995774392 514.863277759 47.1909593726 648.256373553 52.7539 657.514 c 0
 57.3007813448 665.085406906 68.3599013562 668.973880731 84.4568748276 668.973880731 c 0
 102.621946207 669.264666653 125.470029209 662.016374579 145.340595057 662.949280718 c 0
 194.030864739 664.275179775 194.497323526 680.877915825 255.086657398 678.374402154 c 0
 334.599035993 676.696213649 391.229685187 667.234502169 426.649 627.111 c 0
 461.362 593.74 470.145 572.681 470.145 522.798 c 0
 470.145 445.344 443.062 389.726 375.717 328.883 c 0
 347.157721871 303.080887049 323.835864604 273.306830592 323.835864604 262.657324768 c 0
 323.868439689 251.993166267 366.715226055 186.326773767 419.01 125.845 c 0
 471.293 65.3818 514.069 2.07422 514.069 -10.2285 c 0
133.081162686 417.562591945 m 0
 133.081162686 374.353459929 126.917405284 346.330879287 165.611943514 346.728334897 c 0
 194.309661391 346.728334897 242.82040518 359.756224079 282.302 380.508 c 0
 314.306679055 396.844862561 372.703005724 458.290445124 379.141595045 499.549868878 c 0
 379.141595045 509.711864793 374.535981871 519.934211887 366.044 535.57 c 0
 348.598 567.689 332.382 575.614 276.5 579.349 c 0
 260.848290455 580.393758496 246.877572105 581.186547112 234.373620208 581.186547112 c 0
 143.886132266 588.614644492 133.081162686 503.281139486 133.081162686 417.562591945 c 0
EndSplineSet
EndChar

StartChar: S
Encoding: 83 83 51
Width: 497
VWidth: -51
Flags: HMW
LayerCount: 2
Fore
SplineSet
251.034 57.4316 m 0
 317.181132806 55.4683074011 351.786727787 98.2185283701 355.724262288 168.515637499 c 0
 355.724262288 191.120547352 345.414497969 205.536619418 316.497 232.551 c 0
 259.780562182 288.704646133 113.393982889 343.545868044 66.0117 408.844 c 0
 45.2602812051 436.052721659 36.3251811779 449.174803853 36.3251811779 467.12229455 c 0
 42.0531577327 524.773123708 78.4158035845 589.761195673 114.014 623.408 c 0
 162.343943488 667.846716221 230.396988819 692.148139067 294.103243724 692.148139067 c 0
 327.989074677 692.148139067 360.645087668 685.272646259 388.449 670.895 c 0
 426.397575384 651.270632832 445.264935213 614.811186265 445.264935213 583.037812867 c 0
 445.264935213 550.734570962 425.763045398 523.275 386.984 523.275 c 0
 362.145 523.275 349.839 533.771 343.648 560.247 c 0
 338.493819108 592.935520794 314.744465618 601.341530769 272.793271651 602.649195287 c 0
 242.921178465 602.649195287 223.272174049 590.800913159 186.63 554.157 c 0
 159.110592601 526.64041578 138.899986446 494.517860972 138.899986446 478.960096519 c 0
 138.899986446 452.445658859 279.012783627 364.509946161 382.057 318.062 c 0
 418.255 301.744 431.506 283.246 444.797 230.453 c 0
 451.147386885 205.236435139 454.749490435 172.73586331 454.749490435 146.039335403 c 0
 454.749490435 133.769715005 453.988623199 122.726074591 452.384 114.179 c 0
 442.611 62.1553 389.411 -8.13965 350.958 -21.4414 c 0
 321.003525236 -31.8034269826 282.952148438 -44.7392578125 221.150390625 -44.7392578125 c 0
 207.775390625 -44.7392578125 192.817382812 -39.83203125 177.53125 -35.3173828125 c 0
 128.728515625 -20.90234375 33 63.4629 33 110.271 c 0
 33 137.565710863 46.0382721084 152.005066706 64.2511164248 152.005066706 c 0
 78.1464655253 152.005066706 95.0538344482 143.600192975 111.481 126.087 c 0
 155.237 79.4395 199.971 57.4316 251.034 57.4316 c 0
EndSplineSet
EndChar

StartChar: T
Encoding: 84 84 52
Width: 603
VWidth: -53
Flags: HMW
LayerCount: 2
Fore
SplineSet
189.623 552.355 m 0
 165.456620585 552.226960425 148.971607381 550.450031968 140.368928768 550.098360812 c 0
 122.100318113 550.098360812 103.660051001 558.962713542 83.5625 563.192 c 0
 49.3793804366 568.570400236 32.7382684701 587.793915625 31.0003849716 625.080526804 c 0
 31.0003849716 637.481557614 35.57359876 645.393181928 44.6426 650.999 c 0
 61.2509507957 661.261658886 164.884703217 675.630733713 325.094859682 675.630733713 c 0
 355.733478475 675.541181563 406.684911744 675.630004314 467.536 668.586 c 0
 546.222933573 656.320597292 568.245022803 654.94754031 568.245022803 622.788239907 c 0
 568.245022803 579.14174954 546.212351039 561.206216854 487.812455452 562.869694219 c 0
 469.744806576 562.606262664 439.380590839 565.464806966 422.194755555 565.327627696 c 0
 375.473191267 565.327627696 371.096729305 552.121550045 356.611 490.643 c 0
 345.98449107 445.543278247 343.540194978 360.549555229 343.540194978 284.598199278 c 0
 343.540194978 219.878485117 346.547044101 161.440729295 352.16 138.838 c 1
 364.818028287 115.184750359 371.186442578 81.2760810464 371.186442578 49.8556751926 c 0
 374.948063693 -2.81879287058 348.2474875 -41.3182176056 313.954 -48.5254 c 0
 304.371 -48.5254 286.506 -36.9951 274.257 -22.9014 c 0
 259.85264644 -6.33574442249 254.800689577 28.1995612798 254.800689577 155.021107318 c 0
 254.559888105 219.947571323 257.38895854 362.275136159 257.211843538 425.905728029 c 0
 257.211843538 538.257339766 252.431927012 546.750146801 239.217 551.822 c 0
 235.065899695 553.415201436 228.71801491 553.9229004 221.835729227 553.9229004 c 0
 209.741204877 553.9229004 195.996317923 552.355 189.623 552.355 c 0
EndSplineSet
EndChar

StartChar: U
Encoding: 85 85 53
Width: 571
VWidth: -54
Flags: HMW
LayerCount: 2
Fore
SplineSet
141.741953422 608.667491746 m 0
 142.668532932 564.152091094 130.082942913 408.062635299 131.049390885 354.392016749 c 0
 131.049390885 298.909296464 136.464972377 263.600472301 150.279 220.215 c 0
 181.141 123.288 176.588 109.408 255.964 76.3027 c 0
 276.8962127 67.5570480438 291.209734241 63.2670415814 303.593955756 63.2670415814 c 0
 353.881526397 68.7736064225 369.397277435 106.102673969 395.683 157.285 c 0
 424.123787023 212.66356646 425.991 255.745 428.001 457.45 c 0
 433.627584511 693.140622895 429.603747117 696.998516044 475.010879735 696.998516044 c 0
 511.851144733 696.998516044 526.148244946 652.306570326 526.148244946 525.24426896 c 0
 526.148244946 498.961129017 525.536501927 469.153533814 524.386 435.488 c 0
 516.366 200.642 491.047 92.7832 425.379 13.7373 c 0
 382.949648788 -37.335421594 368.744351997 -46.3409710744 322.636413724 -46.3409710744 c 0
 224.824358618 -45.2049486993 225.271649205 -35.4971628056 160.566 12.8164 c 0
 125.342 38.5177 95.1465 84.2949 72.7129 138.811 c 0
 41.1887423656 215.424980646 37.9999485804 331.96996621 37.9999485804 455.932703581 c 0
 37.9999485804 484.565973858 42.1178524617 651.862593959 63.54 674.676 c 0
 72.4322134726 684.145066396 80.939027978 689.914271727 90.9638860582 689.914271727 c 0
 100.668877508 689.914271727 111.796584534 684.507352968 126.074 671.816 c 0
 136.944718974 662.15313869 141.741953422 651.059076727 141.741953422 608.667491746 c 0
EndSplineSet
EndChar

StartChar: V
Encoding: 86 86 54
Width: 583
VWidth: -49
Flags: HMW
LayerCount: 2
Fore
SplineSet
45.9998198385 589.994930259 m 0
 46.2963566783 630.137295459 64.9274706038 677.100410323 97.1842471076 682.48396973 c 0
 103.912392058 682.48396973 111.12591297 679.516072608 118.693 672.429 c 1
 176.977 520.912 189.036 355.556 249.836 204.962 c 0
 256.618457974 188.164561027 264.551529482 150.375231291 284.945616188 150.375231291 c 0
 288.645717371 150.375231291 292.755996309 151.619138164 297.344 154.458 c 1
 331.375 239.634 362.456 325.979 391.713 412.922 c 0
 414.705 481.247 422.896 552.74 439.239 622.507 c 0
 446.582 653.846 460.845 690.603 495.9 698.066 c 1
 522.449 698.199 537.559 668.844 537.559 645.445 c 0
 537.559 596.881 517.438 550.812 509.904 503.084 c 0
 489.867 376.119 425.899 237.166 389.569 100.091 c 0
 378.903 59.8467 359.107 20.7969 332.413 -11.752 c 0
 318.780613685 -28.824818346 298.075810942 -36.8722764432 277.233079319 -36.8722764432 c 0
 249.506834083 -36.8722764432 221.536511173 -22.6315687708 209.646 3.54785 c 0
 193.867 38.2891 188.339 76.7637 176.23 112.979 c 0
 134.308 238.378 108.511 368.664 67.1348 494.111 c 0
 56.893177316 525.163936366 45.9998198385 557.27865944 45.9998198385 589.994930259 c 0
EndSplineSet
EndChar

StartChar: W
Encoding: 87 87 55
Width: 695
VWidth: -49
Flags: HMW
LayerCount: 2
Fore
SplineSet
31.9999009574 586.116184033 m 0
 34.2683262546 637.979548525 39.8942047971 666.733017964 77.5796155872 664.044824797 c 0
 126.082233922 664.044824797 149.95969373 597.350004198 162.657 438.854 c 0
 176.20608452 269.692408134 190.534034385 179.407096599 203.825325499 179.407096599 c 0
 221.518057541 179.407096599 277.716026908 378.301877947 287.317 473.173 c 0
 293.041 529.694 307.889 587.844 323.205 608.15 c 4
 336.451386153 625.709050318 344.591517967 633.584572008 353.143942393 633.584572008 c 0
 358.707190957 633.584572008 364.44489475 630.252167062 371.876 624.085 c 4
 399.771 600.934 425.227 478.606 432.999 335.842 c 0
 440.026872844 206.748984973 461.094880571 165.674849012 477.695121216 165.674849012 c 0
 487.462529847 165.674849012 495.683187246 179.894809294 498.587 198.772 c 0
 544.304 495.94 565.327 641.646 588.043 655.965 c 4
 596.525316724 661.309270634 608.591620312 664.25967479 619.613173275 664.25967479 c 0
 650.19607857 665.568292257 657.638564998 638.146730875 659.41559862 607.975212348 c 0
 659.41559862 591.713395136 655.325638623 575.763784225 646.468 566.371 c 0
 639.253 558.721 625.241 496.454 615.332 428.001 c 0
 569.513039439 138.310803839 573.089525743 114.546331059 533.195 3.89551 c 0
 522.018028352 -32.8728708189 506.314313156 -44.2120444904 468.34336992 -45.4268414792 c 0
 443.797521503 -45.4268414792 433.765218322 -32.1655966908 409.8 20.4453 c 0
 392.361 58.7197 373.349 117.17 367.547 159.911 c 0
 358.675804537 225.293738897 348.693985801 262.315250424 336.168758215 262.315250424 c 0
 333.935410759 262.315250424 331.621198876 261.138198876 329.218 258.735 c 0
 324.685 254.205 299.975 183.609 274.309 104.252 c 0
 231.012404995 -20.1613097337 227.502837479 -42.1485455324 187.903293818 -45.182189729 c 0
 167.482868918 -45.182189729 154.021809676 -31.0427552856 133.229 9.71582 c 0
 114.264 46.8906 103.18 89.0244 103.18 137.354 c 0
 103.18 225.964 81.3545 359.7 49.7734 464.607 c 0
 39.2443287193 499.57970587 31.9999009574 551.866490072 31.9999009574 586.116184033 c 0
EndSplineSet
EndChar

StartChar: X
Encoding: 88 88 56
Width: 537
VWidth: -51
Flags: HMW
LayerCount: 2
Fore
SplineSet
75.28881485 -51.3894301111 m 0
 52.1157524459 -49.6592281076 32.575201319 -38.5479144308 33.9996919175 -12.7516658363 c 0
 40.8794630875 71.6443094101 131.099432639 171.033654302 169.273 258.2 c 1
 211.215 340.439 l 1
 149.299 461.812 l 1
 111.763424767 541.133493928 82.4884389786 600.627213286 82.4884389786 648.965417645 c 0
 82.4884389786 678.182311463 102.405281715 680.115287942 132.321105395 682.092697415 c 0
 154.40850978 682.092697415 164.575639203 671.996702199 179.785 638.541 c 0
 208.912470344 578.2238341 207.947074799 526.603799109 246.285 478.506 c 0
 256.249086099 466.348452789 262.544854748 458.799716463 269.454204213 458.799716463 c 0
 281.312410688 458.799716463 294.977938891 481.034758433 332.097 540.367 c 0
 364.408 592.013 405.383 648.427 423.156 664.531 c 0
 439.254387656 679.118174377 447.406639904 686.339467332 454.17921429 686.339467332 c 0
 472.987368762 681.361134806 498.440652696 632.090777736 497.239253038 609.397634714 c 0
 497.239253038 593.858357757 472.26777 549.606162772 441.665 512.142 c 0
 411.006 474.602 371.048 414.632 352.861 381.271 c 0
 338.482450809 354.89104607 330.357082818 339.612938069 330.357082818 322.521622317 c 0
 330.357082818 300.313209434 344.07622919 275.043315206 375.622 218.377 c 0
 406.327 163.226 447.016 97.2178 466.042 71.6924 c 0
 485.100795895 46.1233430002 500.730529516 15.1975543866 500.766303996 2.7526485872 c 0
 500.856239187 -15.2255831885 475.550093234 -40.8473817849 451.422439579 -40.9719405874 c 0
 438.984387309 -40.9719405874 425.974372953 -34.2837383781 407.286 -19.7607 c 0
 386.197 -3.36914 373.411 28.1748 368.781 37.3994 c 0
 364.655 45.6201 325.734999011 114.432543067 309.164 147.559 c 0
 291.610440322 182.649656775 273.09256388 212.306049766 265.614909 212.306049766 c 0
 246.506228567 212.249809272 167.508838918 95.1053355782 133.958 15.5518 c 0
 113.485265211 -32.9845947084 97.5341966458 -51.3894301111 75.28881485 -51.3894301111 c 0
EndSplineSet
EndChar

StartChar: Y
Encoding: 89 89 57
Width: 568
VWidth: -55
Flags: HMW
LayerCount: 2
Fore
SplineSet
30.9999701178 659.135556653 m 0
 30.4784440498 687.605608923 46.7666015625 709.077148438 73.8984375 711.81640625 c 0
 87.1943359375 711.81640625 107.337080978 706.945231835 127.564453125 680.583984375 c 0
 147.569335938 654.512695312 158.569335938 636.512695312 175.793945312 594.013671875 c 0
 185.528398764 569.995433993 186.319 543.605 196.896 523.248 c 0
 219.236 478.961 250.048 419.688 266.936 419.688 c 0
 276.055 419.688 313.739 478.159 354.734 546.315 c 0
 396.054 614.456 433.75 683.609375 447.961914062 696.525390625 c 0
 480.166992188 731.077148438 521.798828125 709.314453125 525.13671875 654.997070312 c 0
 525.13671875 631.317382812 510.430664062 602.713867188 455.038085938 534.73046875 c 0
 410.278320312 478.62109375 373.111 411.341 363.749 386.432 c 0
 353.479950868 359.451715122 323.682617188 307.3671875 323.682617188 187.290039062 c 0
 324.481445312 133.676757812 323.326171875 72.8544921875 323.0859375 42.86328125 c 0
 321.83203125 -38.55078125 319.219726562 -37.9853515625 294.59375 -40.8623046875 c 0
 279.823242188 -40.8623046875 259.370117188 -31.087890625 247.775390625 -17.4365234375 c 0
 231.793945312 0.9248046875 227.048828125 35.5126953125 226.616210938 96.6875 c 0
 225.712890625 222.708007812 214.24 282.55 189.619 315.789 c 0
 173.722 337.252 162.394 360.509 161.044 369.915 c 0
 159.303 382.19 130.122 447.253 95.6934 502.462 c 0
 52.4492085501 571.229623682 30.9999701178 623.44930833 30.9999701178 659.135556653 c 0
EndSplineSet
EndChar

StartChar: Z
Encoding: 90 90 58
Width: 605
VWidth: -49
Flags: HMW
LayerCount: 2
Fore
SplineSet
146.41015625 566.485351562 m 0
 146.183942726 566.466712246 145.67899247 566.458290977 144.94905665 566.458290977 c 0
 138.106829979 566.458290977 111.495807533 567.198242188 109.387695312 567.198242188 c 0
 66.90625 567.198242188 33.64654123 595.284500618 30.999592362 623.122288043 c 0
 30.999592362 636.191919602 39.3792336873 649.916941372 56.07421875 665.025390625 c 0
 77.568359375 684.4765625 119.203125 689.381835938 275.86328125 690.921875 c 0
 289.907121722 691.06001883 303.198538193 691.129890326 315.758758556 691.129890326 c 0
 423.420684037 691.129890326 477.359191097 685.996198289 490.943359375 674.721679688 c 0
 505.440804922 662.689963917 512.548848352 645.469421782 512.548848352 621.324426268 c 0
 512.548848352 523.729783175 355.329495487 267.247795907 312.932617188 199.35546875 c 0
 287.667782884 162.324780065 267.92738759 116.677749983 267.92738759 103.833797192 c 0
 267.92738759 91.0558618594 328.806854298 94.4792485303 404.09375 90.2607421875 c 0
 475.936523438 86.234375 542.94921875 76.62890625 553.018554688 70.1123046875 c 0
 565.316506942 62.1528584217 571.108209107 45.3486595459 571.108209107 28.3870152492 c 0
 571.108209107 7.32972732402 562.181832856 -13.9702210532 545.696289062 -18.890625 c 0
 526.233006966 -24.6998143802 430.453224849 -27.4616907653 330.645779735 -27.4616907653 c 0
 209.969842561 -27.4616907653 83.4058944471 -23.424123971 78.728515625 -15.853515625 c 0
 75.824061167 -11.1534492002 74.4443119914 -4.97758584614 74.4443119914 2.29443339389 c 0
 74.4443119914 31.4832303637 96.6734435496 78.3321889255 131.7578125 118.291015625 c 0
 219.455078125 218.172851562 380.971679688 506.31640625 380.971679688 562.396484375 c 0
 380.971679688 575.321289062 373.520507812 581.54296875 343.573242188 581.54296875 c 0
 341.987304688 581.7421875 339.932617188 581.8359375 337.463867188 581.8359375 c 0
 300.045898438 581.8359375 191.26953125 566.391601562 146.41015625 566.485351562 c 0
EndSplineSet
EndChar

StartChar: bracketleft
Encoding: 91 91 59
Width: 441
VWidth: -51
Flags: HMW
LayerCount: 2
Fore
SplineSet
76.189940481 28.8542866398 m 0
 76.2920026342 112.925036696 65.5954114211 365.010777102 66.8657347129 473.767417705 c 0
 66.8657347129 505.929554582 67.2375644387 532.316250937 68.0186 548.735 c 0
 73.6221 666.403 93.7373 681.978 246.911 687.206 c 0
 268.206518231 687.933949909 286.039579908 688.348831913 301.104138939 688.348831913 c 0
 356.731990243 688.348831913 374.609866731 682.691699812 389.679 666.251 c 0
 400.377892125 654.577323693 407.560489837 634.710695774 407.560489837 618.579391395 c 0
 404.611730312 589.36079691 400.023618808 582.439416327 353.277120032 582.136565444 c 0
 336.84004021 581.904948393 306.446626298 583.926695233 286.358098174 583.911537118 c 0
 161.860091162 585.79980463 162.666274823 531.662523421 165.251182494 420.745407306 c 0
 165.251182494 284.564738605 174.970239261 84.9959064141 184.478 72.207 c 0
 192.67 61.1875 232.948 51.6855 280.863 49.4688 c 0
 382.136106139 41.8004475082 398.967909367 38.643625833 399.494577732 -20.0980844128 c 0
 399.494577732 -46.3027667035 388.493140878 -53.9394737492 338.999557375 -53.9394737492 c 0
 274.950145755 -54.3304946528 127.807988365 -42.213808614 107.054 -30.2236 c 0
 87.5095535608 -21.3624327559 75.9997254652 -4.24145958167 75.9997254652 15.7483005894 c 0
 75.9997254652 19.7721719783 76.189940481 22.4709719327 76.189940481 28.8542866398 c 0
EndSplineSet
EndChar

StartChar: backslash
Encoding: 92 92 60
Width: 482
VWidth: -47
Flags: HMW
LayerCount: 2
Fore
SplineSet
49.9421002031 613.512449477 m 0
 49.3667659652 634.838265213 73.5599881427 650.075852849 92.1925499299 650.237536256 c 0
 95.5451244929 650.237536256 98.6941229676 649.728530083 101.443 648.653 c 0
 132.519 636.492 178.531 558.784 222.958 443.445 c 0
 269.741 321.982 355.488 154.074 403.124 90.6484 c 0
 421.975 65.5508 437.155 24.7305 437.155 -0.865234 c 0
 437.155 -40.3271 431.837 -47.0713 400.73 -47.0713 c 0
 374.193 -47.0713 354.328 -31.2559 327.519 11.207 c 0
 307.287 43.2607 290.733 74.4707 290.733 80.5645 c 0
 268.658182601 142.452070066 104.383782602 467.977696427 78.9707 529.927 c 0
 58.8442171043 574.720802535 49.9421002031 598.153444765 49.9421002031 613.512449477 c 0
EndSplineSet
EndChar

StartChar: bracketright
Encoding: 93 93 61
Width: 441
VWidth: -51
Flags: HMW
LayerCount: 2
Fore
SplineSet
184.875380811 585.296797569 m 0
 167.173657901 585.744716856 143.857975548 581.840812055 127.623530898 582.039328772 c 0
 98.7416361869 582.039328772 84.6813578702 590.104452727 63.96 613.024 c 0
 48.4879315501 630.141630152 40.492295615 638.987657378 40.492295615 646.154831141 c 0
 40.492295615 653.819731744 49.6370111087 659.56450524 68.5615 671.453 c 0
 86.8610048364 682.947275714 104.760058731 688.142631348 138.258111857 688.142631348 c 0
 182.912506023 689.552251175 349.594985007 669.080436939 351.008 657.42 c 1
 357.407276598 646.606930182 366.018990392 306.801563773 366.018990392 76.2160707708 c 0
 366.018990392 67.7943022875 366.007502715 59.5182286889 365.984 51.4092 c 0
 365.747697315 -31.3102023054 365.733860602 -36.1538403042 316.854384616 -36.1538403042 c 0
 264.313797838 -34.0298007126 202.845575024 -44.8515314689 154.072377387 -48.7683678602 c 0
 113.038211402 -51.428397623 69.0247669739 -16.5608887394 68.9571548278 18.5026567624 c 0
 73.4533853345 59.1092146923 77.0789784803 39.1503957361 175.404 50.3262 c 1
 267.137 59.4229 l 1
 268.856 216.767 l 2
 269.109944354 240.032186593 269.231459084 261.765471949 269.231459084 282.071134467 c 0
 269.231459084 532.593619403 250.735024588 565.809672774 234.24 577.551 c 0
 227.35941731 582.450054534 207.632791185 585.296797569 184.875380811 585.296797569 c 0
EndSplineSet
EndChar

StartChar: asciicircum
Encoding: 94 94 62
Width: 490
VWidth: -96
Flags: HMW
LayerCount: 2
Fore
SplineSet
118.488248157 343.391324468 m 0
 92.0817552012 343.149581206 58.7280831816 365.24563269 56.9840944402 390.928624603 c 0
 56.9840944402 398.593230582 60.5487271322 406.870648776 67.625 418.205 c 0
 77.5742 434.144 109.257 491.262 138.028 545.138 c 0
 190.055 642.548 240.261 705.326 261.859 705.326 c 0
 274.22 705.326 353.151 589.597 402.232 496.675 c 0
 419.19367777 464.557181311 433.01637995 413.703912683 433.01637995 383.469876803 c 0
 432.94899541 334.897487517 428.717777336 328.286 396.979 328.286 c 0
 369.289 328.286 355.927 340.83 338.482 383.196 c 0
 294.397 490.237 271.225 533.281 257.677 533.281 c 0
 241.698 533.281 201.52 443.102 201.52 407.244 c 0
 201.453346637 376.202452235 159.563717595 343.719651724 118.488248157 343.391324468 c 0
EndSplineSet
EndChar

StartChar: underscore
Encoding: 95 95 63
Width: 441
VWidth: 7
Flags: HMW
LayerCount: 2
Fore
SplineSet
69.3884287746 -123.298941432 m 0
 26.7069812248 -123.849653714 -19.799571601 -103.76266054 -18.3460878827 -70.1979366942 c 0
 -18.3460878827 -57.2123675529 -13.1853149393 -40.0787062599 -0.475586 -26.2822 c 0
 30.1006 6.89941 10.9072 7.67969 233.054 7.83105 c 0
 250.645421903 7.84311304442 266.844490489 7.85769960819 281.764788642 7.85769960819 c 0
 461.316001739 7.85769960819 455.678605518 5.74530680659 462.798 -28.2979 c 0
 464.389195001 -35.9061444373 465.169973056 -42.940753314 465.169973056 -49.4384588559 c 0
 467.998896957 -108.255177422 395.687700282 -122.808582469 300.237387553 -121.333121764 c 0
 238.057779982 -121.333121764 180.717636259 -120.255605888 143.900847349 -120.255605888 c 0
 111.420464059 -119.532130441 96.7806514696 -123.011685879 69.3884287746 -123.298941432 c 0
EndSplineSet
EndChar

StartChar: grave
Encoding: 96 96 64
Width: 352
VWidth: -99
Flags: HMW
LayerCount: 2
Fore
SplineSet
143.842523119 690.800685519 m 1
 178.345410584 699.517371512 241.008828907 448.44981835 244.861 424.164 c 0
 244.861 414.513 232.127 406.617 216.563 406.617 c 0
 199.94 406.617 184.145 420.205 178.276 439.561 c 0
 172.784 457.681 155.312 486.694 139.463 504.034 c 0
 117.083849251 530.071820475 93.6665686659 584.006961986 92.2584693086 632.098466715 c 0
 89.7442557088 662.10977518 118.803236411 689.782911398 143.842523119 690.800685519 c 1
EndSplineSet
EndChar

StartChar: a
Encoding: 97 97 65
Width: 504
VWidth: -25
Flags: HMW
LayerCount: 2
Fore
SplineSet
468.506172136 10.1592107108 m 0
 461.479489947 -70.492572453 366.67973849 6.62590815407 326.164595231 9.05411843444 c 0
 318.196627853 9.05411843444 312.165596684 6.27533078846 306.753 0.863281 c 0
 297.498 -8.39355 261.582 -15.9668 226.943 -15.9668 c 0
 172.609 -15.9668 156.095 -7.85449 106.608 43.1338 c 0
 58.2823231298 92.9342581088 34.0004859401 143.767450481 34.0004859401 202.793387358 c 0
 34.0004859401 219.96022612 36.0543723481 237.820050609 40.168 256.549 c 0
 51.5195 308.245 123.887 407.006 162.059 422.901 c 0
 185.41483386 432.62630122 214.436666978 437.858731919 237.584193395 437.858731919 c 0
 277.099202098 440.474494222 289.981615451 408.781893027 324.108071622 412.40571527 c 0
 340.74568525 412.40571527 355.94516029 417.870963872 364.475 428.869 c 0
 372.109714774 438.716194074 378.546113801 443.455246213 386.389074652 443.455246213 c 0
 392.473924645 443.455246213 399.405414056 440.602710142 408.4 435.07 c 0
 425.711210734 424.415989637 431.559735814 410.782624788 431.559735814 344.310803368 c 0
 431.897619939 303.332326375 427.318765159 200.52119415 427.619891006 157.829612884 c 0
 427.619891006 91.2165380911 433.29268237 75.1798871084 449.075 57.7383 c 0
 462.178964539 43.2602458143 468.506172136 25.6085763904 468.506172136 10.1592107108 c 0
237.196289062 343.229492188 m 0
 184.419921875 349.365234375 129.146484375 273.323242188 128.5078125 206.83203125 c 0
 124.0625 143.580078125 187.662109375 85.1943359375 254.044921875 78.388671875 c 0
 288.374023438 72.2646484375 319.303710938 134.291015625 317.545898438 193.43359375 c 0
 317.545898438 224.759765625 314.337890625 259.661132812 314.337890625 269.30078125 c 0
 314.369140625 316.063476562 308.307617188 323.036132812 274.5703125 335.86328125 c 0
 261.608398438 340.791015625 249.116210938 343.229492188 237.196289062 343.229492188 c 0
EndSplineSet
EndChar

StartChar: b
Encoding: 98 98 66
Width: 460
VWidth: -51
Flags: HMW
LayerCount: 2
Fore
SplineSet
150.27329159 376.779794493 m 0
 174.414631072 374.681613159 212.463104743 414.971480233 238.058714017 410.29549179 c 0
 251.956071478 410.29549179 269.017600805 406.416320205 295.363 399.041 c 0
 349.416 383.904 367.115 370.021 390.303 324.574 c 0
 408.598530676 288.7125552 418.006480347 240.29461779 418.006480347 194.56924866 c 0
 418.500069376 100.919499125 382.498477252 64.8894017789 332.669 12.624 c 0
 294.796395194 -27.954082551 261.511621737 -31.7953886235 174.119405307 -33.3685668987 c 0
 127.996081206 -33.3685668987 86.2494864197 -27.8051775123 75.793 -19.748 c 0
 58.8008 -6.66016 52.4268 64.8818 44.3066 333.651 c 0
 40.928043888 445.452690592 38.9998615756 524.690722669 38.9998615756 581.047327386 c 0
 38.9998615756 676.705072315 44.5550491846 706.440305184 58.002 717.601 c 0
 67.4560554582 725.446594176 74.5121872344 729.485735032 82.5173826344 729.485735032 c 0
 91.6447629128 729.485735032 102.005940288 724.234790696 118.562 713.388 c 0
 143.360123805 697.139533375 154.257199455 679.293940653 154.257199455 634.958625778 c 0
 156.779524293 594.527332688 132.184340609 471.541606409 133.516056599 416.042980203 c 0
 135.508649567 389.134411848 131.400765955 378.10496394 150.27329159 376.779794493 c 0
149.905684266 133.379359776 m 0
 152.804286469 95.0461999862 152.884619086 65.1130795344 188.682604573 64.5279937392 c 0
 249.131866998 66.753833488 335.361368386 119.263077455 335.361368386 196.767361603 c 0
 335.361368386 259.416633472 297.69649599 308.552279388 255.430055394 308.607810932 c 0
 183.610860101 306.450372479 150.568659831 204.7377827 149.905684266 133.379359776 c 0
EndSplineSet
EndChar

StartChar: c
Encoding: 99 99 67
Width: 440
VWidth: -25
Flags: HMW
LayerCount: 2
Fore
SplineSet
336.704075271 322.719971265 m 0
 310.757996394 322.665942911 298.243279209 348.955538118 269.58528576 348.955538118 c 0
 241.426258808 348.955538118 207.99889863 332.66155842 178.884 301.492 c 0
 146.915078852 267.27000463 132.186544823 226.787492074 132.186544823 188.975973333 c 0
 132.186544823 121.667212978 178.858335444 62.8223 258.033 62.8223 c 0
 294.3 62.8223 320.324 71.0312 325.941 85.6641 c 0
 330.761 98.2275 351.646 108.507 372.356 108.507 c 0
 395.902292141 108.507 404.436889251 106.552118819 404.436889251 90.8657741959 c 0
 403.891891279 60.6891802864 384.182432918 4.79051832041 373.216 -4.71387 c 0
 361.960876211 -16.6756948751 302.595823872 -23.3143907167 244.285613538 -23.3143907167 c 0
 130.118493684 -22.161785844 100.495249965 -11.7006888271 62.4219 73.3887 c 0
 44.0494430482 116.251518458 34.999977775 161.511789601 34.999977775 203.028387555 c 0
 36.3406186827 300.757380634 76.1880985092 333.122604499 131.257 392.797 c 0
 166.935772645 427.087915308 193.580055802 438.409682429 225.782825599 438.409682429 c 0
 236.065165707 438.409682429 246.784824494 435.72068718 258.805 435.326 c 0
 319.066617597 433.347286137 375.813 395.395 375.813 354.83 c 0
 375.813 335.686701237 356.098962504 322.719971265 336.704075271 322.719971265 c 0
EndSplineSet
EndChar

StartChar: d
Encoding: 100 100 68
Width: 534
VWidth: -55
Flags: HMW
LayerCount: 2
Fore
SplineSet
447.920657637 525.739905761 m 0
 448.173502709 442.696358115 444.577179547 257.412358574 444.806485851 184.531978314 c 0
 444.806485851 53.6489438941 450.882097722 44.1224576816 472.241 24.793 c 0
 488.739 9.86523 502.233 -11.2129 502.233 -22.0439 c 0
 502.233 -35.0313606263 478.362284646 -41.6879814218 451.83802832 -41.6879814218 c 0
 426.92580069 -41.6879814218 399.67277207 -35.8158940081 387.658 -23.8018 c 0
 380.583 -16.725605 374.5845 -13.1875075 367.52225 -13.1875075 c 0
 360.46 -13.1875075 352.334 -16.725605 341.004 -23.8018 c 0
 322.538670303 -35.3335681295 276.708245875 -41.3066101424 235.352137071 -41.3066101424 c 0
 197.764617626 -41.3066101424 163.873120708 -36.3725599562 157.582 -26.1934 c 1
 142.514 -21.5342 116.398 -11.0361 113.205 2.57227 c 1
 70.4639922834 18.8212637253 34.0001755581 95.6518521443 34.0001755581 175.94034417 c 0
 34.0001755581 248.746499346 73.9610029833 341.652016634 124.824 388.445 c 0
 152.346 413.769 181.227 422.775 242.896 425.273 c 0
 287.793 427.09 329.48 433.529 335.532 439.583 c 0
 341.587 445.635 346.977 514.721 347.515 593.104 c 0
 350.219819963 730.512995338 347.160170979 736.450230961 384.621042842 740.369547299 c 0
 400.649411869 740.369547299 420.140002218 731.677778161 430.303 719.425 c 0
 443.086402028 704.014547415 447.920657637 661.67975455 447.920657637 525.739905761 c 0
249.336138454 331.833285068 m 0
 175.386918886 320.3289478 135.0767808 243.61490505 128.92389665 159.670977151 c 0
 128.92389665 128.082939995 142.661252047 112.834200284 164.793 95.0225 c 0
 195.627242355 70.2070048813 224.866853059 57.0261110747 249.792134589 57.0261110747 c 0
 322.80685147 61.2560593498 329.521208374 158.684570705 339.066640205 236.852476919 c 0
 339.066640205 264.171885457 329.833365318 277.299819717 303.634 304.647 c 0
 283.361017024 325.803869988 260.351429776 331.833285068 249.336138454 331.833285068 c 0
EndSplineSet
EndChar

StartChar: e
Encoding: 101 101 69
Width: 458
VWidth: -25
Flags: HMW
LayerCount: 2
Fore
SplineSet
376.114978409 108.440367033 m 0
 403.193595797 108.030663275 423.140618374 87.3636464698 422.476269641 63.1664114179 c 0
 422.476269641 56.5200930911 421.036034967 49.8514947986 418.004 43.7627 c 0
 391.700927036 -10.6964258862 335.385455981 -31.2600525718 259.403407251 -30.3398978522 c 0
 197.548848369 -30.3398978522 136.717450119 -13.4904255259 95.4736 33.0439 c 0
 59.7417910166 73.359137934 35.7522775763 126.914267211 35.7522775763 181.515110281 c 0
 35.7522775763 185.977927672 36.1482138889 190.44311941 36.2637 194.939 c 0
 37.4860942507 242.526874695 45.7448732888 292.199618995 74.7998 331.019 c 0
 108.793273289 376.436618995 161.783 406.623 217.216 417.963 c 1
 297.250797505 412.221510957 378.703938091 391.244403657 382.174256334 305.644109787 c 0
 382.174256334 277.799914171 372.383494167 248.970552034 354.456 228.325 c 0
 320.902570209 189.684402813 267.745736252 179.157945063 222.507 159.356 c 0
 199.873736252 149.448945063 154.722745372 149.385379909 157.694 116.914 c 0
 160.801745372 82.9509799086 219.355 69.2422 232.271 66.5479 c 0
 238.030455166 65.3468188201 245.942581427 64.5733409923 254.903533955 64.5733409923 c 0
 276.820339603 64.5733409923 305.01122038 69.2002827066 323.326 83.5146 c 0
 338.255572468 95.8173772135 356.627667293 108.440367033 376.114978409 108.440367033 c 0
285.855352993 298.525504531 m 0
 285.590944609 315.038766152 275.20493382 332.310112905 255.447890397 332.528127364 c 0
 206.039749086 328.989906692 160.599273679 301.46443682 150.220806622 257.326721746 c 0
 150.220806622 241.584695222 163.44849984 230.574482231 178.208759687 230.574482231 c 0
 183.359197822 230.574482231 188.463639941 232.363957508 193.723 234.863 c 0
 219.320400518 247.025885003 247.419784524 254.804444685 270.893 271.272 c 0
 280.601436532 278.082920974 285.855352993 287.789935426 285.855352993 298.525504531 c 0
EndSplineSet
EndChar

StartChar: f
Encoding: 102 102 70
Width: 379
VWidth: -24
Flags: HMW
LayerCount: 2
Fore
SplineSet
268.584848509 421.119464557 m 0
 273.29239141 421.147429822 278.296622666 422.213129173 282.935435291 422.055536805 c 0
 315.622207567 422.055536805 339.654251107 398.422243749 339.654251107 369.864905684 c 0
 339.654251107 363.850744285 338.588378222 357.618190886 336.313 351.342 c 1
 318.289 324.678 273.37 331.728 240.793 322.112 c 1
 235.624 318.852 234.251 312.236 234.251 306.531 c 0
 230.904863859 256.100322538 230.326144484 203.994765247 230.326144484 151.645797181 c 0
 230.326144484 123.9623338 230.487986998 96.2107990654 230.487986998 68.6028919997 c 0
 226.437829536 -83.6794976573 237.063756425 -251.237909108 140.266 -315.401 c 0
 125.047448484 -324.202326835 105.437935303 -328.191460777 84.9379843706 -328.191460777 c 0
 37.6422400679 -328.191460777 -14.3931081568 -306.958179913 -28.1807 -274.599 c 1
 -23.1719 -248.352 6.30566 -256.384 30.8008 -251.287 c 0
 104.741 -235.903 130.968 -173.862 130.968 -84.8867 c 0
 130.968 -2.61055770925 142.787494793 85.4659908021 142.787494793 169.49546124 c 0
 142.787494793 211.095122236 139.890716593 251.702906021 131.229 290.124 c 0
 120.48 334.491 32.9307 303.055 31.5615 362.82 c 1
 41.2461 409.678 91.04 416.707 129.538 434.495 c 1
 170.905 514.195 164.351 635.711 219.894 702.403 c 0
 234.807 721.657 266.041 728 296.086 728 c 0
 351.221 728 396.285 685.403 407.181 634.289 c 1
 404.034861503 613.08234232 385.155323563 591.227033003 363.232248287 591.227033003 c 0
 340.925539463 591.895787019 325.224654676 616.724183549 302.174955755 615.702989612 c 0
 294.714904239 615.702989612 287.607680768 612.955762674 281.771 605.664 c 0
 252.897 569.593 236.512 507.015 236.512 449.307 c 0
 236.512 432.743975152 250.932229567 421.119464557 268.584848509 421.119464557 c 0
EndSplineSet
EndChar

StartChar: g
Encoding: 103 103 71
Width: 456
VWidth: 9
Flags: HMW
LayerCount: 2
Fore
SplineSet
222.092612585 -232.497487443 m 0
 273.38148053 -235.214061364 302.646111684 -182.347308704 299.569277589 -101.366230586 c 0
 299.569277589 -26.6174892305 288.124241836 -22.4523942535 210.914 -21.4014 c 0
 133.569 -20.3486 90.0811 -6.82031 56.5293 82.5361 c 0
 41.5101130576 122.537915504 33.9997084731 160.333226996 33.9997084731 196.611917175 c 0
 33.9997084731 263.031633027 59.1738205992 324.367788525 109.532 384.854 c 0
 130.997860021 411.744592033 156.715488966 419.203113951 211.545697808 419.456461377 c 0
 255.262060102 419.456461377 287.894380898 410.522705724 312.411 391.889 c 0
 332.984536694 376.251524955 359.876414618 363.601510425 372.466222263 363.601510425 c 0
 398.065433653 363.601510425 409.138395459 329.852831506 409.138395459 226.417220408 c 0
 410.969338916 176.809696414 398.514077028 -12.7717646175 399.049581092 -59.9264246081 c 0
 399.049581092 -71.6186056086 399.372634473 -76.8095268074 399.372634473 -81.8189480893 c 0
 399.372634473 -95.0779654591 395.473487915 -171.202676743 385.502 -208.849 c 0
 359.763659273 -306.021448422 275.50170684 -334.457567187 210.161188572 -334.457567187 c 0
 144.445044333 -337.651823357 90.7475298886 -283.518367626 74.75 -253.833 c 0
 63.7035718476 -231.625396798 58.3987611041 -217.932579594 58.3987611041 -206.893789564 c 0
 57.2036539757 -192.999284474 75.8128911603 -168.333499974 88.0081440808 -167.915012157 c 0
 97.6202885193 -167.915012157 107.989402743 -180.879879766 134.988 -201.428 c 0
 165.735090846 -224.829027599 197.415246052 -232.497487443 222.092612585 -232.497487443 c 0
127.850834315 200.436400398 m 0
 126.230851553 164.769127164 150.373027152 106.039228959 159.383 89.3516 c 0
 165.39393008 79.977078844 186.763869063 75.5328593747 210.264561074 75.5328593747 c 0
 238.414385379 75.5328593747 269.621405029 81.9094064906 281.151 93.8271 c 0
 290.489680197 103.479757107 296.901450452 146.83767194 296.901450452 198.301171057 c 0
 296.901450452 201.730644382 296.87297739 205.196112573 296.815 208.69 c 0
 295.409 293.23 300.121 281.785 269.569 307.651 c 16
 254.83045807 320.13051827 239.833617841 327.553528822 223.463245181 327.553528822 c 0
 209.412146103 327.553528822 194.349135882 322.084835892 177.569 309.651 c 0
 144.548576376 277.580237629 127.850834315 240.989616352 127.850834315 200.436400398 c 0
EndSplineSet
EndChar

StartChar: h
Encoding: 104 104 72
Width: 478
VWidth: -54
Flags: HMW
LayerCount: 2
Fore
SplineSet
42.3809 234.288 m 0
 42.1231650999 257.202702515 42.0002639197 280.954344337 42.0002639197 304.937600472 c 0
 42.0002639197 424.629676825 45.061314908 550.09047908 49.7002 606.078 c 0
 59.8271 728.282 59.8271 728.282 103.754 728.282 c 0
 147.681 728.282 149.680666656 728.282 151.608398438 559.896484375 c 0
 152.669921875 467.283203125 152.317 386.232 153.27 379.783 c 0
 153.449133804 378.569707179 154.402498334 377.992914371 156.011805105 377.992914371 c 0
 162.955099883 377.992914371 182.108492085 388.729677375 203.972 405.408 c 0
 230.906 425.951 265.853515625 433.755859375 281.633789062 433.755859375 c 0
 297.415039062 433.755859375 332.932 419.433 360.565 390.924 c 0
 410.804 339.087 409 310 412.674 188.952 c 0
 415.539285106 94.5488885325 421.577 27.5527 433.507 8.45117 c 0
 440.983459698 -3.52144855678 444.420609891 -17.7284553742 444.420609891 -30.7255241267 c 0
 444.420609891 -51.8167179276 435.36932985 -69.7217 419.84 -69.7217 c 0
 411.983 -69.7217 382.530975991 -58.103394246 364.471 -34.4014 c 0
 337.565 0.9101562 323.319 5.41504 320.943 157.665 c 0
 318.933672837 286.333923642 301.518049984 330.991502996 272.885517542 330.991502996 c 0
 264.924535158 330.991502996 256.096417163 327.539199393 246.491210938 321.48046875 c 0
 193.938476562 288.331054688 171.252929688 242.215820312 163.170898438 114.802734375 c 0
 157.15625 19.978515625 140.56 -26.0498 122.057 -37.6455 c 0
 112.775029021 -43.4648753243 104.632992672 -46.3752889376 96.4934310342 -46.3752889376 c 0
 88.314357022 -46.3752889376 80.1377818057 -43.4365503414 70.8096 -37.5576 c 0
 48.2324 -23.3262 44.8535 14.3633 42.3809 234.288 c 0
EndSplineSet
EndChar

StartChar: i
Encoding: 105 105 73
Width: 204
VWidth: -43
Flags: HMW
LayerCount: 2
Fore
SplineSet
155.435078585 -2.63895510371 m 0
 156.116372353 -28.4679218035 129.382652295 -41.5891887041 107.878906883 -41.6843276553 c 0
 91.4201975705 -41.6843276553 74.8224293034 -34.7476879822 63.5791 -21.1992 c 0
 51.8850203936 -7.10881790983 45.9122643803 84.4210904243 45.9122643803 175.948991712 c 0
 45.9122643803 262.902413695 51.3029142135 349.854024238 62.2998 370.403 c 0
 71.2568 387.136 88.3984 400.829 100.394 400.829 c 0
 128.962768991 400.829 142.530418677 359.913184213 142.530418677 275.117063539 c 0
 143.017739495 235.416455158 137.511405025 181.140290428 138.013788663 139.062858192 c 0
 138.013788663 91.8809926764 141.407496864 51.4003706991 147.477 33.9961 c 0
 152.776712147 18.7877838097 155.435078585 6.89700161389 155.435078585 -2.63895510371 c 0
79.2774709733 574.163471431 m 0
 80.1035296439 598.304095915 94.9034091424 608.819895844 121.683 609.221 c 0
 150.697 609.221 158.088 601.834 158.088 572.814 c 0
 158.088 546.514404828 144.115080471 531.323133263 124.461278747 531.323133263 c 0
 103.124849701 531.311291107 77.0922543507 548.126458438 79.2774709733 574.163471431 c 0
EndSplineSet
EndChar

StartChar: j
Encoding: 106 106 74
Width: 268
VWidth: -13
Flags: HMW
LayerCount: 2
Fore
SplineSet
91.7376798833 370.602203903 m 0
 89.0174221976 396.158031548 123.144907889 434.524370788 159.758162838 442.317641999 c 0
 167.011707824 442.317641999 173.480956517 439.005869825 180.035 432.33 c 0
 198.112148412 413.914345577 226.043419277 176.227479663 226.043419277 27.6598872004 c 0
 227.363938121 -38.6159700516 216.017320856 -88.3491953773 201.629 -139.367 c 0
 173.805840036 -240.050118594 114.504532566 -299.878549404 43.2794849517 -299.878549404 c 0
 17.2890325403 -299.878549404 -10.2891426839 -291.912008428 -38.5049 -275.057 c 1
 -51.6176880991 -260.293382819 -62.2589200491 -237.112698294 -62.2589200491 -223.371007042 c 0
 -62.2589200491 -200.893753773 -43.7688900041 -187.435342657 -21.3037869361 -187.435342657 c 0
 -1.40454806241 -183.813787295 24.8165586032 -209.426481819 41.5012191456 -209.025141278 c 0
 76.9930464345 -203.624640622 86.2340766342 -162.875496458 106.772 -127.891 c 0
 129.434924748 -80.29350444 137.361475135 -25.7220431796 137.361475135 1.53308483082 c 0
 136.505535669 23.0511192225 137.323593591 3.2643793417 130.287 120.104 c 0
 123.782 225.737 110.383 325.367 100.513 341.501 c 0
 94.6310574791 351.116764312 91.7376798833 360.895255758 91.7376798833 370.602203903 c 0
140.91077979 579.634741079 m 0
 121.20079154 579.055227009 102.850696252 593.652708627 103.039093287 617.765264417 c 0
 103.769250703 642.605795182 119.313662896 673.422327035 143.339890379 677.579198247 c 0
 158.858705688 678.304419229 201.270065502 654.101459947 199.319699544 636.413675468 c 0
 197.399403232 609.093449254 166.775410844 576.042153882 140.91077979 579.634741079 c 0
EndSplineSet
EndChar

StartChar: k
Encoding: 107 107 75
Width: 444
VWidth: -53
Flags: HMW
LayerCount: 2
Fore
SplineSet
128.128 28.7188 m 0
 124.399205973 -17.4482128909 127.891294559 -53.0836375434 104.346145969 -49.8655247555 c 0
 95.3171303643 -49.8655247555 83.2482348093 -48.3632571268 73.2197 -45.7793 c 0
 51.0596 -40.0674 47.2148 -18.043 44.7881 117.156 c 0
 43.5728993071 184.808193907 42.9999753109 250.860882662 42.9999753109 312.699581593 c 0
 42.9999753109 522.641605945 49.6034890601 684.013244123 60.0967 694.508 c 0
 65.0498050035 699.460631678 71.0818751403 701.703134618 77.6126034779 701.703134618 c 0
 102.816217283 701.703134618 135.446693207 668.303984432 142.149 628.384 c 0
 143.723622773 619.009961459 144.474971797 601.732882655 144.474971797 579.704813546 c 0
 146.161399973 510.702539928 131.469244034 386.685709411 131.935647617 317.660388228 c 0
 134.810610065 287.443741059 127.24186618 274.713835093 144.307508726 273.502345943 c 0
 175.436170982 273.502345943 267.229 326.378846832 267.229 348.491 c 0
 265.429811708 366.822205253 310.453762422 395.259576412 335.310295302 394.796893938 c 0
 358.061434411 396.049837687 384.054273021 363.772543822 384.367 347.646 c 0
 384.367 327.653 322.682 268.543 263.567 231.89 c 0
 241.423 218.158 223.304 200.339 223.304 192.295 c 0
 223.304 184.25 254.273 158.026 292.133 134.017 c 0
 345.882337962 97.7296803897 394.881886796 54.4093158258 411.3818655 1.85874815521 c 0
 413.126645735 -12.8351852951 361.774253841 -41.3498613296 354.348 -41.3213 c 0
 348.971 -41.3213 302.716 -1.8623 251.557 46.3633 c 0
 197.254696626 97.5597279419 165.376709902 121.262712012 150.253294261 121.262712012 c 0
 147.339390063 121.262712012 145.04747683 120.38277054 143.337 118.65 c 0
 134.973 110.181 128.128 69.7109 128.128 28.7188 c 0
EndSplineSet
EndChar

StartChar: l
Encoding: 108 108 76
Width: 220
VWidth: -53
Flags: HMW
LayerCount: 2
Fore
SplineSet
154.400575995 577.284405035 m 0
 155.235108602 491.192303583 145.096342927 250.234801147 145.941872662 164.609889925 c 0
 145.941872662 79.034945781 150.184475339 41.8195708783 159.423 24.5566 c 0
 167.201133588 10.0237830078 170.844049101 -4.75086406456 170.844049101 -17.6451464691 c 0
 170.844049101 -39.9948516905 159.89948819 -56.6953 140.574 -56.6953 c 0
 129.49 -56.6953 109.188 -44.2832 95.4609 -29.1152 c 0
 75.8936 -7.49219 67.54 45.1514 56.8076 214.472 c 0
 51.6450745205 295.925124844 49.1601377271 373.828117076 49.1601377271 442.49809617 c 0
 49.1601377271 568.247331555 57.4929619795 663.035185551 72.9756 691.965 c 0
 82.3860833238 709.549684284 94.9892592071 718.486788533 108.728174587 718.486788533 c 0
 119.544739674 718.486788533 131.065272194 712.947287311 142.286 701.727 c 0
 150.524740895 693.487637407 154.400575995 658.771296102 154.400575995 577.284405035 c 0
EndSplineSet
EndChar

StartChar: m
Encoding: 109 109 77
Width: 692
VWidth: -24
Flags: HMW
LayerCount: 2
Fore
SplineSet
144.063350262 396.611523384 m 0
 183.090981756 398.715603492 214.315669843 441.881273393 259.562370631 436.922529683 c 0
 285.991820675 436.922529683 312.053229785 427.828326889 330.292 408.229 c 0
 344.55556553 392.900706896 365.914456071 381.583592131 386.513470951 381.583592131 c 0
 397.488347002 381.583592131 408.247523681 384.79608421 417.603 392.326 c 0
 446.135015154 415.780047776 481.367073259 432.290883598 518.546744683 432.290883598 c 0
 568.149230319 432.075106314 599.373704074 404.826563031 618.307 368.944 c 1
 637.524063945 302.268178318 641.386636922 232.550015731 641.386636922 163.363019138 c 0
 641.43130731 146.743614718 641.064212788 130.247638465 640.973002014 113.657939009 c 0
 640.973002014 92.9184066856 641.775547704 72.0809346123 641.775547704 51.3263592737 c 0
 641.775547704 31.432726695 641.038203538 11.6152560402 638.15 -7.9668 c 0
 635.537957826 -25.688653889 618.872882191 -33.8453697865 601.598100441 -33.8453697865 c 0
 561.163428655 -36.7544251194 550.131835738 8.24957274105 551.501769667 44.6727547393 c 0
 551.501769667 61.1229608107 552.84096244 77.79278011 552.932 93.7764 c 0
 552.862302498 97.8785256894 552.83327689 101.986076211 552.83327689 106.097716933 c 0
 552.83327689 126.592293797 553.554432376 147.188493708 553.554432376 167.721031966 c 0
 553.554432376 191.710121514 552.570033382 215.612310985 548.301 239.164 c 0
 543.6 265.093 538.768 300.834 509.949 310.911 c 0
 507.052254214 311.227852624 504.145041386 311.382447943 501.238739054 311.382447943 c 0
 461.00719489 311.382447943 420.950124421 281.758143499 411.248 242.834 c 0
 404.433769088 215.496175155 402.566540311 187.59129779 402.566540311 159.513352522 c 0
 402.566540311 125.466725514 405.312 91.1656299799 405.312 57.3125 c 0
 405.312 47.9910100818 405.92004198 38.1083377763 405.92004198 28.2539064186 c 0
 405.92004198 9.67513011224 403.758793811 -8.80326546609 391.287 -23.2314 c 1
 380.577235362 -31.3993897769 363.664851218 -36.4238222126 347.407349984 -36.4238222126 c 0
 326.288474716 -36.4238222126 306.274689417 -27.9452838475 302.398 -6.86523 c 0
 298.205936433 15.9312400344 296.754552053 38.871301733 296.754552053 61.8870963488 c 0
 296.754552053 113.705756569 304.11158766 165.908305286 304.11158766 217.720304853 c 0
 304.11158766 222.113987851 303.996788291 226.482687912 303.996788291 230.878646806 c 0
 303.996788291 239.871681003 304.475147177 249.228349917 304.475147177 258.545072687 c 0
 307.046939746 288.545205243 292.243614743 327.042245568 259.982415132 323.667424741 c 0
 176.510981045 320.211869944 156.246820354 249.333976142 159.379647878 166.351469191 c 0
 159.379647878 143.321859121 160.190713043 119.449387843 160.190713043 96.0033908786 c 0
 160.190713043 90.7798130085 160.150454831 85.577403713 160.052 80.4102 c 0
 160.125855996 67.7928711469 160.983803787 54.48765342 160.983803787 41.2438272115 c 0
 160.983803787 17.547819729 158.237274269 -5.95165642721 143.339 -24.9629 c 1
 136.252463319 -30.4892243711 127.958141315 -32.9555777301 119.596094145 -32.9555777301 c 0
 99.473166527 -32.9555777301 78.9580392821 -18.6728090389 73.9385 1.62012 c 0
 55.0615 72.0986 51.7002 145.777 51.7002 218.34 c 0
 51.7002 242.696640241 50.2240248231 267.324159338 50.2240248231 291.861180681 c 0
 50.0014929314 340.666140741 55.6290062188 407.941894803 102.89326526 410.752406447 c 0
 119.258635641 410.01263555 129.97659234 393.53667777 144.063350262 396.611523384 c 0
EndSplineSet
EndChar

StartChar: o
Encoding: 111 111 78
Width: 467
VWidth: -23
Flags: HMW
LayerCount: 2
Fore
SplineSet
121.635 -15.168 m 0
 70.6276691239 7.10809494329 39.7563609617 98.8979060505 41.4705793951 204.715266322 c 0
 41.4705793951 311.084707273 64.9595490472 372.80201948 118.246 408.885 c 0
 148.544736475 429.402212648 168.23034578 436.748987951 206.855219094 436.748987951 c 0
 218.952146033 436.748987951 232.906787928 436.02835729 249.627 434.766 c 0
 325.844 429.013 339.919 431.076 380.688 379.465 c 0
 418.999089189 331.038072758 424.478009697 295.495278212 425.529709289 228.317869845 c 0
 425.529709289 135.00144816 393.3265183 32.6724734194 338.306 3.42676 c 0
 303.513289838 -15.0679434068 241.130713429 -25.3518947684 190.114541911 -25.3518947684 c 0
 161.344058578 -25.3518947684 136.188520378 -22.0812106539 121.635 -15.168 c 0
238.44950375 335.841693732 m 0
 144.998394947 335.947308592 125.347615542 272.860527863 121.702443418 185.203099649 c 0
 121.702443418 147.085847975 128.904061643 110.881034611 142.845 94.7314 c 0
 160.647069112 74.1099050097 189.914653198 64.7985072224 219.00305294 64.7985072224 c 0
 252.025874317 64.7985072224 284.81776123 76.7991241134 300.341 97.876 c 0
 337.11046434 148.927251121 347.810639532 186.94068088 347.810639532 252.606146384 c 0
 347.810639532 309.703466201 304.333557875 334.129040254 238.44950375 335.841693732 c 0
EndSplineSet
EndChar

StartChar: v
Encoding: 118 118 79
Width: 465
VWidth: -25
Flags: HMW
LayerCount: 2
Fore
SplineSet
31.904317182 388.748272168 m 0
 31.904317182 412.350714477 60.5671823074 440.316573426 82.501846782 440.316573426 c 0
 82.9317403726 440.316573426 83.3590495683 440.305831353 83.7835079388 440.284103825 c 0
 106.420026171 440.284103825 125.734375 419.603515625 149.379882812 378.390625 c 0
 184.159179688 317.768554688 190.404296875 300.89453125 209.004882812 217.326171875 c 0
 214.61328125 192.116210938 232.192382812 168.685546875 246.82421875 168.685546875 c 0
 255.790039062 168.685546875 263.6484375 174.478515625 266.96875 187.36328125 c 0
 269.561523438 197.428710938 287.23828125 261.438476562 306.245117188 319.829101562 c 0
 332.979492188 401.946289062 361.993957775 440.276066757 390.163066883 440.276066757 c 0
 411.782542939 438.385364869 428.382689448 425.172559195 428.382689448 399.675915645 c 0
 428.382689448 398.887726349 428.366825658 398.087798106 428.334755954 397.276102505 c 0
 428.334755954 376.349832759 420.239458475 346.466040137 401.721679688 304.71875 c 0
 384.30078125 265.44140625 355.743164062 181.03125 338.262695312 117.137695312 c 0
 310.006271227 13.8608598808 283.06272129 -30.790485392 245.070412108 -30.790485392 c 0
 204.427498398 -29.6204995536 160.66727476 13.6831874408 154.504882812 45.279296875 c 0
 140.540807338 108.997529383 116.301243664 163.1149814 101.299804688 235.62890625 c 0
 93.1396484375 271.868164062 73.9970703125 315.12109375 58.759765625 331.748046875 c 0
 40.0462670714 352.16710272 31.904317182 369.685229413 31.904317182 388.748272168 c 0
EndSplineSet
EndChar

StartChar: n
Encoding: 110 110 80
Width: 457
VWidth: -25
Flags: HMW
LayerCount: 2
Fore
SplineSet
257.066 443.515 m 0
 283.193 444.829 309.875 437.046 330.519 420.812 c 1
 356.024 396.714 385.562 372.87 396.441 338.122 c 1
 413.585 241.562 399.96 143.148 407.136 45.8701 c 1
 405.719 24.124 419.07 -0.74707 404.996 -20 c 1
 380.775 -39.6045 341.26 -28.4297 325.937 -2.69629 c 1
 309.119 35.3838 317.194 78.2051 319.174 118.343 c 1
 319.188 165.662 321.479 213.405 314.448 260.378 c 0
 309.414 287.721 297.866210938 320.942382812 268.622070312 330.517578125 c 1
 244.0078125 336.236328125 217.136 326.755 195.749 314.778 c 0
 161.741 295.783 152.068 254.81 146.59 219.271 c 0
 136.173 151.694 146.08 82.0732 137.506 13.9141 c 1
 136.485 -8.22363 123.733 -42.3047 95.6406 -30.7295 c 1
 69.5625 -25.4854 48.8555 -4.07812 49.4209 23.2891 c 1
 43.0195 128.808 46.8105 234.669 50.9912 340.193 c 1
 53.3604 365.281 42.5771 394.222 59.167 416.06 c 0
 74.8408 437.452 106.106 435.223 125.796 420.93 c 1
 141.973 407.131 165.788 395.72 185.982 408.623 c 1
 205.117 427.233 229.676 442.658 257.066 443.515 c 0
EndSplineSet
EndChar

StartChar: p
Encoding: 112 112 81
Width: 447
VWidth: 7
Flags: HMW
LayerCount: 2
Fore
SplineSet
54.6514 -112.191 m 0
 52.5983389046 114.844208729 48.9663486173 259.508098467 35.9998086852 369.969980025 c 0
 35.9998086852 404.226895863 48.8052597233 409.350393785 91.0859 426.267 c 0
 124.446 439.614 180.418 450.534 215.468 450.534 c 0
 271.93 450.534 307.461 439.303 356.68 380.24 c 0
 386.236749453 344.772503845 403.41218926 287.020014715 403.41218926 230.451773382 c 0
 403.41218926 174.481619248 384.260153134 122.24739568 348.326 88.752 c 0
 290.444675659 34.7989305048 212.207995155 -13.1674823233 198.770305673 -13.1674823233 c 0
 198.568646801 -13.1674823233 198.382107744 -13.1572601338 198.211 -13.1367 c 0
 190.404 -13.1367 175.712 -21.9238 165.561 -34.1533 c 0
 152.778 -49.5566 148.919 -100.94 148.261 -193.086 c 0
 147.557 -291.585 146.07 -315.859 141.975 -329.952 c 0
 137.225268949 -346.301493365 120.392677593 -355.061374065 103.339228461 -355.061374065 c 0
 89.5547052888 -355.061374065 75.6258803229 -349.337932845 67.8174 -337.273 c 0
 61.3027 -327.208 55.377 -285.338 54.6514 -112.191 c 0
152.533 206.224 m 0
 155.377 113.684 159.746 91.7998 179.099 91.7998 c 0
 185.469 91.7998 218.025 104.287 251.444 128.497 c 0
 302.102 165.189 312.21 191.758 312.21 233.136 c 0
 312.21 271.63 300.588 296.643 260.455 331.881 c 0
 250.566024157 340.562512023 240.514751123 343.395412501 231.273052537 343.395412501 c 0
 213.910107777 343.395412501 199.404753287 333.396 194.202 333.396 c 0
 170.339416407 333.396 152.257395128 302.184278146 152.257395128 223.609263217 c 0
 152.257395128 218.052917282 152.347813479 212.259733284 152.533 206.224 c 0
EndSplineSet
EndChar

StartChar: q
Encoding: 113 113 82
Width: 543
VWidth: 8
Flags: HMW
LayerCount: 2
Fore
SplineSet
322.454616794 417.53564371 m 0
 350.137094728 414.844800116 366.426990003 437.661940705 389.096418138 439.429772161 c 0
 422.390440516 439.429772161 420.246400227 390.10561949 421.119 357.76 c 0
 421.438732966 339.553985311 421.588473145 321.34580942 421.588473145 303.136712835 c 0
 422.489943398 182.765270503 413.202106038 63.5005019194 409.374992099 -57.4081635423 c 0
 409.374992099 -82.2430948111 410.104730856 -107.072153378 410.104730856 -131.885443577 c 0
 410.104730856 -155.548496834 409.441079073 -179.197209746 406.848 -202.823 c 1
 402.6 -212.384 408.686 -226.056 419.818 -226.414 c 1
 453.455456103 -210.848034899 465.948196011 -169.58886776 505.460515411 -160.879628833 c 0
 517.67997403 -160.879628833 522.628032462 -174.297723571 522.628032462 -189.325008765 c 0
 522.628032462 -198.492494573 520.786521727 -208.258870135 517.631 -215.943 c 0
 501.758 -254.604 482.711 -293.456 451.949 -322.466 c 0
 436.693047037 -337.112030662 413.459143744 -352.625163962 390.332733401 -352.625163962 c 0
 333.34077273 -348.132490031 325.693408513 -277.952863312 326.903580688 -217.904015785 c 0
 326.903580688 -206.076722067 327.074 -194.331517924 327.074 -183.054 c 0
 327.074 -135.497 326.615 -88.1182 321.787 -40.9961 c 0
 321.651174297 -26.1163051714 314.905030294 -8.29890795618 295.745839326 -9.64691518819 c 0
 282.675743681 -9.64691518819 269.337019749 -16.1436 256.184 -16.1436 c 0
 222.086 -16.1436 186.188 -11.875 157.047 6.37793 c 0
 89.8414033607 48.4731380922 40.7495037573 127.678954578 40.7495037573 221.223851687 c 0
 44.357388401 337.481820433 101.149755996 432.660766346 211.705904738 443.006719656 c 0
 249.211616001 443.006719656 284.489108764 417.53564371 322.454616794 417.53564371 c 0
326.076621781 231.57261109 m 0
 333.964841886 299.707101244 280.816012836 342.803775991 222.75181121 343.445766152 c 0
 161.358658515 342.304832884 128.969429994 285.047212875 129.907496493 231.811169907 c 0
 129.907496493 197.822062663 141.300327966 162.593418499 163.043 135.513 c 0
 179.508517014 114.154599304 198.618445881 83.0052976291 232.734376976 83.0052976291 c 0
 298.87493501 89.2361102816 324.222158341 150.923564271 326.061 221.923 c 0
 326.061 225.106538091 326.076621781 228.328780467 326.076621781 231.57261109 c 0
EndSplineSet
EndChar

StartChar: r
Encoding: 114 114 83
Width: 416
VWidth: -25
Flags: HMW
LayerCount: 2
Fore
SplineSet
339.753189338 323.566519982 m 1
 316.499297937 316.90528195 260.222133969 367.795509602 234.194677043 367.646141978 c 0
 221.536395911 367.646141978 208.518923668 360.173326767 184.26 337.438 c 0
 136.648314052 292.81659582 137.438 293.587 137.03 152.608 c 0
 136.803 74.0166 131.288 1.47852 124.772 -8.58789 c 0
 117.182790582 -20.3139675851 105.655249135 -26.1748105121 93.5837966224 -26.1748105121 c 0
 81.4811981674 -26.1748105121 68.8318783012 -20.2836850705 59.0566 -8.50586 c 0
 47.3528792999 5.59656362896 39.0002693521 169.064004282 39.0002693521 291.552342373 c 0
 39.0002693521 359.859004945 41.5977890494 415.421863276 47.6602 425.231 c 0
 52.9908855932 433.858838611 64.160283687 438.22181166 80.608462151 438.22181166 c 0
 98.2630565017 438.471933546 122.698603182 431.084451283 140.177808645 431.856421656 c 0
 156.126180717 431.856421656 170.096596166 435.086715879 181.256 443.526 c 1
 205.539863766 450.344953412 225.459487729 454.699876341 244.687503842 454.699876341 c 0
 286.453302041 461.510579878 380.723445671 399.091675271 375.886958929 365.217024353 c 0
 372.154945767 339.078083047 360.828521945 323.098388997 339.753189338 323.566519982 c 1
EndSplineSet
EndChar

StartChar: s
Encoding: 115 115 84
Width: 358
VWidth: -25
Flags: HMW
LayerCount: 2
Fore
SplineSet
191.345660742 75.3133375874 m 0
 219.38361269 74.5993911809 226.856083511 86.632828088 229.419825054 109.092535969 c 0
 229.419825054 135.720887845 198.869406271 159.367033314 137.001 180.771 c 0
 84.2534869789 196.719070531 42.610346271 243.155781238 31.999775 294.228125 c 0
 31.999775 307.217 38.52395 321.289 51.5723 347.938 c 0
 82.6253241512 411.292622624 129.511066405 439.332192419 204.980578851 439.48836066 c 0
 263.192213548 439.48836066 301.946399726 408.020407983 301.946399726 364.366119515 c 0
 301.222945579 330.532441597 280.802106387 295.31524134 259.797605445 298.429906761 c 1
 233.266604606 294.149338546 205.426531392 354.464929806 176.03607493 347.975668455 c 1
 155.661170613 349.254594132 134.100811077 328.206794752 132.162912054 300.703314484 c 0
 132.162912054 274.940440668 160.624848119 253.499296429 217.453 236.475 c 0
 286.605639458 215.756372351 318.037094611 176.58056288 318.037094611 108.950584493 c 0
 318.425721344 70.8233670504 304.785348993 7.37649166076 294.974 -1.22754 c 0
 282.889187933 -13.3124710922 209.282725635 -23.0821582588 152.921078573 -23.0821582588 c 0
 93.8474491151 -23.0821582588 50.050267126 0.578040539693 48.5451224452 42.2753875854 c 0
 50.9598492044 70.1929252742 67.8559380873 83.7314712871 102.300241698 82.945791824 c 0
 123.165074243 83.7462612455 172.080357022 74.6547025434 191.345660742 75.3133375874 c 0
EndSplineSet
EndChar

StartChar: t
Encoding: 116 116 85
Width: 462
VWidth: -45
Flags: HMW
LayerCount: 2
Fore
SplineSet
411.055041075 106.790893948 m 0
 423.297742238 106.093111316 435.21367081 99.4316769405 434.482521844 90.2032566219 c 0
 434.482521844 81.0807880685 427.338328161 66.1806562429 412.183 38.082 c 0
 378.255127331 -15.6152640588 357.778398475 -38.694266147 291.651141149 -42.7801014089 c 0
 266.099675785 -42.7801014089 239.788762657 -35.2469772194 216.822 -17.3857 c 0
 171.934 17.5244 154.112 37.2637 151.855 154.097 c 0
 150.695 214.249 144.731 272.096 136.409 282.602 c 0
 109.158025385 314.417062649 31.7603463156 291.29937069 27.4191800149 352.989526078 c 0
 27.4191800149 377.15884942 50.3209937582 398.638358795 86.8379 402.188 c 0
 111.909 404.625 143.016 400.941 149.227 416.861 c 0
 159.323 442.735 158.901 482.198 162.875 532.139 c 0
 170.909403934 614.303317413 191.04727244 607.00479764 225.541694639 611.779374071 c 0
 243.045659504 611.779374071 263.767044392 599.065826448 268.398 522.283 c 0
 273.012 445.793 267.416 430.295 305.478 429.015 c 0
 342.374205434 427.773723925 373.53851102 399.022292508 373.53851102 368.339532341 c 0
 372.708018877 340.475530085 353.800042802 332.91164804 315.876 326.549 c 0
 270.624 321.093 263.76 314.494 255.172 268.19 c 0
 251.279626152 247.202952399 249.501235593 224.055680397 249.501235593 201.09564004 c 0
 254.869685712 128.095017984 255.187419483 64.464248418 300.4596637 59.4127097757 c 0
 325.191899518 56.8661543065 383.09873372 112.624698507 411.055041075 106.790893948 c 0
EndSplineSet
EndChar

StartChar: u
Encoding: 117 117 86
Width: 488
VWidth: -20
Flags: HMW
LayerCount: 2
Fore
SplineSet
413.795618314 312.2967003 m 0
 414.149606229 278.871978888 406.443489071 201.244696426 407.199904966 164.510898418 c 0
 407.199904966 116.841263031 412.810676082 87.4450861406 426.196 67.0176 c 0
 436.738020685 50.9306839226 453.89762499 24.7236604434 453.89762499 9.58608664032 c 0
 453.89762499 5.75506268547 452.798557259 2.6330338054 450.215 0.563477 c 0
 435.104458595 -11.5402211353 420.871111 -16.8029596882 407.307278596 -16.8029596882 c 0
 389.347775494 -16.8029596882 372.562045728 -7.57648916748 356.468 7.21289 c 0
 336.787519713 25.2979153454 328.472160182 34.4365156063 320.840921234 34.4365156063 c 0
 314.358202473 34.4365156063 308.36917665 27.8416805415 296.326 14.5342 c 0
 281.65 -1.68359 251.298 -14.5928 227.842 -14.5928 c 0
 177.526 -14.5928 98.3301 16.5332 74.0039 45.8701 c 0
 52.8824636386 71.341290299 35.9997557789 184.559372983 35.9997557789 270.150346391 c 0
 35.9997557789 292.630484798 37.1643754893 313.204822532 39.7227 329.783 c 0
 50.2870835465 398.252646257 77.6053314054 426.891794199 117.597658618 426.891794199 c 0
 130.276082368 426.891794199 139.222756618 406.002339534 139.222756618 334.610434848 c 0
 139.372905175 284.327471898 133.661961142 209.816635803 133.828365569 182.268322765 c 0
 133.828365569 148.527931078 138.67535179 129.763128074 157.152 110.096 c 0
 175.716977882 90.335587378 201.497029138 76.0613434081 217.789100836 76.0613434081 c 0
 262.448625277 79.5622834831 291.161271116 191.313913038 295.55 308.834 c 0
 300.635654438 394.776931849 299.736168023 413.501614482 342.528452479 425.277086756 c 0
 354.128870477 425.277086756 365.404346658 416.142824359 383.878 394.904 c 0
 406.158959785 369.285884416 413.795618314 355.659521134 413.795618314 312.2967003 c 0
EndSplineSet
EndChar

StartChar: w
Encoding: 119 119 87
Width: 661
VWidth: -27
Flags: HMW
LayerCount: 2
Fore
SplineSet
31.9998472758 373.382008483 m 0
 36.0701548077 412.823069324 58.2683212338 448.633457462 94.0490946184 450.699723759 c 0
 129.822102207 450.699723759 154.218541923 401.575802721 169.322 300.006 c 0
 182.559679514 210.998537272 193.0566311 166.631487729 205.360456951 166.631487729 c 0
 217.460398482 166.631487729 231.307827702 209.540324493 251.228 295.098 c 0
 274.332 394.325 301.305 441.521 334.912 441.521 c 0
 357.534 441.521 404.365 347.244 420.61 269.004 c 0
 431.687189393 215.64485931 441.516090576 192.667457118 456.069797749 192.667457118 c 0
 484.022487577 195.671503106 507.43931488 274.704931255 525.323242188 369.959960938 c 0
 533.944130967 419.855060134 572.496966076 466.861068007 598.999383629 466.861068007 c 1
 621.096387113 462.129905566 629.111038843 447.686906826 630.613571179 415.914933216 c 0
 630.613571179 391.465253133 623.346291927 355.688813646 604.659179688 302.418945312 c 0
 584.88671875 246.045898438 563 155 542.784 97.415 c 0
 514.16881703 15.9050419807 516.611244856 -13.579337891 485.429277057 -13.579337891 c 0
 447.254056121 -11.931786509 417.523419444 4.20010871108 410.635 40.3018 c 0
 396.480539757 98.1774762255 380.901069787 95.8099041164 366.164 157.285 c 0
 358.492690537 184.1068163 344.123725643 212.396930916 333.589505649 213.295985818 c 0
 314.301414907 213.295985818 287.774970372 142.40415502 277.687 76.2998 c 0
 270.103319015 26.6021201702 237.657700211 -29.2313438279 216.486708386 -29.2313438279 c 0
 211.265387311 -29.2313438279 186.95553753 -15.8556146827 161.517 0.443359 c 0
 119.951 27.0732 114.6 39.1592 105.105 127.797 c 0
 98.9609 185.172 79.8994 256.32 59.0781 296.14 c 0
 40.23426267 332.179927064 31.9998472758 354.085174048 31.9998472758 373.382008483 c 0
EndSplineSet
EndChar

StartChar: x
Encoding: 120 120 88
Width: 468
VWidth: -27
Flags: HMW
LayerCount: 2
Fore
SplineSet
432.8046875 7.4150390625 m 0
 433.322265625 -10.9765625 418.006835938 -22.4658203125 392.203125 -24.154296875 c 0
 370.630859375 -24.154296875 345.040039062 -4.48828125 303.202148438 43.6416015625 c 0
 268.87109375 83.1337890625 235.76171875 115.443359375 229.625976562 115.443359375 c 0
 206.825195312 106.0625 153.161132812 8.248046875 133.067382812 -5.6572265625 c 0
 118.987304688 -19.3154296875 95.4482421875 -26.1953125 75.6142578125 -26.1953125 c 0
 56.2236328125 -26.1953125 40.375 -19.6181640625 40.375 -6.37109375 c 0
 40.375 4.7490234375 53.7750745682 37.8970044753 70.3056640625 62.11328125 c 0
 103.546875 110.809570312 157.512695312 177.91796875 157.512695312 223.409179688 c 0
 157.512695312 244.5078125 129.375 287.053710938 95.826171875 327.530273438 c 0
 59.4677682829 371.396580478 37 373.89453125 37 402.763671875 c 0
 37 428.110351562 73.556640625 452.909179688 103.856445312 450.715820312 c 0
 139.4765625 449.561523438 146.866210938 434.946289062 175.475585938 395.55859375 c 0
 202.828125 357.900390625 219.462890625 331.998046875 240.978515625 331.998046875 c 0
 252.58203125 331.998046875 268.099218928 341.396218136 279.475585938 351.728515625 c 0
 300.076171875 370.438476562 353.345703125 445.622070312 380.743164062 451.073242188 c 0
 394.11328125 450.206054688 424.306640625 420.052734375 421.954101562 405.662109375 c 0
 420.73046875 378.756835938 379.752460741 330.204859348 371.038085938 317.499023438 c 0
 353.493164062 291.91796875 289.546875 230.748046875 289.546875 212.5390625 c 0
 289.546875 203.681640625 322.942382812 159.008789062 363.473632812 116.74609375 c 0
 409.53125 68.71875 432.8046875 31.591796875 432.8046875 7.4150390625 c 0
EndSplineSet
EndChar

StartChar: y
Encoding: 121 121 89
Width: 505
VWidth: 8
Flags: HMW
LayerCount: 2
Fore
SplineSet
170.016692979 -361.206192082 m 0
 145.391624058 -360.37943526 127.775813587 -351.601504393 129.000713812 -325.077938866 c 0
 129.000713812 -315.342217169 131.128361377 -304.438426599 135.682305084 -294.800106663 c 0
 149.992902528 -264.504517103 188.518725444 -137.29712327 206.636663566 -59.6886344876 c 0
 208.03793547 -53.6868588264 208.807381512 -46.8092391525 208.807381512 -39.0108691064 c 0
 208.869116345 31.7809187602 126.449263098 171.149177621 114.542762986 227.892083364 c 0
 104.522764413 259.590427075 80.5531092529 306.867720628 61.7664520938 332.033479467 c 0
 42.4099236012 357.966885685 27.5 387.876897716 27.5 400.747 c 0
 27.5 428.085273328 58.0556027333 459.402 84.9678 459.402 c 0
 118.086408203 459.402 177.474212591 354.865544262 196.710690957 273.682012455 c 0
 223.066646276 162.456667486 250.559005486 123.275145968 257.584934887 122.629269168 c 1
 264.111911411 124.576852457 286.875134125 174.676058196 304.960829819 240.853753982 c 0
 351.59672403 411.485058095 372.041349951 459.402 409.158 459.402 c 0
 435.554549499 457.732541574 470.850577625 438.113169996 470.421915181 405.354602435 c 0
 470.421915181 385.127192247 460.453765819 354.297309968 438.619097024 295.495639495 c 0
 415.837278794 234.143227252 354.185648622 58.4151553439 304.647885379 -86.5118961291 c 0
 221.956471322 -315.176582093 217.736490257 -357.875350087 170.016692979 -361.206192082 c 0
EndSplineSet
EndChar

StartChar: z
Encoding: 122 122 90
Width: 469
VWidth: -25
Flags: HMW
LayerCount: 2
Fore
SplineSet
241.030815605 337.578629044 m 0
 211.404085035 338.066538198 146.429265849 332.126857417 118.499046179 332.583693956 c 0
 77.378786852 332.583693956 63.1068869837 338.789300903 48.1484 355.318 c 0
 36.7228999208 367.943054879 31.000015912 375.149345564 31.000015912 382.368629869 c 0
 46.9526097181 434.864326778 123.36156698 443.792728798 211.576059074 447.463775424 c 0
 304.115408477 452.70065444 392.576728228 407.316123308 390.367141207 336.46738474 c 1
 402.661702749 267.292263313 210.2444074 139.10671649 203.834979084 84.1801827703 c 0
 203.852664733 68.0443543475 207.455424331 61.6885848654 236.5464163 61.6885848654 c 0
 262.002396586 60.8600189554 361.74512246 73.0805346237 389.016715358 72.116017971 c 0
 424.951694569 71.3436531829 431.465638025 65.6598191706 434.756613238 41.8325306539 c 0
 434.756613238 29.6059712521 429.000191278 15.5223506537 419.271 5.79395 c 0
 400.182450289 -13.2957044759 297.090281931 -24.826798505 208.661867918 -24.826798505 c 0
 149.011234715 -24.826798505 96.033148196 -19.5797272967 80.0137 -7.86621 c 0
 68.7357102965 0.38129939017 62.3991939712 5.80177378767 62.3991939712 15.1614202419 c 0
 62.3991939712 27.7894109115 73.9337311778 47.5879862238 100.429 91.1748 c 0
 126.808 134.568 180.646 201.222 220.069 239.296 c 0
 259.494 277.366 291.75 316.121 291.75 325.415 c 0
 291.75 333.645316713 276.185881062 337.578629044 241.030815605 337.578629044 c 0
EndSplineSet
EndChar

StartChar: braceleft
Encoding: 123 123 91
Width: 313
VWidth: -51
Flags: HMW
LayerCount: 2
Fore
SplineSet
124.889130248 9.1448524249 m 0
 126.053547637 67.0791902054 132.414375911 132.699701162 135.599560109 163.530411263 c 0
 135.599560109 204.01531316 118.659130121 244.860208954 86.1143 281.929 c 0
 62.4150210026 308.921341581 50.9183827148 322.015460931 50.9183827148 334.188703363 c 0
 50.9183827148 345.657644256 61.1231934486 356.30918319 80.9424 376.996 c 0
 107.877148332 405.108081599 116.842410899 417.881945909 116.842410899 451.132899174 c 0
 117.279245618 475.001799406 109.244650873 526.876239396 109.991340234 553.930235511 c 0
 106.940056964 626.003727179 154.940903909 699.310028981 187.428 733.188 c 0
 201.741763246 745.915485281 211.765019754 751.835529786 222.634488397 751.835529786 c 0
 250.561882485 749.560794508 280.268213036 724.248229048 277.277422802 696.370448977 c 0
 277.277422802 676.645490628 267.953658426 653.599626648 249.277 629.859 c 0
 225.96 600.217 219.992 570.46 219.992 483.825 c 0
 219.992 423.983 213.655 363.18 205.908 348.701 c 0
 202.344425019 342.043659696 200.51666857 334.900131205 200.51666857 326.728199708 c 0
 200.51666857 311.713752408 206.686703035 293.227681743 219.597 267.907 c 0
 235.547309141 236.622319995 242.047407828 212.539635337 242.047407828 172.377217088 c 0
 242.592326864 143.173180381 235.652862914 87.1274257128 236.25389999 57.6382535572 c 0
 236.25389999 26.8692243491 239.937970958 9.33965143987 247.327 4.77246 c 0
 256.454 -0.866211 263.92 -28.1533 263.92 -55.8643 c 0
 263.92 -95.8164 258.09 -106.248 235.758 -106.248 c 0
 220.27 -106.248 188.289 -90.002 164.696 -70.1455 c 0
 133.266168043 -43.6980651801 124.889130248 -31.8184497735 124.889130248 9.1448524249 c 0
EndSplineSet
EndChar

StartChar: bar
Encoding: 124 124 92
Width: 254
VWidth: -51
Flags: HMW
LayerCount: 2
Fore
SplineSet
74.6994941272 192.054034213 m 0
 75.0362762118 284.203562577 72.7423365328 426.718272729 72.2494269069 524.533553157 c 0
 72.2494269069 635.660528722 77.5887792196 652.817893876 97.4609 671.83 c 0
 109.982683548 683.812299272 116.92158347 690.103933285 123.779465031 690.103933285 c 0
 131.452580485 690.103933285 139.024270486 682.227547918 154.201 665.633 c 0
 173.303172319 644.741032054 182.187821375 617.090904842 182.187821375 578.140567258 c 0
 177.674856234 395.89113421 174.967504893 274.054970938 175.089486287 195.480618813 c 0
 174.146661333 107.714967266 179.987959204 52.6652039345 182.550241902 -15.9295458468 c 0
 182.550241902 -48.7333703598 176.117989067 -54.018223418 154.92255255 -54.018223418 c 0
 66.695838552 -56.9974637966 78.3402097019 -3.73052874083 73.9017907171 86.8514736934 c 0
 74.3195564603 118.555308714 74.7508885286 141.929050752 74.6994941272 192.054034213 c 0
EndSplineSet
EndChar

StartChar: braceright
Encoding: 125 125 93
Width: 313
VWidth: -49
Flags: HMW
LayerCount: 2
Fore
SplineSet
143.274352928 500.012824452 m 0
 143.246011157 513.696869257 143.779947438 529.279954944 143.721793772 542.107751139 c 0
 143.721793772 601.899078971 137.515866575 621.167489992 116.044 640.6 c 0
 99.9111 655.202 86.708 674.992 86.708 684.575 c 0
 86.3032543389 700.709508528 124.049226789 745.65168454 147.067105168 743.858459157 c 0
 228.799578474 729.134542471 243.013426817 667.368301044 247.69 528.358 c 0
 247.69 477.435 257.31 428.739 272.441 402.37 c 0
 283.62824116 382.879500968 289.42835147 371.6458107 289.42835147 360.096322212 c 0
 290.485460731 336.00148992 239.12100318 274.173595096 246.299428329 244.119904829 c 0
 254.171516368 203.96258401 260.525269242 134.691333149 260.977706712 35.1794619212 c 0
 260.977706712 -58.6957847413 231.20863528 -108.311750927 216.761 -115.379 c 0
 200.487870473 -123.339276503 190.03157858 -127.07909197 180.237666317 -127.07909197 c 0
 150.65880552 -124.281707479 120.586575328 -101.261389103 115.551793019 -75.2562334641 c 0
 115.551793019 -56.5282694237 137.998364921 -10.6585358938 146.552 42.3662 c 0
 153.112383481 83.031296525 156.581367239 110.113376057 156.581367239 132.245490924 c 0
 162.707250367 169.898594952 122.610373303 237.362021163 122.106075464 265.834300074 c 0
 121.688504456 290.239486225 162.647165423 311.204496947 156.639149993 341.606389641 c 0
 150.384648465 386.549536815 142.609496864 430.179116527 143.274352928 500.012824452 c 0
EndSplineSet
EndChar

StartChar: asciitilde
Encoding: 126 126 94
Width: 532
VWidth: 0
Flags: HMW
LayerCount: 2
Fore
SplineSet
80.3641478183 210.536254333 m 0
 63.7088909128 210.099816773 47.9880613908 223.519452292 48.1544834695 243.199098704 c 0
 48.1544834695 258.76519466 57.8090964692 273.944381537 67.5977 285.29 c 0
 94.4232 316.383 132.395 339.64 174.568 341.541 c 1
 229.585 332.767 267.834 303.668 313.207 283.392 c 0
 324.973332062 278.133780147 337.493539897 275.652660656 349.991169525 275.652660656 c 0
 370.640108066 275.652660656 391.227411294 282.425766209 408.251 294.637 c 0
 423.829 305.811 433.979 327.065 454.568 329.391 c 1
 473.340485608 327.07806038 484.767936543 306.427096371 484.767936543 288.875782493 c 0
 484.767936543 256.047423979 460.491451579 236.66148223 436.777 218.831 c 0
 418.518163329 205.102568936 396.252740824 201.201728348 373.37796869 201.201728348 c 0
 357.0762581 201.201728348 340.46507694 203.182849373 324.774 205 c 0
 265.734 211.837 225.683 260.753 167.211 265.444 c 1
 132.366423242 256.201337201 120.123890394 216.522182123 80.3641478183 210.536254333 c 0
EndSplineSet
EndChar

StartChar: bullet
Encoding: 8226 8226 95
Width: 360
VWidth: -49
Flags: HMW
LayerCount: 2
Fore
SplineSet
119.731 281.849 m 0
 113.326 351.168 147.857 391.059 202.414 377.364 c 0
 235.852 368.973 241.031 359.696 241.031 308.191 c 0
 241.031 275.479 238.218 248.713 234.781 248.713 c 0
 231.343 248.713 219.58 245.771 208.636 242.178 c 0
 197.69 238.581 173.609 241.728 155.12 249.166 c 0
 136.629 256.605 120.705 271.312 119.731 281.849 c 0
EndSplineSet
EndChar

StartChar: endash
Encoding: 8211 8211 96
Width: 484
VWidth: -46
Flags: HMW
LayerCount: 2
Fore
SplineSet
42.4561 319.568 m 0
 62.0146 347.276 85.3857 352.389 234.443 361.566 c 0
 432.095 373.739 455.28 360.06 455.28 296.078 c 0
 455.28 228.963 390.083 234 343.222 236.159 c 0
 325.257 236.987 285.163 245.61 215.283 240.938 c 0
 105.645 233.609 83.5654 236.254 54.207 260.231 c 0
 23.0811 285.652 22.0811 290.702 42.4561 319.568 c 0
EndSplineSet
EndChar

StartChar: ellipsis
Encoding: 8230 8230 97
Width: 705
VWidth: 6
Flags: HMW
LayerCount: 2
Fore
SplineSet
50.7617 49.0176 m 0
 44.3564 118.336 78.8867 158.228 133.444 144.533 c 0
 166.881 136.142 172.062 126.865 172.062 75.3613 c 0
 172.062 42.6484 169.248 15.8809 165.812 15.8809 c 0
 162.374 15.8809 150.608 12.9404 139.665 9.34668 c 0
 128.722 5.75098 104.64 8.89648 86.1484 16.3359 c 0
 67.6592 23.7734 51.7344 38.4824 50.7617 49.0176 c 0
289.618 72.2197 m 0
 285.647 91.751 289.155 113.142 297.415 119.757 c 0
 351.755 163.27 404.065 156.407 422.676 103.325 c 0
 434.079 70.791 441.61 52.3584 398.614 24 c 0
 371.309 5.98828 358.79 7.65332 341.611 7.99805 c 0
 331.793 8.19434 322.275 16.543 313.248 23.6992 c 0
 304.223 30.8555 293.588 52.6895 289.618 72.2197 c 0
517.832 41.7959 m 0
 513.783 52.5801 515.924 76.7734 522.586 95.5566 c 0
 529.247 114.341 563.614 138.166 591.614 138.167 c 0
 624.172 138.167 664.055 108.72 652.643 53.6406 c 0
 645.65 19.8809 636.003 26.8008 609.153 13.2197 c 0
 579.959 -1.54492 549.168 17.251 549.027 20.6846 c 0
 548.883 24.1182 521.879 31.0127 517.832 41.7959 c 0
EndSplineSet
EndChar

StartChar: quoteleft
Encoding: 8216 8216 98
Width: 360
VWidth: -85
Flags: HMW
LayerCount: 2
Fore
SplineSet
176.937 564.774 m 0
 208.597 594.52 217.305 596.587 238.128 579.307 c 0
 256.264 564.255 260.097 544.723 253.283 502.103 c 0
 247.264 464.459 251.862 430.153 266.794 401.271 c 0
 279.247 377.196 289.433 350.438 289.433 341.812 c 0
 289.433 333.188 272.867 326.131 252.62 326.131 c 0
 226.838 326.131 204.449 342.845 177.909 381.891 c 0
 129.036 453.812 128.687 519.453 176.937 564.774 c 0
EndSplineSet
EndChar

StartChar: quoteright
Encoding: 8217 8217 99
Width: 360
VWidth: -89
Flags: HMW
LayerCount: 2
Fore
SplineSet
70.3877 348.864 m 0
 65.6426 356.542 72.875 390.592 86.4541 424.533 c 0
 107.421 476.936 108.169 491.818 91.3965 523.154 c 0
 73.9941 555.67 75.209 563.624 101.592 590.008 c 0
 119.115 607.531 141.49 616.131 155.534 610.744 c 0
 189.752 597.613 230.904 503.261 220.497 461.795 c 0
 210.112 420.423 128.499 334.908 99.3945 334.908 c 0
 88.1846 334.908 75.1328 341.189 70.3877 348.864 c 0
EndSplineSet
EndChar

StartChar: quotedblleft
Encoding: 8220 8220 100
Width: 500
VWidth: -93
Flags: HMW
LayerCount: 2
Fore
SplineSet
143.126 570.028 m 0
 168.215 596.736 181.459 601.046 203.005 589.515 c 0
 243.638 567.769 275.805 495.929 275.805 426.925 c 0
 275.805 378.62 270.381 366.418 248.91 366.418 c 0
 234.118 366.418 213.949 374.486 204.087 384.347 c 0
 194.226 394.208 186.157 407.355 186.157 413.568 c 0
 186.157 419.776 169.227 449.803 148.535 480.298 c 0
 110.909 535.738 110.909 535.738 143.126 570.028 c 0
302.347 519.356 m 0
 286.748 541.044 288.963 550.569 315.855 577.463 c 0
 335.271 596.879 357.662 605.929 372.353 600.293 c 0
 405.758 587.473 440.155 499.39 440.155 426.662 c 0
 440.155 376.028 435.305 366.418 409.741 366.418 c 0
 388.5 366.418 370.539 385.561 350.167 429.92 c 0
 334.128 464.842 312.609 505.091 302.347 519.356 c 0
EndSplineSet
EndChar

StartChar: quotedblright
Encoding: 8221 8221 101
Width: 500
VWidth: -94
Flags: HMW
LayerCount: 2
Fore
SplineSet
56.8203 451.405 m 0
 56.8203 483.373 133.254 623.066 155.393 631.562 c 0
 188.213 644.156 221.173 607.732 221.173 558.868 c 0
 221.173 531.188 203.162 493.178 172.611 456.377 c 0
 145.905 424.208 116.994 397.768 108.365 397.62 c 0
 99.7373 397.47 84.6104 405.418 74.75 415.279 c 0
 64.8887 425.141 56.8203 441.397 56.8203 451.405 c 0
223.34 372.323 m 0
 210.975 387.226 218.835 415.858 255.129 488.116 c 0
 294.994 567.482 309.781 584.112 340.496 584.112 c 0
 408.133 584.112 399.565 491.162 323.994 405.096 c 0
 274.634 348.872 249.573 340.716 223.34 372.323 c 0
EndSplineSet
EndChar

StartChar: copyright
Encoding: 169 169 102
Width: 686
VWidth: -49
Flags: HMW
LayerCount: 2
Fore
SplineSet
20.2607 340.057 m 0
 20.7314 474.349 68.6982 515.303 123.418 581.935 c 0
 180.06 650.909 265.498 672.333 323.167 675.22 c 0
 351.297 676.629 377.669 673.519 399.781 673.519 c 0
 421.892 673.519 456.811 664.816 477.374 654.18 c 0
 533.812 624.994 591.093 554.474 630.239 469.646 c 0
 657.852 409.806 665.29 372.497 665.735 291.61 c 0
 666.072 231.149 658.673 173.279 647.655 150.167 c 0
 637.404 128.654 622.838 97.5957 615.289 81.1475 c 0
 607.739 64.6992 577.466 34.5439 548.015 14.1377 c 0
 505.133 -15.582 476.709 -23.7529 405.264 -26.8945 c 0
 341.615 -29.6982 295.278 -23.1484 243.532 -4.03516 c 0
 203.648 10.6973 156.293 32.3955 138.303 44.1846 c 0
 120.315 55.9697 86.3203 106.146 62.7617 155.688 c 0
 27.0986 230.686 19.9834 261.546 20.2607 340.057 c 0
100.793 316.002 m 0
 111.767 242.823 170.012 135.08 217.52 100.07 c 0
 253.631 73.4629 322.116 54.9102 395.047 51.9834 c 0
 416.266 51.1309 457.041 63.5938 485.656 79.6777 c 0
 526.438 102.596 541.836 122.26 556.85 170.605 c 0
 567.388 204.533 576.747 262.602 577.646 299.645 c 0
 578.857 349.52 568.901 387.978 539.288 447.824 c 0
 477.117 573.479 466.496 580.971 384.874 593.872 c 0
 346.31 599.97 301.813 587.454 280.047 583.1 c 0
 193.354 565.763 82.8467 435.668 100.793 316.002 c 0
182.262 331.064 m 0
 182.8 367.737 193.33 409.633 207.436 431.16 c 0
 236.051 474.837 334.718 521.913 397.631 521.913 c 0
 452.624 521.913 484.44 491.938 484.44 440.128 c 0
 484.44 410.761 478.089 400.677 459.591 400.677 c 0
 445.919 400.677 423.939 412.604 410.742 427.184 c 0
 391.236 448.738 381.41 450.943 358.141 438.972 c 0
 342.404 430.877 315.679 411.634 298.757 396.213 c 0
 274.477 374.091 269.814 359.523 276.638 327.174 c 0
 287.015 277.981 332.092 225.553 364.012 225.553 c 0
 376.692 225.553 403.666 234.168 423.961 244.694 c 0
 444.251 255.224 469.193 260.635 479.382 256.725 c 0
 501.323 248.306 503.512 207.303 483.968 170.785 c 0
 472.915 150.133 455.452 144.734 399.775 144.751 c 0
 359.528 144.763 309.799 154.829 283.336 168.326 c 0
 214.012 203.675 181.181 256.535 182.262 331.064 c 0
EndSplineSet
EndChar

StartChar: registered
Encoding: 174 174 103
Width: 759
VWidth: -51
Flags: HMW
LayerCount: 2
Fore
SplineSet
44.8359 271.021 m 0
 36.5703 362.124 41.7666 387.919 53.9561 433.16 c 0
 62.9365 466.487 74.4219 481.191 82.0615 515.553 c 0
 91.1963 556.64 79.6709 568.726 135.732 622.441 c 0
 183.574 668.281 211.473 683.664 261.641 691.867 c 0
 297.088 697.664 358.503 701.418 398.12 700.208 c 0
 452.137 698.568 483.217 688.965 522.388 661.815 c 0
 592.411 613.293 671.543 491.557 700.768 387.41 c 0
 718.214 325.228 722.247 280.543 715.764 221.175 c 0
 702.134 96.3486 685.69 48.6787 636.717 -7.97656 c 0
 591.662 -60.0957 591.662 -60.0957 458.875 -64.915 c 0
 344.775 -69.0547 318.61 -65.8281 272.956 -41.9961 c 0
 243.73 -26.7422 213.554 -14.0098 205.895 -13.7021 c 0
 178.861 -12.6182 91.5166 76.0117 73.0225 121.122 c 0
 62.7188 146.249 50.0371 213.704 44.8359 271.021 c 0
125.75 232.884 m 0
 134.81 172.475 181.927 86.335 205.91 86.335 c 0
 223.79 86.335 230.892 385.575 213.507 406.521 c 0
 191.174 433.431 211.099 476.724 266.184 520.992 c 0
 305.319 552.441 331.308 562.479 373.59 562.479 c 0
 418.722 562.479 437.752 554.099 473.299 518.553 c 0
 507.376 484.473 519.438 458.539 527.09 402.898 c 0
 536.682 333.159 535.633 329.856 489.137 283.361 c 2
 441.321 235.544 l 1
 494.357 178.005 l 2
 559.765 107.049 562.816 79.6289 505.306 79.6289 c 0
 474.765 79.6289 447.066 94.5127 404.376 133.862 c 0
 372.014 163.691 340.399 184.919 334.111 181.035 c 0
 316.79 170.331 289.638 50.2676 301.923 38.7021 c 0
 319.224 22.4189 360.424 15.7783 454.524 14.1201 c 0
 530.039 12.7891 546.674 16.9053 570.209 42.7432 c 0
 607.479 83.6631 624.563 119.147 639.936 187.579 c 0
 649.674 230.908 647.751 265.717 632.242 326.796 c 0
 606.061 429.919 533.417 561.352 481.314 599.874 c 0
 435.212 633.96 353.964 638.856 277.352 612.158 c 0
 213.645 589.963 203.075 565.578 194.483 540.632 c 0
 189.197 525.28 171.529 496.604 155.877 460.6 c 0
 136.276 415.52 113.972 311.424 125.75 232.884 c 0
325.723 308.233 m 0
 339.646 285.711 401.16 302.396 430.039 336.526 c 0
 442.945 351.784 453.421 374.157 453.312 386.251 c 0
 452.977 423.651 421.437 471.969 389.82 483.519 c 0
 365.67 492.346 355.285 487.858 337.694 461.011 c 0
 315.059 426.467 308.036 336.853 325.723 308.233 c 0
EndSplineSet
EndChar

StartChar: exclamdown
Encoding: 161 161 104
Width: 352
VWidth: -23
Flags: HMW
LayerCount: 2
Fore
SplineSet
127.4 505.739 m 0
 103.518 568.982 165.271 618.155 211.066 572.359 c 0
 235.724 547.703 232.971 525.18 201.859 497.024 c 0
 165.274 463.915 142.169 466.621 127.4 505.739 c 0
129.092 -23.1221 m 0
 137.929 44.2744 141.782 133.046 137.652 174.152 c 0
 127.859 271.657 174.396484375 348.790039062 207.0703125 295.923828125 c 0
 212.442382812 287.231445312 210.772 185.345 211.916 69.5078 c 0
 213.618 -102.893 230.888671875 -145.208984375 212.364257812 -163.749023438 c 0
 192.8671875 -183.259765625 164.88 -183.575 140.881 -166.026 c 0
 114.984 -147.092 114.154 -137.037 129.092 -23.1221 c 0
EndSplineSet
EndChar

StartChar: sterling
Encoding: 163 163 105
Width: 607
VWidth: -49
Flags: HMW
LayerCount: 2
Fore
SplineSet
461.651 479.897 m 0
 432.002 479.897 378.883 553.109 340.711 553.109 c 0
 303.822 553.109 232.144 476.887 232.144 437.66 c 0
 232.144 419.764 250.438 408.256 294.373 398.517 c 0
 341.235 388.13 357.702 377.028 361.05 353.562 c 1
 379.061 316.61 303.329 303.003 277.057 310.903 c 1
 244.402 311.54 233.51 257.443 242.057 220.683 c 0
 262.515 132.693 424.79 70.2913 499.285 63.874 c 0
 565.754 58.1481 594.418 73.0755 577.724 4.70703 c 0
 569.078 -29.7393 562.065 -32.5801 485.738 -32.5801 c 0
 423.195 -32.5801 387.334 -23.3359 338.221 5.44727 c 0
 273.33 43.4746 270.046 46.3718 231.89 3.77441 c 0
 200.057 -31.7638 101.95 -60.1548 60.5156 -29.3076 c 1
 36.0577 1.77513 20.5261 79.7536 57.2412 126.387 c 0
 76.7488 151.164 100.038 178.896 115.742 183.001 c 0
 135.098 188.064 144.29 203.123 144.29 229.76 c 0
 144.29 280.272 119.676 304.192 67.6904 304.192 c 0
 11.6025 304.192 -2.61914 344.381 40.9756 379.684 c 0
 59.3164 394.536 85.915 406.688 100.081 406.688 c 0
 118.109 406.688 133.364 425.939 144.249 472.428 c 0
 160.217 540.626 265.751 655.605 347.654 655.605 c 0
 393.99 655.605 412.655 646.801 443.156 610.555 c 0
 483.69 562.379 495.368 479.897 461.651 479.897 c 0
EndSplineSet
EndChar

StartChar: currency
Encoding: 164 164 106
Width: 793
VWidth: -47
Flags: HMW
LayerCount: 2
Fore
SplineSet
630.982 410.731 m 17
 656.246 323.273 628.502 212.635 615.186 177.866 c 1
 615.629 127.312 667.898 99.7881 696.814 63.3799 c 1
 710.953 52.6572 718.588 32.8652 718.75 14.4814 c 0
 718.941 -7.41699 708.529 -27.3184 685.873 -27.5166 c 0
 627.803 -28.0273 605.58 31.0518 572.867 68.6875 c 0
 565.336 77.7285 555.904 80.6982 545.66 80.6084 c 0
 501.545 80.2207 460.203 55.3633 413.594 54.9541 c 0
 368.382 54.5566 324.567 67.3799 282.408 83.2803 c 1
 231.334 82.8311 200.128 -27.6895 137.089 -28.2441 c 0
 112.189 -29.1943 88.1123 -10.3857 87.9053 13.1553 c 0
 87.7178 34.5264 100.381 59.0762 115.187 73.3643 c 1
 134.564 105.402 185.725 125.684 185.373 165.677 c 0
 185.344 168.994 184.961 172.446 184.176 176.052 c 1
 158.306 218.719 135.616 261.918 135.146 315.344 c 0
 134.889 344.67 149.436 373.364 149.185 401.987 c 0
 149.113 410.065 147.863 418.138 144.77 426.217 c 1
 115.981 464.474 88.5898 504.007 61.8242 543.663 c 0
 54.2783 554.844 50.1416 568.366 50.0273 581.321 c 0
 49.2549 605.745 65.1436 628.427 95.6963 628.939 c 0
 127.52 629.219 152.201 599.774 170.896 576.766 c 1
 184.691 550.333 208.705 530.448 236.067 530.688 c 0
 247.4 530.788 259.308 534.34 271.301 542.308 c 0
 313.4 570.279 363.602 588.517 415.234 588.971 c 0
 467.507 590.104 499.106 570.434 538.277 552.995 c 0
 546.67 549.213 555.225 547.566 563.693 547.642 c 0
 629.047 546.594 642.824 631.07 701.369 634.292 c 1
 702.266 634.293 l 2
 725.553 633.642 742.959 612.548 743.545 586.463 c 0
 743.812 556.012 718.57 529.139 703.127 504.062 c 0
 682.18 470.052 642.957 455.151 630.982 410.731 c 17
548.195 322.91 m 0
 547.379 415.896 498.031 485.922 409.083 485.141 c 0
 313.779 484.304 242.627 415.149 238.771 314.311 c 0
 236.283 224.515 322.337 148.931 410.766 149.572 c 0
 502.061 149.83 548.896 243.031 548.195 322.91 c 0
EndSplineSet
EndChar

StartChar: yen
Encoding: 165 165 107
Width: 612
VWidth: -53
Flags: HMW
LayerCount: 2
Fore
SplineSet
562.189 340.373 m 0
 562.189 284.493 475.711 296.849 425.448 296.849 c 0
 404.637 296.849 384.786 302.028 365.215 293.247 c 1
 345.213 298.521 348.051 247.543 358.638 247.706 c 0
 383.961 248.096 404.643 244.902 429.62 244.902 c 0
 474.159 244.902 534.685 253.108 554.906 221.134 c 0
 563.872 207.241 557.398 175.364 543.961 165.182 c 1
 498.394 145.062 435.005 150.925 374.28 150.925 c 0
 366.313 150.925 356.049 149.709 352.766 141.212 c 1
 353.823 101.51 346.682 60.0264 351.492 18.5986 c 0
 353.097 0.0214844 346.934 -21.208 329.793 -30.627 c 0
 311.294 -40.6025 286.195 -33.0977 275.867 -16.0264 c 0
 254.718 18.9307 260.565 60.8828 261.511 106.888 c 0
 262.519 125.394 248.945 146.218 230.066 146.218 c 0
 204.722 146.218 179.545 142.745 154.174 142.276 c 0
 131.32 142.4 105.979 142.584 84.0342 150.405 c 0
 46.6826 163.717 50.499 219.948 87.0762 227.488 c 0
 136.263 237.628 186.721 235.093 238.599 238.329 c 0
 258.479 240.137 258.075 255.565 258.433 269.667 c 0
 259.136 297.428 243.852 293.898 229.133 294.791 c 0
 171.608 302.097 111.107 278.964 66.2656 304.179 c 0
 44.8096 316.244 44.4902 353.498 65.8477 366.475 c 0
 98.8926 386.553 140.63 388.629 178.425 391.567 c 1
 188.854 389.305 202.217 395.192 203.994 406.658 c 1
 179.066 482.31 108.653 530.567 85.708 606.17 c 1
 74.7334 624.976 80.375 654.818 101.18 663.551 c 0
 121.404 672.039 145.879 662.544 160.227 647.185 c 0
 208.227 595.798 235.492 535.599 276.213 472.359 c 0
 285.611 457.764 305.663 436.04 315.064 450.634 c 0
 359.492 519.599 382.228 558.719 407.53 616.745 c 0
 422.104 650.164 450.133 680.048 486.542 686.976 c 1
 514.688 685.466 526.475 650.646 520.48 627.711 c 0
 500.466 551.134 452.445 496.784 410.285 438.144 c 1
 401.421 430.514 396.9 415.964 404.348 406.123 c 1
 451.125 379.113 562.189 419.168 562.189 340.373 c 0
EndSplineSet
EndChar

StartChar: brokenbar
Encoding: 166 166 108
Width: 247
VWidth: -40
Flags: HMW
LayerCount: 2
Fore
SplineSet
129.269 698.453 m 0
 130.175 698.466 131.081 698.457 131.987 698.429 c 0
 144.791 698.653 159.091 692.857 164.126 680.274 c 1
 175.676 595.315 172.324 498.892 172.324 405.35 c 0
 172.324 359.233 116.78 329.295 87.0664 368.69 c 1
 60.7959 432.062 71.4189 528.891 74.5312 607.195 c 0
 75.4502 630.319 73.8281 654.855 84.2705 676.155 c 0
 92.2109 692.351 112.06 698.689 129.269 698.453 c 0
76.7441 189.75 m 0
 76.7441 222.355 117.658 259.47 146.421 233.838 c 0
 164.004 218.169 169.343 192.532 169.343 169.65 c 0
 169.343 72.7412 190.93 -36.7012 162.685 -119.234 c 0
 156.645 -136.885 135.519 -145.081 117.47 -142.642 c 0
 101.406 -140.47 86.5977 -128.428 83.7754 -112.972 c 0
 66.2529 -17.0137 76.7441 86.5127 76.7441 189.75 c 0
EndSplineSet
EndChar

StartChar: section
Encoding: 167 167 109
Width: 465
VWidth: -36
Flags: HMW
LayerCount: 2
Fore
SplineSet
55.6689 126.94 m 0
 21.0986 165.14 39.6211 233.627 103.709 304.562 c 2
 155.698 362.111 l 1
 109.505 409.771 l 2
 57.6875 463.234 50.6738 513.585 85.623 581.174 c 0
 109.638 627.609 187.898 668.351 253.09 668.351 c 0
 297.853 668.351 388.666 605.027 416.448 554.439 c 0
 431.844 526.403 430.852 517.137 410.245 496.526 c 0
 387.291 473.58 382.587 475.024 337.293 518.926 c 0
 304.097 551.098 274.692 565.854 243.773 565.854 c 0
 193.189 565.854 160.863 536.443 168.403 497.285 c 0
 171.234 482.589 208.722 454.313 254.424 432.403 c 0
 352.595 385.337 414.725 310.312 414.725 238.827 c 0
 414.725 195.731 406.471 183.178 360.183 155.87 c 0
 308.567 125.417 307.133 122.598 333.384 103.402 c 0
 375.881 72.3281 414.521 6.32031 414.626 -35.3867 c 0
 414.772 -90.6367 338.972 -141.197 246.925 -147.245 c 0
 205.289 -149.98 153.979 -143.395 129.194 -132.136 c 0
 70.7119 -105.565 46.9561 -75.583 63.3584 -49.042 c 0
 74.2822 -31.3662 87.1201 -30.8574 143.265 -45.8721 c 0
 180.052 -55.7129 225.213 -63.7637 243.619 -63.7637 c 0
 284.183 -63.7637 312.71 -38.1318 302.312 -11.0332 c 0
 294.91 8.25488 221.713 47.2871 126.6 82.668 c 0
 101.007 92.1875 69.0898 112.11 55.6689 126.94 c 0
165.808 245.092 m 0
 165.808 223.626 185.745 214.441 232.343 214.441 c 0
 258.199 214.441 287.49 224.239 297.432 236.217 c 0
 318.769 261.927 307.098 302.294 278.33 302.294 c 0
 251.032 302.294 165.808 258.969 165.808 245.092 c 0
EndSplineSet
EndChar

StartChar: uni00AD
Encoding: 173 173 110
Width: 588
VWidth: -53
Flags: HMW
LayerCount: 2
Fore
SplineSet
31.2939 302.814 m 1
 37.2529 353.312 27.4658 391.565 190.314 388.512 c 0
 284.937 386.652 392.644 390.008 416.806 394.823 c 0
 440.964 399.642 482.455 397.253 509.005 389.515 c 0
 535.559 381.776 548.867 357.68 553.534 345.52 c 0
 558.219 333.307 559.978 316.029 542.366 297.28 c 0
 511.471 264.396 503.333 263.401 281.198 265.397 c 0
 51.9189 267.457 41.4023 266.523 31.2939 302.814 c 1
EndSplineSet
EndChar

StartChar: degree
Encoding: 176 176 111
Width: 337
VWidth: -92
Flags: HMW
LayerCount: 2
Fore
SplineSet
61.4404 645.928 m 0
 82.2334 671.859 113.162 695.45 159.924 692.254 c 0
 213.415 688.946 244.979 649.07 254.614 601.711 c 0
 270.059 525.798 222.4 475.036 164.595 467.708 c 0
 112.879 461.15 73.4316 496.268 53.6533 529.232 c 0
 42.791 547.334 39.3232 569.259 39.7578 590.287 c 0
 39.6045 610.654 48.4316 630.274 61.4404 645.928 c 0
191.571 598.22 m 0
 176.064 630.688 123.223 632.009 109.792 596.992 c 0
 89.8223 544.931 167.761 510.429 193.396 557.549 c 0
 199.786 570.312 197.656 585.479 191.571 598.22 c 0
EndSplineSet
EndChar

StartChar: plusminus
Encoding: 177 177 112
Width: 563
VWidth: -40
Flags: HMW
LayerCount: 2
Fore
SplineSet
281.706 578.138 m 0
 305.318 579.518 329.249 563.051 335.991 540.059 c 0
 349.14 495.911 336.321 447.618 346.306 404.733 c 0
 353.959 371.863 407.789 376.398 441.862 379.231 c 0
 474.533 381.948 522.301 354.476 504.706 312.981 c 0
 490.763 279.943 439.068 272.754 396.929 272.754 c 0
 374.464 272.754 349.514 276.671 342.234 257.92 c 1
 341.363 214.119 350.922 171.272 348.108 125.296 c 0
 347.201 107.466 337.572 91.8242 329.362 76.582 c 1
 400.623 72.7052 489.813 88.8535 504.229 25.9102 c 0
 507.538 10.9795 505.924 2.14453 493.126 -7.13281 c 0
 469.282 -24.416 438.232 -29.1924 409.055 -29.1924 c 0
 335.49 -29.1924 261.775 -26.3927 188.783 -32.4766 c 0
 143.974 -36.2115 98.4541 -25.3789 75.3154 -1.2959 c 0
 55.9204 18.8907 72.7931 42.5277 97.8555 52.832 c 0
 145.129 72.2687 196.709 69.0369 253.557 73.6709 c 0
 258.735 74.1064 265.49 72.0107 269.082 77.0049 c 1
 267.425 85.1348 261.168 91.2178 258.237 98.8564 c 0
 241.895 145.322 246.967 194.722 245.449 243.247 c 1
 243.079 253.364 236.169 263.634 225.531 266.079 c 0
 174.312 280.263 118.46 262.534 74.7686 286.346 c 0
 63.8008 291.855 55.7578 303.192 55.3252 315.6 c 0
 54.2305 329.09 62.375 335.452 72.502 343.616 c 0
 106.976 373.075 158.84 365.136 210.299 374.434 c 0
 222.209 376.586 235.061 382.268 239.392 394.217 c 1
 242.712 439.952 242.279 485.658 242.279 531.644 c 0
 242.279 553.818 258.953 576.807 281.706 578.138 c 0
EndSplineSet
EndChar

StartChar: paragraph
Encoding: 182 182 113
Width: 588
VWidth: -47
Flags: HMW
LayerCount: 2
Fore
SplineSet
33.9502 406.002 m 0
 33.9502 447.351 68.3567096992 532.366624761 98.6318 565.817 c 0
 110.92 579.394 140.982421875 621.036132812 156 632 c 0
 191.947265625 658.244140625 264.79293663 655.07749427 340.018 656.315 c 0
 467.87504718 658.418339252 528.896 661.625 544.959 626.377 c 0
 557.458 598.946 557.145 586.459 543.548 570.077 c 0
 533.937 558.495 517.661 549.022 507.375 549.022 c 0
 497.089 549.022 484.083 531.991 478.469 511.172 c 0
 469.824 479.111 469.97 195.081 478.73 5.35449 c 0
 481.048 -44.8184 478.233 -49.7002 446.999 -49.7002 c 0
 420.056 -49.7002 410.839 -40.8691 403.895 -8.40918 c 0
 399.04 14.3018 394.332 151.745 393.437 297.021 c 0
 392.545 442.3 386.315 564.556 379.605 568.705 c 0
 372.892 572.854 358.955 566.068 348.635 553.634 c 0
 334.2 536.231 329.57 464.059 328.566 240.659 c 0
 327.464 -5.52148 324.127 -50.3135 306.655 -53.7305 c 0
 295.323 -55.9473 279.123 -49.416 270.656 -39.2158 c 0
 262.188 -29.0146 251.07 29.5977 245.946 91.0352 c 0
 236.629 202.739 236.629 202.739 170.571 245.545 c 0
 87.501 299.37 33.9502 362.266 33.9502 406.002 c 0
EndSplineSet
EndChar

StartChar: periodcentered
Encoding: 183 183 114
Width: 352
VWidth: -47
Flags: HMW
LayerCount: 2
Fore
SplineSet
117.336 277.114 m 0
 111.06 345.047 144.899 384.14 198.365 370.718 c 0
 231.135 362.496 236.21 353.404 236.21 302.929 c 0
 236.21 270.872 238.399 266.658 231.399 256.657 c 0
 229.468 253.897 193.688 238.657 182.399 238.657 c 0
 152.4 238.657 119.38 255.016 117.336 277.114 c 0
EndSplineSet
EndChar

StartChar: multiply
Encoding: 215 215 115
Width: 563
VWidth: -53
Flags: HMW
LayerCount: 2
Fore
SplineSet
39.3652 563.338 m 0
 52.1016 591.291 85.7289 593.921 110.438 585.199 c 0
 144.438 573.199 157.186 556.298 170.438 543.199 c 0
 188.417 525.428 257.573 428.051 279.679 428.051 c 0
 291.053 428.051 336.396 463.717 380.447 507.303 c 0
 470.733 596.649 504.993 600.623 504.993 521.755 c 0
 504.993 467.235 468.438 429.199 409.61 382.708 c 0
 391.516 368.408 369.815 354.284 367.392 341.698 c 0
 364.832 328.407 398.87 284.246 448.571 236.379 c 0
 520.741 166.865 533.521 147.339 530.117 111.777 c 0
 526.531 74.3701 521.318 69.96 483.936 72.7314 c 0
 452.782 75.042 422.523 96.7275 367.904 155.882 c 2
 294.018 235.908 l 1
 215.587 149.244 l 2
 137.968 63.4688 90.5195 41.4551 74.3096 83.6953 c 0
 59.9473 121.129 83.6553 178.154 140.372 242.589 c 0
 170.826 277.189 195.747 312.603 195.747 321.287 c 0
 195.747 329.969 156.951 380.059 109.531 432.597 c 0
 30.1094 520.6 24.583 530.896 39.3652 563.338 c 0
EndSplineSet
EndChar

StartChar: divide
Encoding: 247 247 116
Width: 563
VWidth: -51
Flags: HMW
LayerCount: 2
Fore
SplineSet
57.0918 365.585 m 0
 69.7793 388.258 87.3174 390.388 221.872 385.604 c 0
 304.696 382.656 382.572 383.502 428.479 382.69 c 0
 511.938 381.219 511.938 377.299 511.938 328.612 c 0
 511.938 279.928 539.377 279.928 321.492 277.755 c 0
 110.127 275.646 88.4707 280.28 68.3496 307.896 c 0
 48.082 335.711 46.0674 345.888 57.0918 365.585 c 0
233.317 102.373 m 0
 221.939 138.08 223.329 151.732 240.042 168.447 c 0
 265.295 193.699 316.667 195.951 339.8 172.82 c 0
 365.137 147.482 359.929 102.695 331.055 76.5615 c 0
 300.968 49.3359 260.415 46.4102 252.954 70.9287 c 0
 250.041 80.4932 241.207 77.6172 233.317 102.373 c 0
239.281 541.511 m 0
 247.267 562.52 263.366 583.378 275.053 587.863 c 0
 317.003 603.96 376.637 520.284 348.285 485.103 c 0
 330.17 462.62 280.128 462.83 249.103 485.517 c 0
 229.148 500.105 227.376 510.205 239.281 541.511 c 0
EndSplineSet
EndChar

StartChar: emdash
Encoding: 8212 8212 117
Width: 720
VWidth: -51
Flags: HMW
LayerCount: 2
Fore
SplineSet
332.702 234.5 m 0
 225.794 235.277 119.859 222.629 16.3066 235.423 c 0
 -26.418 240.702 -8.56152 334.361 27.9561 333.375 c 0
 176.952 329.354 327.845 348.982 477.095 343.324 c 0
 563.406 340.052 549.848 337.17 636.079 343.091 c 0
 657.741 345.077 722.281 350.505 727.919 307.456 c 0
 735.733 247.782 655.858 232.623 623.164 232.117 c 0
 518.702 230.5 462.869 234.532 332.702 234.5 c 0
EndSplineSet
EndChar

StartChar: ordmasculine
Encoding: 186 186 118
Width: 392
VWidth: -92
Flags: HMW
LayerCount: 2
Fore
SplineSet
40.0947 502.935 m 0
 40.0947 529.936 56.415 573.309 110.811 616.306 c 0
 151.8 648.705 194.132 657.746 200.225 657.746 c 0
 226.906 657.746 301.269 606.729 318.379 584.386 c 0
 360.64 529.2 342.38 409.22 326.41 386.985 c 0
 307.166 360.183 232.179 306.332 202.795 306.332 c 0
 187.027 306.332 153.612 323.59 128.546 344.683 c 0
 74.5117 390.146 40.0947 451.728 40.0947 502.935 c 0
148.111 521.39 m 0
 100.014 469.58 180.29 415.652 216.747 418.083 c 0
 263.312 421.187 279.936 471.552 264.537 506.719 c 0
 240.694 561.165 187.58 563.906 148.111 521.39 c 0
EndSplineSet
EndChar

StartChar: questiondown
Encoding: 191 191 119
Width: 490
VWidth: -16
Flags: HMW
LayerCount: 2
Fore
SplineSet
252.249 313.753 m 0
 279.716 316.585 301.498 286.562 290.11 261.325 c 0
 262.343 199.792 212.708 159.929 175.508 103.783 c 0
 157.689 76.8896 128.757 50.3164 132.433 15.9541 c 0
 137.649 -32.8232 175.679 -80.7021 225.095 -92.2051 c 0
 278.521 -105.254 329.824 -71.8574 362.142 -31.8301 c 0
 379.009 -10.0273 403.007 27.3783 433.791 0 c 0
 464.083 -26.9401 447.077 -75.394 424.823 -102.446 c 0
 376.956 -160.635 296.869 -187.945 222.555 -182.048 c 0
 154.121 -177.184 102.542 -123.888 68.7119 -67.9062 c 0
 44.7072 -28.1834 31.637 20.742 50.9268 64.9629 c 0
 79.5286 130.531 122.382 188.929 167.774 243.419 c 0
 190.803 271.063 213.15 309.722 252.249 313.753 c 0
242.03 535.503 m 0
 265.118 535.503 287.933 521.599 297.044 500.232 c 0
 312.287 462.938 277.421 423.696 237.816 423.696 c 0
 207.473 423.696 186.964 450.928 184.977 479.508 c 0
 182.732 511.786 211.734 535.503 242.03 535.503 c 0
EndSplineSet
EndChar

StartChar: radical
Encoding: 8730 8730 120
Width: 551
VWidth: -59
Flags: HMW
LayerCount: 2
Fore
SplineSet
46.0781 71.2402 m 1
 51.9463 116 61.1328 162.352 84.7676 201.39 c 1
 108.538 226.579 152.637 245.39 184.103 223.636 c 1
 227.769 177.991 224.973 106.406 265.165 58.418 c 1
 298.824 39.5322 296.366 101.286 302.815 121.092 c 1
 318.185 281.509 359.352 456.592 392.146 608.885 c 1
 396.478 641.248 394.712 691.637 435.211 699.868 c 1
 465.895 702.907 514.622 692.454 505.44 651.399 c 1
 494.782 579.282 463.867 511.87 453.312 439.598 c 1
 443.365 361.14 428.773 283.331 409.279 206.654 c 1
 386.175 108.392 375.667 41.8467 362.308 -58 c 1
 356.457 -90.4736 339.807 -135.695 299.419 -132.849 c 1
 292.079 -131.749 l 2
 251.747 -124.761 237.436 -87.2754 218.308 -56 c 0
 197.229 -21.5342 188.64 16.4033 170.816 57.917 c 1
 161.92 91.5381 124.119 95.3242 110.254 62.6953 c 1
 88.1436 27.8027 33.8086 35.3135 46.0781 71.2402 c 1
EndSplineSet
EndChar

StartChar: trademark
Encoding: 8482 8482 121
Width: 810
VWidth: -93
Flags: HMW
LayerCount: 2
Fore
SplineSet
53.8122 641.226 m 0
 50.4401 654.665 51.5457 667.98 62.5064 674.758 c 0
 75.5157 682.795 128.643 684.01 211.685 683.675 c 0
 222.601 683.628 251.849 680.915 278.177 677.625 c 0
 313.443 673.215 331.317 669.522 334.584 652.439 c 0
 336.51 642.383 332.839 629.83 326.176 621.812 c 0
 316.384 610.011 299.585 608.536 270.851 610.293 c 0
 232.128 612.658 238.685 617.136 229.352 581.913 c 0
 218.023 539.141 217.825 408.839 226.483 392.66 c 0
 240.031 367.349 241.656 321.86 226.068 303.517 c 0
 219.454 295.737 209.876 288.056 200.709 288.056 c 0
 191.568 288.056 181.901 295.693 175.16 303.451 c 0
 147.892 334.811 171.158 584.641 159.843 607.43 c 1
 156.395 607.921 150.81 606.495 147.704 603.919 c 0
 138.126 595.97 126.745 595.729 115.542 601.835 c 0
 109.411 605.181 94.4442 610.411 84.3403 612.536 c 0
 68.339 615.905 57.7227 625.664 53.8122 641.226 c 0
370.977 420.603 m 0
 377.865 540.404 387.052 615.559 400.06 649.778 c 0
 405.1 663.024 414.64 671.029 426.236 672.149 c 0
 455.849 675.018 488.375 637.11 491.907 593.532 c 0
 494.511 561.536 516.151 519.84 516.609 480.537 c 0
 516.873 457.523 524.594 439.226 529.371 433.569 c 1
 533.054 440.359 537.973 453.209 542.091 468.344 c 0
 556.478 521.23 577.484 570.533 590.007 621.687 c 0
 594.064 638.249 603.088 660.117 616.136 668.799 c 0
 626.778 675.88 639.376 673.043 651.389 654.711 c 0
 662.461 637.819 666.474 601.271 671.105 524.924 c 0
 677.144 425.369 688.361 365.392 699.021 351.505 c 0
 702.326 347.202 703.681 341.73 703.727 336.029 c 0
 703.875 317.495 689.972 292.721 673.78 292.721 c 0
 621.547 292.721 616.588 457.399 608.852 500.675 c 1
 603.137 485.879 595.682 461.123 588.739 432.977 c 0
 564.949 336.561 557.834 310.943 537.101 302.988 c 0
 526.885 299.067 514.215 303.386 506.509 311.089 c 0
 497.06 320.537 485.444 361.034 475.251 405.142 c 0
 461.254 465.694 455.162 491.833 452.059 496.698 c 1
 447.052 491.867 437.207 460.893 432.628 390.095 c 0
 429.799 346.332 426.088 306.841 418.601 297.429 c 0
 407.799 283.855 391.306 282.708 376.317 292.245 c 0
 362.688 300.917 366.105 335.927 370.977 420.603 c 0
EndSplineSet
EndChar

StartChar: notequal
Encoding: 8800 8800 122
Width: 575
VWidth: -50
Flags: HMW
LayerCount: 2
Fore
SplineSet
40.6943359375 177.103515625 m 0
 14.7919921875 205.727539062 14.8916015625 209.772460938 42.255859375 242.009765625 c 0
 63.154296875 266.62890625 86.0166015625 274.850585938 191.896484375 282.328125 c 1
 206.227539062 308.63671875 226.950195312 348.5546875 239.311523438 376.793945312 c 0
 252.095703125 405.98046875 256.122070312 409.852539062 262.290039062 418.061523438 c 1
 154.333984375 419.34765625 65.1435546875 424.629882812 53.904296875 430.90234375 c 0
 25.9189453125 446.524414062 22.6728515625 501.46484375 48.78125 517.600585938 c 0
 58.9140625 523.86328125 165.588867188 531.734375 285.830078125 535.091796875 c 0
 303.032226562 535.5703125 318.958984375 535.978515625 333.715820312 536.30859375 c 0
 333.8828125 536.624023438 334.047851562 536.942382812 334.215820312 537.259765625 c 0
 386.740234375 638.8046875 426.28515625 668.130859375 476.50390625 659.357421875 c 1
 499.30859375 631.8828125 497.802734375 582.12109375 473.169921875 534.901367188 c 1
 505.94140625 531.794921875 520.26171875 525.388671875 531.243164062 514.407226562 c 0
 545.975585938 499.67578125 555.788085938 471.904296875 553.044921875 452.692382812 c 0
 548.916015625 423.748046875 542.403320312 418.756835938 397.311523438 417.921875 c 1
 385.743164062 393.51953125 367.873046875 355.426757812 335.772460938 290.436523438 c 1
 467.46875 296.59375 490.241210938 292.446289062 512.849609375 269.836914062 c 0
 528.657226562 254.02734375 539.352539062 225.374023438 536.610351562 206.163085938 c 0
 531.8671875 172.928710938 522.713867188 171.233398438 348.154296875 171.233398438 c 0
 322.545898438 171.233398438 297.76171875 170.875 274.919921875 170.23046875 c 1
 210.751953125 48.583984375 184.21484375 22.1240234375 151.911132812 18.38671875 c 0
 127.905273438 15.607421875 103.885742188 24.529296875 98.5341796875 33.1923828125 c 0
 87.2236328125 56.056640625 98.248046875 100.435546875 117.696289062 146.625976562 c 1
 91.1611328125 145.736328125 58.9169921875 156.96875 40.6943359375 177.103515625 c 0
EndSplineSet
EndChar

StartChar: infinity
Encoding: 8734 8734 123
Width: 881
VWidth: -53
Flags: HMW
LayerCount: 2
Fore
SplineSet
53.709 396.75 m 1
 82.3076 459.034 137.649 480.436 207.66 510.538 c 0
 268.771 536.813 335.509 510.32 381.225 469.785 c 1
 401.993 449.278 426.004 417.451 459.653 430.031 c 1
 490.112 438.043 505.148 468.614 530.593 483.563 c 0
 573.606 507.887 622.458 518.804 673.106 511.779 c 1
 731.494 491.338 755.32 468.472 791.028 422.256 c 1
 828.089 362.205 848.704 279.144 811.429 214.642 c 0
 791.872 179.558 756.406 146.401 721.143 132.712 c 1
 680.198 119.681 634.781 115.448 593.587 129.838 c 1
 543.109 154.51 506.052 208.671 446.48 212.542 c 1
 404.774 211.884 382.697 170.477 348.274 153.343 c 1
 303.615 123.634 247.208 110.476 194.832 124.949 c 1
 144.854 133.562 85.9814 155.341 71.0322 209.478 c 1
 48.0654 268.881 46.7412 334.169 53.709 396.75 c 1
153.698 340.797 m 0
 130.514 282.354 191.844 216.713 251.688 226.437 c 1
 280.641 227.131 324.236 237.678 344.093 272.76 c 24
 365.862 311.22 379.48 353.541 342.034 386.057 c 1
 309.146 410.852 265.15 417.701 229.239 406.358 c 1
 201.586 396.343 165.687 372.108 153.698 340.797 c 0
535.975 334.118 m 1
 542.83 281.828 591.249 249.503 634.204 226.727 c 1
 660.436 218.829 686.907 234.284 704.789 252.483 c 1
 734.674 272.411 730.774 314.253 711.663 340.2 c 0
 693.272 363.911 666.514 407.224 631.402 402.872 c 1
 590.574 402.319 547.405 378.083 535.975 334.118 c 1
EndSplineSet
EndChar

StartChar: greaterequal
Encoding: 8805 8805 124
Width: 575
VWidth: -46
Flags: HMW
LayerCount: 2
Fore
SplineSet
77.9453125 655.654296875 m 0
 110.09765625 677.734375 164.91796875 682.532226562 188.481445312 647.078125 c 1
 252.353515625 594.471679688 328.797851562 559.971679688 389.655273438 507.09765625 c 0
 418.991210938 481.611328125 464.125 473.453125 499.344726562 446.68359375 c 1
 531.478515625 422.9765625 524.420898438 375.9609375 510.31640625 346.391601562 c 0
 494.389648438 313.0078125 457.748046875 298.799804688 430.385742188 283.78515625 c 1
 360.134765625 246.095703125 290.16796875 206.908203125 217.991210938 172.08984375 c 0
 180.672851562 154.0859375 139.454101562 143.931640625 98.0380859375 141.384765625 c 0
 97.6298828125 141.360351562 98.4091796875 141.374023438 97.236328125 141.376953125 c 1
 87.6279296875 141.612304688 74.5263671875 139.23046875 61.5859375 143.338867188 c 0
 61.392578125 143.401367188 61.7470703125 143.279296875 61.205078125 143.470703125 c 1
 43.150390625 150.171875 44.1923828125 171.474609375 47.3583984375 182.295898438 c 1
 54.8935546875 209.880859375 83.015625 220.08203125 100.659179688 231.129882812 c 0
 170.461914062 274.62109375 244.272460938 310.701171875 313.958984375 352.5 c 0
 314.828125 353.021484375 313.090820312 352.231445312 315.833007812 353.310546875 c 1
 320.469726562 354.840820312 325.310546875 358.266601562 328.577148438 362.3203125 c 0
 339.549804688 375.939453125 338.934570312 399.6171875 322.165039062 412.879882812 c 0
 259.212890625 462.216796875 192.830078125 502.713867188 117.901367188 537.6171875 c 1
 101.934570312 544.813476562 79.734375 547.897460938 65.8466796875 565.448242188 c 0
 45.8623046875 590.702148438 51.2431640625 636.637695312 77.9453125 655.654296875 c 0
363.125 150.674804688 m 0
 409.643554688 162.275390625 461.307617188 184.6328125 514.966796875 167.819335938 c 0
 516.0859375 167.467773438 514.092773438 168.400390625 517.112304688 166.760742188 c 1
 534.720703125 155.594726562 531.81640625 129.826171875 519.268554688 117.4921875 c 0
 515.455078125 113.7421875 523.161132812 121.772460938 519.572265625 117.806640625 c 0
 504.013671875 100.623046875 484.809570312 94.2734375 462.778320312 85.462890625 c 0
 348.451171875 39.7490234375 268.409179688 2.2060546875 165.159179688 -24.66796875 c 0
 148.885742188 -28.9052734375 130.498046875 -35.88671875 110.7578125 -33.91796875 c 1
 84.716796875 -32.3037109375 61.494140625 -8.9521484375 63.0380859375 18.375 c 0
 64.357421875 40.919921875 84.5654296875 53.208984375 99.91015625 59.8466796875 c 1
 186.41015625 92.7607421875 272.63671875 128.112304688 363.125 150.674804688 c 0
EndSplineSet
EndChar

StartChar: lessequal
Encoding: 8804 8804 125
Width: 575
VWidth: -45
Flags: HMW
LayerCount: 2
Fore
SplineSet
452.640625 673.060546875 m 0
 470.162109375 674.087890625 484.82421875 666.196289062 494.997070312 654.380859375 c 0
 516.234375 629.715820312 520.236328125 585.53125 490.814453125 560.581054688 c 1
 466.66796875 541.309570312 437.509765625 532.845703125 410.870117188 523.048828125 c 1
 342.825195312 499.614257812 276.55859375 473.15625 224.021484375 433.995117188 c 0
 217.932617188 429.458007812 222.166015625 422.696289062 235.294921875 415.602539062 c 1
 317.745117188 366.8984375 397.4609375 314.840820312 472.791015625 255.302734375 c 1
 489.857421875 240.779296875 509.32421875 227.046875 523.291992188 207.151367188 c 1
 533.244140625 193.513671875 518.053710938 181.92578125 512.879882812 178.918945312 c 0
 512.649414062 178.78515625 513.09375 179.02734375 512.418945312 178.671875 c 1
 436.469726562 140.060546875 371.880859375 192.349609375 323.834960938 223.485351562 c 0
 255.577148438 267.721679688 183.33203125 304.591796875 110.458984375 345.716796875 c 0
 99.4443359375 351.93359375 85.771484375 361.404296875 73.94140625 373.013671875 c 0
 52.591796875 393.96484375 34.51171875 426.2734375 62.8271484375 454.814453125 c 0
 144.868164062 537.506835938 256.953125 592.8359375 365.919921875 643.9765625 c 1
 392.87109375 655.509765625 420.75 670.572265625 452.640625 673.060546875 c 0
75.8408203125 207.767578125 m 0
 81.154296875 219.890625 90.4306640625 236.880859375 109.2421875 239.372070312 c 0
 111.30859375 239.368164062 l 1
 137.544921875 236.92578125 162.44140625 223.916992188 184.245117188 210.930664062 c 1
 273.123046875 154.6015625 374.799804688 116.84765625 457.54296875 50.232421875 c 0
 468.939453125 41.0576171875 486.888671875 25.8671875 484.208984375 4.5400390625 c 0
 481.799804688 -14.6396484375 464.48046875 -33.9599609375 443.559570312 -33.9599609375 c 0
 407.788085938 -33.9599609375 373.74609375 -20.0048828125 344.94921875 -1.10546875 c 0
 286.141601562 37.490234375 216.279296875 61.2822265625 158.33984375 105.69140625 c 0
 134.119140625 124.254882812 112.038085938 145.173828125 90.6015625 166.637695312 c 1
 83.021484375 174.748046875 68.587890625 189.728515625 75.8408203125 207.767578125 c 0
EndSplineSet
EndChar

